<svg width="182" height="173" viewBox="0 0 182 173" fill="none" xmlns="http://www.w3.org/2000/svg">
<path d="M86.8009 103.859C86.8009 102.401 85.7929 101.537 84.0469 101.483V99.5388H83.6059V101.483C81.8689 101.537 80.8519 102.401 80.8519 103.859C80.8519 105.335 81.8599 106.208 83.6059 106.262V107.963H84.0469V106.262C85.7929 106.199 86.8009 105.335 86.8009 103.859ZM81.3019 103.859C81.3019 102.662 82.1119 101.951 83.6059 101.888V105.857C82.1209 105.794 81.3019 105.074 81.3019 103.859ZM84.0469 105.857V101.888C85.5319 101.951 86.3599 102.653 86.3599 103.859C86.3599 105.083 85.5319 105.794 84.0469 105.857ZM89.7946 101.483C89.0656 101.483 88.3816 101.735 87.9136 102.149L88.1386 102.473C88.5256 102.122 89.1106 101.879 89.7586 101.879C90.6766 101.879 91.1536 102.347 91.1536 103.22V103.598H89.5426C88.2376 103.598 87.7876 104.201 87.7876 104.912C87.7876 105.713 88.4266 106.253 89.4796 106.253C90.2986 106.253 90.8746 105.92 91.1716 105.38V106.217H91.6036V103.238C91.6036 102.077 90.9556 101.483 89.7946 101.483ZM89.5426 105.884C88.7146 105.884 88.2376 105.506 88.2376 104.894C88.2376 104.354 88.5796 103.949 89.5516 103.949H91.1536V104.831C90.8836 105.506 90.3346 105.884 89.5426 105.884ZM96.8969 106.217H97.4369L95.3849 103.796L97.2929 101.519H96.7979L95.0249 103.652H93.8819V101.519H93.4319V106.217H93.8819V104.039H95.0249L96.8969 106.217ZM101.574 101.519H97.4519V101.924H99.2879V106.217H99.7379V101.924H101.574V101.519Z" fill="#76BD1D"/>
<path d="M57.577 81.6168V86.3868H60.619V84.4428H63.931L59.683 94.2168H63.571L68.017 83.8488V81.6168H57.577ZM79.8503 88.9788H77.9783V86.8368H74.6123V88.9788H72.0563L77.1863 81.6168H73.4963L67.8443 89.4828V91.8048H74.5043V94.2168H77.9783V91.8048H79.8503V88.9788ZM82.8694 90.3288C81.6814 90.3288 80.8174 91.1208 80.8174 92.3448C80.8174 93.1908 81.2314 93.8028 81.8794 94.1088L81.0334 97.0428H83.1754L84.3094 94.4148C84.8314 93.2448 84.9034 92.8488 84.9034 92.3448C84.9034 91.1208 84.0394 90.3288 82.8694 90.3288ZM90.7391 86.2068H89.8931L90.0551 84.3708H95.1311V81.6168H87.1031L86.4731 88.9788H89.8931C91.8191 88.9788 92.3411 89.4828 92.3411 90.2568C92.3411 91.1028 91.5311 91.5888 90.3251 91.5888C89.1191 91.5888 87.8591 91.2288 86.8331 90.5448L85.5551 93.2268C86.8331 94.0368 88.6871 94.4688 90.4331 94.4688C94.2311 94.4688 95.9231 92.4168 95.9231 90.1668C95.9231 87.9348 94.4651 86.2068 90.7391 86.2068ZM103.401 86.1888C102.213 86.1888 101.259 86.5128 100.557 87.1248C100.737 85.1988 101.943 84.1908 103.743 84.1908C104.553 84.1908 105.345 84.3348 106.065 84.8388L107.361 82.2828C106.443 81.6888 105.075 81.3648 103.653 81.3648C99.6747 81.3648 96.9567 83.8668 96.9567 88.2588C96.9567 92.3448 99.2607 94.4688 102.789 94.4688C105.543 94.4688 107.739 92.7948 107.739 90.1668C107.739 87.7548 105.777 86.1888 103.401 86.1888ZM102.573 91.9308C101.493 91.9308 100.809 91.2828 100.809 90.3468C100.809 89.3928 101.529 88.7448 102.555 88.7448C103.581 88.7448 104.283 89.3568 104.283 90.3288C104.283 91.3188 103.581 91.9308 102.573 91.9308ZM111.301 88.4388C113.173 88.4388 114.541 87.1428 114.541 84.9468C114.541 82.7688 113.173 81.4548 111.301 81.4548C109.447 81.4548 108.079 82.7688 108.079 84.9468C108.079 87.1428 109.447 88.4388 111.301 88.4388ZM110.149 94.2168H112.741L121.345 81.6168H118.753L110.149 94.2168ZM111.301 86.7288C110.725 86.7288 110.239 86.2248 110.239 84.9468C110.239 83.6688 110.725 83.1648 111.301 83.1648C111.913 83.1648 112.363 83.6688 112.363 84.9468C112.363 86.2248 111.913 86.7288 111.301 86.7288ZM120.193 94.3788C122.065 94.3788 123.433 93.0828 123.433 90.8868C123.433 88.7088 122.065 87.3948 120.193 87.3948C118.321 87.3948 116.971 88.7088 116.971 90.8868C116.971 93.0828 118.321 94.3788 120.193 94.3788ZM120.193 92.6688C119.599 92.6688 119.131 92.1648 119.131 90.8868C119.131 89.6088 119.599 89.1048 120.193 89.1048C120.787 89.1048 121.255 89.6088 121.255 90.8868C121.255 92.1648 120.787 92.6688 120.193 92.6688Z" fill="#76BD1D"/>
<path d="M80.9398 48.5043L77.0598 57.6243L73.2598 48.5043H68.9798L74.9598 62.5043H78.8598L84.8598 48.5043H80.9398ZM88.6202 62.5043H92.5802V51.6443H96.8602V48.5043H84.3202V51.6443H88.6202V62.5043ZM106.996 62.5043H111.236L108.216 58.1043C109.956 57.2643 110.956 55.7443 110.956 53.6843C110.956 50.4843 108.556 48.5043 104.736 48.5043H98.3355V62.5043H102.296V58.7843H104.456L106.996 62.5043ZM106.956 53.6843C106.956 54.9643 106.136 55.7243 104.496 55.7243H102.296V51.6243H104.496C106.136 51.6243 106.956 52.3843 106.956 53.6843Z" fill="#304078"/>
<path d="M66.4043 122.603H63.3623V119.633H60.5903V122.603H57.5303V125.231H60.5903V128.201H63.3623V125.231H66.4043V122.603ZM79.9822 124.979H78.1102V122.837H74.7442V124.979H72.1882L77.3182 117.617H73.6282L67.9762 125.483V127.805H74.6362V130.217H78.1102V127.805H79.9822V124.979ZM86.2678 130.469C89.4718 130.469 91.8118 128.075 91.8118 123.917C91.8118 119.759 89.4718 117.365 86.2678 117.365C83.0458 117.365 80.7058 119.759 80.7058 123.917C80.7058 128.075 83.0458 130.469 86.2678 130.469ZM86.2678 127.553C85.1158 127.553 84.2878 126.563 84.2878 123.917C84.2878 121.271 85.1158 120.281 86.2678 120.281C87.4018 120.281 88.2298 121.271 88.2298 123.917C88.2298 126.563 87.4018 127.553 86.2678 127.553ZM94.7259 126.329C93.5379 126.329 92.6739 127.121 92.6739 128.345C92.6739 129.191 93.0879 129.803 93.7359 130.109L92.8899 133.043H95.0319L96.1659 130.415C96.6879 129.245 96.7599 128.849 96.7599 128.345C96.7599 127.121 95.8959 126.329 94.7259 126.329ZM104.077 122.189C102.889 122.189 101.935 122.513 101.233 123.125C101.413 121.199 102.619 120.191 104.419 120.191C105.229 120.191 106.021 120.335 106.741 120.839L108.037 118.283C107.119 117.689 105.751 117.365 104.329 117.365C100.351 117.365 97.6335 119.867 97.6335 124.259C97.6335 128.345 99.9375 130.469 103.465 130.469C106.219 130.469 108.415 128.795 108.415 126.167C108.415 123.755 106.453 122.189 104.077 122.189ZM103.249 127.931C102.169 127.931 101.485 127.283 101.485 126.347C101.485 125.393 102.205 124.745 103.231 124.745C104.257 124.745 104.959 125.357 104.959 126.329C104.959 127.319 104.257 127.931 103.249 127.931ZM111.977 124.439C113.849 124.439 115.217 123.143 115.217 120.947C115.217 118.769 113.849 117.455 111.977 117.455C110.123 117.455 108.755 118.769 108.755 120.947C108.755 123.143 110.123 124.439 111.977 124.439ZM110.825 130.217H113.417L122.021 117.617H119.429L110.825 130.217ZM111.977 122.729C111.401 122.729 110.915 122.225 110.915 120.947C110.915 119.669 111.401 119.165 111.977 119.165C112.589 119.165 113.039 119.669 113.039 120.947C113.039 122.225 112.589 122.729 111.977 122.729ZM120.869 130.379C122.741 130.379 124.109 129.083 124.109 126.887C124.109 124.709 122.741 123.395 120.869 123.395C118.997 123.395 117.647 124.709 117.647 126.887C117.647 129.083 118.997 130.379 120.869 130.379ZM120.869 128.669C120.275 128.669 119.807 128.165 119.807 126.887C119.807 125.609 120.275 125.105 120.869 125.105C121.463 125.105 121.931 125.609 121.931 126.887C121.931 128.165 121.463 128.669 120.869 128.669Z" fill="#76BD1D"/>
<path d="M71.375 137.863V142.561H71.825V138.268H75.029V142.561H75.479V137.863H71.375ZM79.7889 137.827C78.9429 137.827 78.2319 138.25 77.8629 138.97V137.863H77.4309V144.307H77.8809V141.49C78.2589 142.192 78.9609 142.597 79.7889 142.597C81.1119 142.597 82.1109 141.625 82.1109 140.212C82.1109 138.808 81.1119 137.827 79.7889 137.827ZM79.7619 142.192C78.6819 142.192 77.8719 141.391 77.8719 140.212C77.8719 139.033 78.6819 138.232 79.7619 138.232C80.8419 138.232 81.6609 139.033 81.6609 140.212C81.6609 141.391 80.8419 142.192 79.7619 142.192ZM85.4462 142.597C86.7962 142.597 87.7952 141.607 87.7952 140.212C87.7952 138.817 86.7962 137.827 85.4462 137.827C84.0962 137.827 83.0972 138.817 83.0972 140.212C83.0972 141.607 84.0962 142.597 85.4462 142.597ZM85.4462 142.192C84.3662 142.192 83.5562 141.391 83.5562 140.212C83.5562 139.033 84.3662 138.232 85.4462 138.232C86.5262 138.232 87.3362 139.033 87.3362 140.212C87.3362 141.391 86.5262 142.192 85.4462 142.192ZM93.2748 142.165V137.863H92.8248V142.165H89.7108V137.863H89.2608V142.561H93.6258V143.785H94.0578V142.165H93.2748ZM99.3832 140.194C99.3832 138.799 98.4292 137.827 97.1422 137.827C95.8552 137.827 94.8922 138.817 94.8922 140.212C94.8922 141.607 95.8912 142.597 97.3132 142.597C98.0242 142.597 98.6722 142.336 99.0862 141.832L98.8252 141.535C98.4652 141.976 97.9162 142.192 97.3222 142.192C96.1972 142.192 95.3782 141.436 95.3332 140.32H99.3742C99.3742 140.275 99.3832 140.23 99.3832 140.194ZM97.1422 138.223C98.1412 138.223 98.8792 138.952 98.9422 139.969H95.3422C95.4142 138.943 96.1432 138.223 97.1422 138.223ZM100.854 142.561H101.304V140.401H104.49V142.561H104.94V137.863H104.49V140.005H101.304V137.863H100.854V142.561ZM110.024 137.863H105.902V138.268H107.738V142.561H108.188V138.268H110.024V137.863ZM65.4951 150.597C66.8451 150.597 67.8441 149.607 67.8441 148.212C67.8441 146.817 66.8451 145.827 65.4951 145.827C64.1451 145.827 63.1461 146.817 63.1461 148.212C63.1461 149.607 64.1451 150.597 65.4951 150.597ZM65.4951 150.192C64.4151 150.192 63.6051 149.391 63.6051 148.212C63.6051 147.033 64.4151 146.232 65.4951 146.232C66.5751 146.232 67.3851 147.033 67.3851 148.212C67.3851 149.391 66.5751 150.192 65.4951 150.192ZM72.2748 145.863H68.1528V146.268H69.9888V150.561H70.4388V146.268H72.2748V145.863ZM76.7033 150.561H77.2433L75.1913 148.14L77.0993 145.863H76.6043L74.8313 147.996H73.6883V145.863H73.2383V150.561H73.6883V148.383H74.8313L76.7033 150.561ZM78.7315 145.863L78.6505 147.483C78.5785 148.842 78.4885 150.201 77.6875 150.201C77.6245 150.201 77.5435 150.183 77.4715 150.165L77.4265 150.552C77.5705 150.588 77.6965 150.615 77.8135 150.615C78.7945 150.615 78.9745 149.166 79.0645 147.519L79.1275 146.268H81.5755V150.561H82.0255V145.863H78.7315ZM85.8417 150.597C87.1917 150.597 88.1907 149.607 88.1907 148.212C88.1907 146.817 87.1917 145.827 85.8417 145.827C84.4917 145.827 83.4927 146.817 83.4927 148.212C83.4927 149.607 84.4917 150.597 85.8417 150.597ZM85.8417 150.192C84.7617 150.192 83.9517 149.391 83.9517 148.212C83.9517 147.033 84.7617 146.232 85.8417 146.232C86.9217 146.232 87.7317 147.033 87.7317 148.212C87.7317 149.391 86.9217 150.192 85.8417 150.192ZM89.6563 150.561H90.1063V148.401H93.2923V150.561H93.7423V145.863H93.2923V148.005H90.1063V145.863H89.6563V150.561ZM99.6996 148.194C99.6996 146.799 98.7456 145.827 97.4586 145.827C96.1716 145.827 95.2086 146.817 95.2086 148.212C95.2086 149.607 96.2076 150.597 97.6296 150.597C98.3406 150.597 98.9886 150.336 99.4026 149.832L99.1416 149.535C98.7816 149.976 98.2326 150.192 97.6386 150.192C96.5136 150.192 95.6946 149.436 95.6496 148.32H99.6906C99.6906 148.275 99.6996 148.23 99.6996 148.194ZM97.4586 146.223C98.4576 146.223 99.1956 146.952 99.2586 147.969H95.6586C95.7306 146.943 96.4596 146.223 97.4586 146.223ZM101.17 150.561H101.62V148.401H104.806V150.561H105.256V145.863H104.806V148.005H101.62V145.863H101.17V150.561ZM107.199 150.561H107.595L110.943 146.556V150.561H111.393V145.863H110.997L107.649 149.868V145.863H107.199V150.561ZM114.891 145.863C113.721 145.863 112.956 146.367 112.956 147.429C112.956 148.221 113.388 148.707 114.144 148.878L112.929 150.561H113.424L114.585 148.932C114.657 148.941 114.738 148.941 114.819 148.941H116.385V150.561H116.799V145.863H114.891ZM113.406 147.447C113.406 146.61 113.955 146.259 114.918 146.259H116.385V148.599H114.864C113.901 148.599 113.406 148.221 113.406 147.447Z" fill="#76BD1D"/>
<path fill-rule="evenodd" clip-rule="evenodd" d="M90.6155 172.725C140.661 172.725 181.231 134.106 181.231 86.4674C181.231 38.8285 140.661 0.209473 90.6155 0.209473C40.57 0.209473 0 38.8285 0 86.4674C0 134.106 40.57 172.725 90.6155 172.725ZM90.6161 161.814C134.331 161.814 169.768 128.08 169.768 86.4678C169.768 44.8554 134.331 11.122 90.6161 11.122C46.9016 11.122 11.464 44.8554 11.464 86.4678C11.464 128.08 46.9016 161.814 90.6161 161.814Z" fill="#24346C"/>
<path fill-rule="evenodd" clip-rule="evenodd" d="M87.8064 11.1686C88.7391 11.1376 89.6759 11.122 90.6165 11.122C134.331 11.122 169.769 44.8554 169.769 86.4678C169.769 113.233 155.108 136.738 133.014 150.104L139.678 159.001C164.679 143.645 181.231 116.896 181.231 86.4674C181.231 38.8285 140.661 0.209473 90.6157 0.209473C89.6758 0.209473 88.7393 0.223092 87.8064 0.250136V11.1686Z" fill="#76BD1D"/>
</svg>
