<svg width="190" height="181" viewBox="0 0 190 181" fill="none" xmlns="http://www.w3.org/2000/svg">
<g filter="url(#filter0_d_608_148)">
<path d="M91.0304 103.12C91.0304 101.662 90.0224 100.798 88.2764 100.744V98.7995H87.8354V100.744C86.0984 100.798 85.0814 101.662 85.0814 103.12C85.0814 104.596 86.0894 105.469 87.8354 105.523V107.224H88.2764V105.523C90.0224 105.46 91.0304 104.596 91.0304 103.12ZM85.5314 103.12C85.5314 101.923 86.3414 101.212 87.8354 101.149V105.118C86.3504 105.055 85.5314 104.335 85.5314 103.12ZM88.2764 105.118V101.149C89.7614 101.212 90.5894 101.914 90.5894 103.12C90.5894 104.344 89.7614 105.055 88.2764 105.118ZM94.024 100.744C93.295 100.744 92.611 100.996 92.143 101.41L92.368 101.734C92.755 101.383 93.34 101.14 93.988 101.14C94.906 101.14 95.383 101.608 95.383 102.481V102.859H93.772C92.467 102.859 92.017 103.462 92.017 104.173C92.017 104.974 92.656 105.514 93.709 105.514C94.528 105.514 95.104 105.181 95.401 104.641V105.478H95.833V102.499C95.833 101.338 95.185 100.744 94.024 100.744ZM93.772 105.145C92.944 105.145 92.467 104.767 92.467 104.155C92.467 103.615 92.809 103.21 93.781 103.21H95.383V104.092C95.113 104.767 94.564 105.145 93.772 105.145ZM101.126 105.478H101.666L99.6143 103.057L101.522 100.78H101.027L99.2543 102.913H98.1113V100.78H97.6613V105.478H98.1113V103.3H99.2543L101.126 105.478ZM105.803 100.78H101.681V101.185H103.517V105.478H103.967V101.185H105.803V100.78Z" fill="#76BD1D"/>
<path d="M52.4617 86.6561L55.0717 83.8481V81.6161H45.9637V84.3701H50.9317L48.6817 86.8001V89.0501H50.1757C51.5437 89.0501 52.1017 89.5181 52.1017 90.2741C52.1017 91.1201 51.3097 91.5881 50.1037 91.5881C48.9157 91.5881 47.6197 91.2281 46.6117 90.5441L45.3157 93.2261C46.6117 94.0361 48.4657 94.4681 50.2117 94.4681C54.0097 94.4681 55.7017 92.4161 55.7017 90.2741C55.7017 88.4741 54.5857 87.1061 52.4617 86.6561ZM62.4074 94.4681C65.6114 94.4681 67.9514 92.0741 67.9514 87.9161C67.9514 83.7581 65.6114 81.3641 62.4074 81.3641C59.1854 81.3641 56.8454 83.7581 56.8454 87.9161C56.8454 92.0741 59.1854 94.4681 62.4074 94.4681ZM62.4074 91.5521C61.2554 91.5521 60.4274 90.5621 60.4274 87.9161C60.4274 85.2701 61.2554 84.2801 62.4074 84.2801C63.5414 84.2801 64.3694 85.2701 64.3694 87.9161C64.3694 90.5621 63.5414 91.5521 62.4074 91.5521ZM86.2859 88.9781H84.4139V86.8361H81.0479V88.9781H78.4919L83.6219 81.6161H79.9319L74.2799 89.4821V91.8041H80.9399V94.2161H84.4139V91.8041H86.2859V88.9781ZM92.5714 94.4681C95.7754 94.4681 98.1154 92.0741 98.1154 87.9161C98.1154 83.7581 95.7754 81.3641 92.5714 81.3641C89.3494 81.3641 87.0094 83.7581 87.0094 87.9161C87.0094 92.0741 89.3494 94.4681 92.5714 94.4681ZM92.5714 91.5521C91.4194 91.5521 90.5914 90.5621 90.5914 87.9161C90.5914 85.2701 91.4194 84.2801 92.5714 84.2801C93.7054 84.2801 94.5334 85.2701 94.5334 87.9161C94.5334 90.5621 93.7054 91.5521 92.5714 91.5521ZM104.048 86.2061H103.202L103.364 84.3701H108.44V81.6161H100.412L99.7817 88.9781H103.202C105.128 88.9781 105.65 89.4821 105.65 90.2561C105.65 91.1021 104.84 91.5881 103.634 91.5881C102.428 91.5881 101.168 91.2281 100.142 90.5441L98.8637 93.2261C100.142 94.0361 101.996 94.4681 103.742 94.4681C107.54 94.4681 109.232 92.4161 109.232 90.1661C109.232 87.9341 107.774 86.2061 104.048 86.2061ZM115 81.6161V84.3701H117.34V94.2161H120.904V81.6161H115ZM127.515 86.2061H126.669L126.831 84.3701H131.907V81.6161H123.879L123.249 88.9781H126.669C128.595 88.9781 129.117 89.4821 129.117 90.2561C129.117 91.1021 128.307 91.5881 127.101 91.5881C125.895 91.5881 124.635 91.2281 123.609 90.5441L122.331 93.2261C123.609 94.0361 125.463 94.4681 127.209 94.4681C131.007 94.4681 132.699 92.4161 132.699 90.1661C132.699 87.9341 131.241 86.2061 127.515 86.2061ZM138.36 86.2061H137.514L137.676 84.3701H142.752V81.6161H134.724L134.094 88.9781H137.514C139.44 88.9781 139.962 89.4821 139.962 90.2561C139.962 91.1021 139.152 91.5881 137.946 91.5881C136.74 91.5881 135.48 91.2281 134.454 90.5441L133.176 93.2261C134.454 94.0361 136.308 94.4681 138.054 94.4681C141.852 94.4681 143.544 92.4161 143.544 90.1661C143.544 87.9341 142.086 86.2061 138.36 86.2061Z" fill="#76BD1D"/>
<path d="M46.9499 48.5038V62.5038H50.8499V51.6438H56.1699V62.5038H60.0899V48.5038H46.9499ZM69.9628 62.7838C74.4428 62.7838 77.7428 59.7038 77.7428 55.5038C77.7428 51.3038 74.4428 48.2238 69.9628 48.2238C65.4828 48.2238 62.1828 51.3038 62.1828 55.5038C62.1828 59.7038 65.4828 62.7838 69.9628 62.7838ZM69.9628 59.5038C67.8428 59.5038 66.1828 57.9238 66.1828 55.5038C66.1828 53.0838 67.8428 51.5038 69.9628 51.5038C72.0828 51.5038 73.7428 53.0838 73.7428 55.5038C73.7428 57.9238 72.0828 59.5038 69.9628 59.5038ZM88.7001 62.5038H93.1601L88.7401 55.2638L93.1201 48.5038H88.9601L85.6201 53.9438H83.7201V48.5038H79.7801V62.5038H83.7201V57.1438H85.5201L88.7001 62.5038ZM104.858 62.5038H108.978L102.778 48.5038H98.8784L92.6984 62.5038H96.7384L97.8384 59.7838H103.758L104.858 62.5038ZM98.9984 56.8638L100.798 52.3838L102.598 56.8638H98.9984ZM119.243 55.2238C120.423 54.6438 121.163 53.5838 121.163 52.2638C121.163 49.6638 118.163 48.1838 114.763 48.1838C113.123 48.1838 111.383 48.5238 109.843 49.2638L111.003 52.2638C112.203 51.6238 113.583 51.3038 114.723 51.3038C116.103 51.3038 117.163 51.7838 117.163 52.7238C117.163 53.4438 116.563 53.9038 115.483 53.9038H112.223V56.8038H115.803C116.923 56.8038 117.723 57.1638 117.723 58.0238C117.723 59.1038 116.403 59.6638 114.723 59.6638C113.443 59.6638 111.943 59.3438 110.643 58.6838L109.463 61.4438C111.283 62.3638 113.303 62.8038 115.163 62.8038C118.723 62.8038 121.723 61.2438 121.723 58.5638C121.723 57.0238 120.783 55.8038 119.243 55.2238ZM131.004 52.9638H127.764V48.5038H123.864V62.5038H130.484C134.124 62.5038 136.384 60.8038 136.384 57.5238C136.384 54.4638 134.404 52.9638 131.004 52.9638ZM137.924 62.5038H141.824V48.5038H137.924V62.5038ZM130.224 59.6638H127.764V55.7838H130.224C131.564 55.7838 132.404 56.2838 132.404 57.6038C132.404 58.9238 131.544 59.6638 130.224 59.6638Z" fill="#304078"/>
<path d="M76.126 121.382H73.084V118.412H70.312V121.382H67.252V124.01H70.312V126.98H73.084V124.01H76.126V121.382ZM86.8608 122.354C87.7068 121.76 88.2108 120.896 88.2108 119.816C88.2108 117.584 86.1588 116.144 83.1888 116.144C80.2188 116.144 78.1668 117.584 78.1668 119.816C78.1668 120.896 78.6708 121.76 79.5168 122.354C78.3828 123.002 77.7168 123.992 77.7168 125.288C77.7168 127.7 79.9308 129.248 83.1888 129.248C86.4468 129.248 88.6608 127.7 88.6608 125.288C88.6608 123.992 87.9948 123.002 86.8608 122.354ZM83.1888 118.646C84.0708 118.646 84.7008 119.132 84.7008 119.978C84.7008 120.806 84.0888 121.292 83.1888 121.292C82.2888 121.292 81.6948 120.806 81.6948 119.978C81.6948 119.132 82.3068 118.646 83.1888 118.646ZM83.1888 126.746C82.0548 126.746 81.2988 126.152 81.2988 125.18C81.2988 124.208 82.0548 123.614 83.1888 123.614C84.3228 123.614 85.0788 124.208 85.0788 125.18C85.0788 126.152 84.3228 126.746 83.1888 126.746ZM91.9496 125.108C90.7616 125.108 89.8976 125.9 89.8976 127.124C89.8976 127.97 90.3116 128.582 90.9596 128.888L90.1136 131.822H92.2556L93.3896 129.194C93.9116 128.024 93.9836 127.628 93.9836 127.124C93.9836 125.9 93.1196 125.108 91.9496 125.108ZM107.071 123.758H105.199V121.616H101.833V123.758H99.2771L104.407 116.396H100.717L95.0651 124.262V126.584H101.725V128.996H105.199V126.584H107.071V123.758ZM110.256 123.218C112.128 123.218 113.496 121.922 113.496 119.726C113.496 117.548 112.128 116.234 110.256 116.234C108.402 116.234 107.034 117.548 107.034 119.726C107.034 121.922 108.402 123.218 110.256 123.218ZM109.104 128.996H111.696L120.3 116.396H117.708L109.104 128.996ZM110.256 121.508C109.68 121.508 109.194 121.004 109.194 119.726C109.194 118.448 109.68 117.944 110.256 117.944C110.868 117.944 111.318 118.448 111.318 119.726C111.318 121.004 110.868 121.508 110.256 121.508ZM119.148 129.158C121.02 129.158 122.388 127.862 122.388 125.666C122.388 123.488 121.02 122.174 119.148 122.174C117.276 122.174 115.926 123.488 115.926 125.666C115.926 127.862 117.276 129.158 119.148 129.158ZM119.148 127.448C118.554 127.448 118.086 126.944 118.086 125.666C118.086 124.388 118.554 123.884 119.148 123.884C119.742 123.884 120.21 124.388 120.21 125.666C120.21 126.944 119.742 127.448 119.148 127.448Z" fill="#76BD1D"/>
<path d="M75.3961 136.642V141.34H75.8461V137.047H79.0501V141.34H79.5001V136.642H75.3961ZM83.8099 136.606C82.9639 136.606 82.2529 137.029 81.8839 137.749V136.642H81.4519V143.086H81.9019V140.269C82.2799 140.971 82.9819 141.376 83.8099 141.376C85.1329 141.376 86.1319 140.404 86.1319 138.991C86.1319 137.587 85.1329 136.606 83.8099 136.606ZM83.7829 140.971C82.7029 140.971 81.8929 140.17 81.8929 138.991C81.8929 137.812 82.7029 137.011 83.7829 137.011C84.8629 137.011 85.6819 137.812 85.6819 138.991C85.6819 140.17 84.8629 140.971 83.7829 140.971ZM89.4673 141.376C90.8173 141.376 91.8163 140.386 91.8163 138.991C91.8163 137.596 90.8173 136.606 89.4673 136.606C88.1173 136.606 87.1183 137.596 87.1183 138.991C87.1183 140.386 88.1173 141.376 89.4673 141.376ZM89.4673 140.971C88.3873 140.971 87.5773 140.17 87.5773 138.991C87.5773 137.812 88.3873 137.011 89.4673 137.011C90.5473 137.011 91.3573 137.812 91.3573 138.991C91.3573 140.17 90.5473 140.971 89.4673 140.971ZM97.2958 140.944V136.642H96.8458V140.944H93.7318V136.642H93.2818V141.34H97.6468V142.564H98.0788V140.944H97.2958ZM103.404 138.973C103.404 137.578 102.45 136.606 101.163 136.606C99.8762 136.606 98.9132 137.596 98.9132 138.991C98.9132 140.386 99.9122 141.376 101.334 141.376C102.045 141.376 102.693 141.115 103.107 140.611L102.846 140.314C102.486 140.755 101.937 140.971 101.343 140.971C100.218 140.971 99.3992 140.215 99.3542 139.099H103.395C103.395 139.054 103.404 139.009 103.404 138.973ZM101.163 137.002C102.162 137.002 102.9 137.731 102.963 138.748H99.3632C99.4352 137.722 100.164 137.002 101.163 137.002ZM104.875 141.34H105.325V139.18H108.511V141.34H108.961V136.642H108.511V138.784H105.325V136.642H104.875V141.34ZM114.045 136.642H109.923V137.047H111.759V141.34H112.209V137.047H114.045V136.642ZM69.5161 149.376C70.8661 149.376 71.8651 148.386 71.8651 146.991C71.8651 145.596 70.8661 144.606 69.5161 144.606C68.1661 144.606 67.1671 145.596 67.1671 146.991C67.1671 148.386 68.1661 149.376 69.5161 149.376ZM69.5161 148.971C68.4361 148.971 67.6261 148.17 67.6261 146.991C67.6261 145.812 68.4361 145.011 69.5161 145.011C70.5961 145.011 71.4061 145.812 71.4061 146.991C71.4061 148.17 70.5961 148.971 69.5161 148.971ZM76.2959 144.642H72.1739V145.047H74.0099V149.34H74.4599V145.047H76.2959V144.642ZM80.7244 149.34H81.2644L79.2124 146.919L81.1204 144.642H80.6254L78.8524 146.775H77.7094V144.642H77.2594V149.34H77.7094V147.162H78.8524L80.7244 149.34ZM82.7526 144.642L82.6716 146.262C82.5996 147.621 82.5096 148.98 81.7086 148.98C81.6456 148.98 81.5646 148.962 81.4926 148.944L81.4476 149.331C81.5916 149.367 81.7176 149.394 81.8346 149.394C82.8156 149.394 82.9956 147.945 83.0856 146.298L83.1486 145.047H85.5966V149.34H86.0466V144.642H82.7526ZM89.8628 149.376C91.2128 149.376 92.2118 148.386 92.2118 146.991C92.2118 145.596 91.2128 144.606 89.8628 144.606C88.5128 144.606 87.5138 145.596 87.5138 146.991C87.5138 148.386 88.5128 149.376 89.8628 149.376ZM89.8628 148.971C88.7828 148.971 87.9728 148.17 87.9728 146.991C87.9728 145.812 88.7828 145.011 89.8628 145.011C90.9428 145.011 91.7528 145.812 91.7528 146.991C91.7528 148.17 90.9428 148.971 89.8628 148.971ZM93.6773 149.34H94.1273V147.18H97.3133V149.34H97.7633V144.642H97.3133V146.784H94.1273V144.642H93.6773V149.34ZM103.721 146.973C103.721 145.578 102.767 144.606 101.48 144.606C100.193 144.606 99.2296 145.596 99.2296 146.991C99.2296 148.386 100.229 149.376 101.651 149.376C102.362 149.376 103.01 149.115 103.424 148.611L103.163 148.314C102.803 148.755 102.254 148.971 101.66 148.971C100.535 148.971 99.7156 148.215 99.6706 147.099H103.712C103.712 147.054 103.721 147.009 103.721 146.973ZM101.48 145.002C102.479 145.002 103.217 145.731 103.28 146.748H99.6796C99.7516 145.722 100.481 145.002 101.48 145.002ZM105.191 149.34H105.641V147.18H108.827V149.34H109.277V144.642H108.827V146.784H105.641V144.642H105.191V149.34ZM111.22 149.34H111.616L114.964 145.335V149.34H115.414V144.642H115.018L111.67 148.647V144.642H111.22V149.34ZM118.912 144.642C117.742 144.642 116.977 145.146 116.977 146.208C116.977 147 117.409 147.486 118.165 147.657L116.95 149.34H117.445L118.606 147.711C118.678 147.72 118.759 147.72 118.84 147.72H120.406V149.34H120.82V144.642H118.912ZM117.427 146.226C117.427 145.389 117.976 145.038 118.939 145.038H120.406V147.378H118.885C117.922 147.378 117.427 147 117.427 146.226Z" fill="#76BD1D"/>
<path fill-rule="evenodd" clip-rule="evenodd" d="M94.6155 172.725C144.661 172.725 185.231 134.106 185.231 86.4674C185.231 38.8285 144.661 0.209473 94.6155 0.209473C44.57 0.209473 4 38.8285 4 86.4674C4 134.106 44.57 172.725 94.6155 172.725ZM94.6154 161.812C138.33 161.812 173.768 128.079 173.768 86.4664C173.768 44.8541 138.33 11.1206 94.6154 11.1206C50.9009 11.1206 15.4633 44.8541 15.4633 86.4664C15.4633 128.079 50.9009 161.812 94.6154 161.812Z" fill="#24346C"/>
<path fill-rule="evenodd" clip-rule="evenodd" d="M97.3447 11.1645C112.49 11.6531 126.556 16.1919 138.385 23.6791L144.172 14.2391C130.642 5.80987 114.599 0.732699 97.3447 0.246826V11.1645Z" fill="#76BD1D"/>
</g>
<defs>
<filter id="filter0_d_608_148" x="0" y="0.209473" width="189.231" height="180.516" filterUnits="userSpaceOnUse" color-interpolation-filters="sRGB">
<feFlood flood-opacity="0" result="BackgroundImageFix"/>
<feColorMatrix in="SourceAlpha" type="matrix" values="0 0 0 0 0 0 0 0 0 0 0 0 0 0 0 0 0 0 127 0" result="hardAlpha"/>
<feOffset dy="4"/>
<feGaussianBlur stdDeviation="2"/>
<feComposite in2="hardAlpha" operator="out"/>
<feColorMatrix type="matrix" values="0 0 0 0 0 0 0 0 0 0 0 0 0 0 0 0 0 0 0.25 0"/>
<feBlend mode="normal" in2="BackgroundImageFix" result="effect1_dropShadow_608_148"/>
<feBlend mode="normal" in="SourceGraphic" in2="effect1_dropShadow_608_148" result="shape"/>
</filter>
</defs>
</svg>
