<svg width="182" height="173" viewBox="0 0 182 173" fill="none" xmlns="http://www.w3.org/2000/svg">
<path d="M86.9055 103.905C86.9055 102.447 85.8975 101.583 84.1515 101.529V99.5849H83.7105V101.529C81.9735 101.583 80.9565 102.447 80.9565 103.905C80.9565 105.381 81.9645 106.254 83.7105 106.308V108.009H84.1515V106.308C85.8975 106.245 86.9055 105.381 86.9055 103.905ZM81.4065 103.905C81.4065 102.708 82.2165 101.997 83.7105 101.934V105.903C82.2255 105.84 81.4065 105.12 81.4065 103.905ZM84.1515 105.903V101.934C85.6365 101.997 86.4645 102.699 86.4645 103.905C86.4645 105.129 85.6365 105.84 84.1515 105.903ZM89.8991 101.529C89.1701 101.529 88.4861 101.781 88.0181 102.195L88.2431 102.519C88.6301 102.168 89.2151 101.925 89.8631 101.925C90.7811 101.925 91.2581 102.393 91.2581 103.266V103.644H89.6471C88.3421 103.644 87.8921 104.247 87.8921 104.958C87.8921 105.759 88.5311 106.299 89.5841 106.299C90.4031 106.299 90.9791 105.966 91.2761 105.426V106.263H91.7081V103.284C91.7081 102.123 91.0601 101.529 89.8991 101.529ZM89.6471 105.93C88.8191 105.93 88.3421 105.552 88.3421 104.94C88.3421 104.4 88.6841 103.995 89.6561 103.995H91.2581V104.877C90.9881 105.552 90.4391 105.93 89.6471 105.93ZM97.0015 106.263H97.5415L95.4895 103.842L97.3975 101.565H96.9025L95.1295 103.698H93.9865V101.565H93.5365V106.263H93.9865V104.085H95.1295L97.0015 106.263ZM101.678 101.565H97.5564V101.97H99.3924V106.263H99.8424V101.97H101.678V101.565Z" fill="#76BD1D"/>
<path d="M58.5457 89.0249H56.6737V86.8829H53.3077V89.0249H50.7517L55.8817 81.6629H52.1917L46.5397 89.5289V91.8509H53.1997V94.2629H56.6737V91.8509H58.5457V89.0249ZM70.9515 86.2349C69.7635 86.2349 68.8095 86.5589 68.1075 87.1709C68.2875 85.2449 69.4935 84.2369 71.2935 84.2369C72.1035 84.2369 72.8955 84.3809 73.6155 84.8849L74.9115 82.3289C73.9935 81.7349 72.6255 81.4109 71.2035 81.4109C67.2255 81.4109 64.5075 83.9129 64.5075 88.3049C64.5075 92.3909 66.8115 94.5149 70.3395 94.5149C73.0935 94.5149 75.2895 92.8409 75.2895 90.2129C75.2895 87.8009 73.3275 86.2349 70.9515 86.2349ZM70.1235 91.9769C69.0435 91.9769 68.3595 91.3289 68.3595 90.3929C68.3595 89.4389 69.0795 88.7909 70.1055 88.7909C71.1315 88.7909 71.8335 89.4029 71.8335 90.3749C71.8335 91.3649 71.1315 91.9769 70.1235 91.9769ZM75.693 81.6629V84.4169H78.033V94.2629H81.597V81.6629H75.693ZM88.2079 86.2529H87.3619L87.5239 84.4169H92.5999V81.6629H84.5719L83.9419 89.0249H87.3619C89.2879 89.0249 89.8099 89.5289 89.8099 90.3029C89.8099 91.1489 88.9999 91.6349 87.7939 91.6349C86.5879 91.6349 85.3279 91.2749 84.3019 90.5909L83.0239 93.2729C84.3019 94.0829 86.1559 94.5149 87.9019 94.5149C91.6999 94.5149 93.3919 92.4629 93.3919 90.2129C93.3919 87.9809 91.9339 86.2529 88.2079 86.2529ZM104.542 91.4369L106.918 89.2409C108.718 87.5849 109.06 86.4689 109.06 85.2449C109.06 82.9049 107.062 81.4109 104.164 81.4109C101.68 81.4109 99.8978 82.4549 98.9438 84.0389L101.59 85.5149C102.094 84.7049 102.922 84.2909 103.84 84.2909C104.92 84.2909 105.46 84.7769 105.46 85.5869C105.46 86.1089 105.316 86.6849 104.308 87.6209L99.5918 92.0309V94.2629H109.402V91.4369H104.542ZM122.231 89.0249H120.359V86.8829H116.993V89.0249H114.437L119.567 81.6629H115.877L110.225 89.5289V91.8509H116.885V94.2629H120.359V91.8509H122.231V89.0249ZM134.835 89.0249H132.963V86.8829H129.597V89.0249H127.041L132.171 81.6629H128.481L122.829 89.5289V91.8509H129.489V94.2629H132.963V91.8509H134.835V89.0249Z" fill="#76BD1D"/>
<path d="M43.7627 39.7259V48.8259H46.2977V41.7669H49.7557V48.8259H52.3037V39.7259H43.7627ZM58.409 39.7259H54.249V48.8259H56.823V46.4469H58.409C60.892 46.4469 62.452 45.1599 62.452 43.0929C62.452 41.0129 60.892 39.7259 58.409 39.7259ZM58.253 44.4189H56.823V41.7539H58.253C59.319 41.7539 59.852 42.2479 59.852 43.0929C59.852 43.9249 59.319 44.4189 58.253 44.4189ZM68.2171 49.0079C71.1291 49.0079 73.2741 47.0059 73.2741 44.2759C73.2741 41.5459 71.1291 39.5439 68.2171 39.5439C65.3051 39.5439 63.1601 41.5459 63.1601 44.2759C63.1601 47.0059 65.3051 49.0079 68.2171 49.0079ZM68.2171 46.8759C66.8391 46.8759 65.7601 45.8489 65.7601 44.2759C65.7601 42.7029 66.8391 41.6759 68.2171 41.6759C69.5951 41.6759 70.6741 42.7029 70.6741 44.2759C70.6741 45.8489 69.5951 46.8759 68.2171 46.8759ZM79.0834 49.0079C80.7604 49.0079 82.1124 48.3969 82.9964 47.2919L81.3584 45.8099C80.7864 46.4989 80.0844 46.8759 79.2134 46.8759C77.7184 46.8759 76.6784 45.8359 76.6784 44.2759C76.6784 42.7159 77.7184 41.6759 79.2134 41.6759C80.0844 41.6759 80.7864 42.0529 81.3584 42.7419L82.9964 41.2599C82.1124 40.1549 80.7604 39.5439 79.0834 39.5439C76.1974 39.5439 74.0784 41.5069 74.0784 44.2759C74.0784 47.0449 76.1974 49.0079 79.0834 49.0079ZM94.7412 48.8259L94.7152 39.7259H92.5962L89.4762 44.9779L86.2782 39.7259H84.1592V48.8259H86.5252V44.1069L88.8652 47.9289H90.0092L92.3492 44.0029L92.3622 48.8259H94.7412ZM101.149 49.0079C104.061 49.0079 106.206 47.0059 106.206 44.2759C106.206 41.5459 104.061 39.5439 101.149 39.5439C98.2368 39.5439 96.0918 41.5459 96.0918 44.2759C96.0918 47.0059 98.2368 49.0079 101.149 49.0079ZM101.149 46.8759C99.7708 46.8759 98.6918 45.8489 98.6918 44.2759C98.6918 42.7029 99.7708 41.6759 101.149 41.6759C102.527 41.6759 103.606 42.7029 103.606 44.2759C103.606 45.8489 102.527 46.8759 101.149 46.8759ZM114.787 39.7259H106.675V41.7669H109.47V48.8259H112.005V41.7669H114.787V39.7259ZM120.134 39.7259H115.974V48.8259H118.548V46.4469H120.134C122.617 46.4469 124.177 45.1599 124.177 43.0929C124.177 41.0129 122.617 39.7259 120.134 39.7259ZM119.978 44.4189H118.548V41.7539H119.978C121.044 41.7539 121.577 42.2479 121.577 43.0929C121.577 43.9249 121.044 44.4189 119.978 44.4189ZM129.984 42.6249H127.878V39.7259H125.343V48.8259H129.646C132.012 48.8259 133.481 47.7209 133.481 45.5889C133.481 43.5999 132.194 42.6249 129.984 42.6249ZM134.482 48.8259H137.017V39.7259H134.482V48.8259ZM129.477 46.9799H127.878V44.4579H129.477C130.348 44.4579 130.894 44.7829 130.894 45.6409C130.894 46.4989 130.335 46.9799 129.477 46.9799ZM64.9217 52.7259H60.7617V61.8259H63.3357V59.4469H64.9217C67.4047 59.4469 68.9647 58.1599 68.9647 56.0929C68.9647 54.0129 67.4047 52.7259 64.9217 52.7259ZM64.7657 57.4189H63.3357V54.7539H64.7657C65.8317 54.7539 66.3647 55.2479 66.3647 56.0929C66.3647 56.9249 65.8317 57.4189 64.7657 57.4189ZM74.7298 62.0079C77.6418 62.0079 79.7868 60.0059 79.7868 57.2759C79.7868 54.5459 77.6418 52.5439 74.7298 52.5439C71.8178 52.5439 69.6728 54.5459 69.6728 57.2759C69.6728 60.0059 71.8178 62.0079 74.7298 62.0079ZM74.7298 59.8759C73.3518 59.8759 72.2728 58.8489 72.2728 57.2759C72.2728 55.7029 73.3518 54.6759 74.7298 54.6759C76.1078 54.6759 77.1868 55.7029 77.1868 57.2759C77.1868 58.8489 76.1078 59.8759 74.7298 59.8759ZM82.0662 52.7259L81.9362 56.3529C81.8582 58.4069 81.6632 59.7589 80.6102 59.7589C80.4932 59.7589 80.3762 59.7459 80.2592 59.7199L80.1162 61.8259C80.5452 61.9299 80.9352 61.9819 81.2862 61.9819C83.6002 61.9819 84.0812 59.7979 84.1982 56.2489L84.2502 54.7669H86.8632V61.8259H89.3982V52.7259H82.0662ZM91.3447 61.8259H93.7757L97.5197 56.4959V61.8259H100.055V52.7259H97.6367L93.8797 58.0689V52.7259H91.3447V61.8259ZM107.755 61.8259H110.654L107.781 57.1199L110.628 52.7259H107.924L105.753 56.2619H104.518V52.7259H101.957V61.8259H104.518V58.3419H105.688L107.755 61.8259ZM118.258 61.8259H120.936L116.906 52.7259H114.371L110.354 61.8259H112.98L113.695 60.0579H117.543L118.258 61.8259ZM114.449 58.1599L115.619 55.2479L116.789 58.1599H114.449Z" fill="#304078"/>
<path d="M68.0292 121.429H64.9872V118.459H62.2152V121.429H59.1552V124.057H62.2152V127.027H64.9872V124.057H68.0292V121.429ZM74.2535 126.217L76.6295 124.021C78.4295 122.365 78.7716 121.249 78.7716 120.025C78.7716 117.685 76.7736 116.191 73.8755 116.191C71.3916 116.191 69.6095 117.235 68.6555 118.819L71.3015 120.295C71.8056 119.485 72.6335 119.071 73.5515 119.071C74.6315 119.071 75.1715 119.557 75.1715 120.367C75.1715 120.889 75.0276 121.465 74.0196 122.401L69.3035 126.811V129.043H79.1136V126.217H74.2535ZM85.0289 126.217L87.4049 124.021C89.2049 122.365 89.5469 121.249 89.5469 120.025C89.5469 117.685 87.5489 116.191 84.6509 116.191C82.1669 116.191 80.3849 117.235 79.4309 118.819L82.0769 120.295C82.5809 119.485 83.4089 119.071 84.3269 119.071C85.4069 119.071 85.9469 119.557 85.9469 120.367C85.9469 120.889 85.8029 121.465 84.7949 122.401L80.0789 126.811V129.043H89.8889V126.217H85.0289ZM93.0461 125.155C91.8581 125.155 90.9941 125.947 90.9941 127.171C90.9941 128.017 91.4081 128.629 92.0561 128.935L91.2101 131.869H93.3521L94.4861 129.241C95.0081 128.071 95.0801 127.675 95.0801 127.171C95.0801 125.947 94.2161 125.155 93.0461 125.155ZM108.168 123.805H106.296V121.663H102.93V123.805H100.374L105.504 116.443H101.814L96.1617 124.309V126.631H102.822V129.043H106.296V126.631H108.168V123.805ZM111.352 123.265C113.224 123.265 114.592 121.969 114.592 119.773C114.592 117.595 113.224 116.281 111.352 116.281C109.498 116.281 108.13 117.595 108.13 119.773C108.13 121.969 109.498 123.265 111.352 123.265ZM110.2 129.043H112.792L121.396 116.443H118.804L110.2 129.043ZM111.352 121.555C110.776 121.555 110.29 121.051 110.29 119.773C110.29 118.495 110.776 117.991 111.352 117.991C111.964 117.991 112.414 118.495 112.414 119.773C112.414 121.051 111.964 121.555 111.352 121.555ZM120.244 129.205C122.116 129.205 123.484 127.909 123.484 125.713C123.484 123.535 122.116 122.221 120.244 122.221C118.372 122.221 117.022 123.535 117.022 125.713C117.022 127.909 118.372 129.205 120.244 129.205ZM120.244 127.495C119.65 127.495 119.182 126.991 119.182 125.713C119.182 124.435 119.65 123.931 120.244 123.931C120.838 123.931 121.306 124.435 121.306 125.713C121.306 126.991 120.838 127.495 120.244 127.495Z" fill="#76BD1D"/>
<path d="M71.6662 136.689V141.387H72.1162V137.094H75.3202V141.387H75.7702V136.689H71.6662ZM80.0801 136.653C79.2341 136.653 78.5231 137.076 78.1541 137.796V136.689H77.7221V143.133H78.1721V140.316C78.5501 141.018 79.2521 141.423 80.0801 141.423C81.4031 141.423 82.4021 140.451 82.4021 139.038C82.4021 137.634 81.4031 136.653 80.0801 136.653ZM80.0531 141.018C78.9731 141.018 78.1631 140.217 78.1631 139.038C78.1631 137.859 78.9731 137.058 80.0531 137.058C81.1331 137.058 81.9521 137.859 81.9521 139.038C81.9521 140.217 81.1331 141.018 80.0531 141.018ZM85.7374 141.423C87.0874 141.423 88.0864 140.433 88.0864 139.038C88.0864 137.643 87.0874 136.653 85.7374 136.653C84.3874 136.653 83.3884 137.643 83.3884 139.038C83.3884 140.433 84.3874 141.423 85.7374 141.423ZM85.7374 141.018C84.6574 141.018 83.8474 140.217 83.8474 139.038C83.8474 137.859 84.6574 137.058 85.7374 137.058C86.8174 137.058 87.6274 137.859 87.6274 139.038C87.6274 140.217 86.8174 141.018 85.7374 141.018ZM93.5659 140.991V136.689H93.1159V140.991H90.0019V136.689H89.5519V141.387H93.9169V142.611H94.3489V140.991H93.5659ZM99.6743 139.02C99.6743 137.625 98.7203 136.653 97.4333 136.653C96.1463 136.653 95.1833 137.643 95.1833 139.038C95.1833 140.433 96.1823 141.423 97.6043 141.423C98.3153 141.423 98.9633 141.162 99.3773 140.658L99.1163 140.361C98.7563 140.802 98.2073 141.018 97.6133 141.018C96.4883 141.018 95.6693 140.262 95.6243 139.146H99.6653C99.6653 139.101 99.6743 139.056 99.6743 139.02ZM97.4333 137.049C98.4323 137.049 99.1703 137.778 99.2333 138.795H95.6333C95.7053 137.769 96.4343 137.049 97.4333 137.049ZM101.145 141.387H101.595V139.227H104.781V141.387H105.231V136.689H104.781V138.831H101.595V136.689H101.145V141.387ZM110.315 136.689H106.193V137.094H108.029V141.387H108.479V137.094H110.315V136.689ZM65.7862 149.423C67.1362 149.423 68.1352 148.433 68.1352 147.038C68.1352 145.643 67.1362 144.653 65.7862 144.653C64.4362 144.653 63.4372 145.643 63.4372 147.038C63.4372 148.433 64.4362 149.423 65.7862 149.423ZM65.7862 149.018C64.7062 149.018 63.8962 148.217 63.8962 147.038C63.8962 145.859 64.7062 145.058 65.7862 145.058C66.8662 145.058 67.6762 145.859 67.6762 147.038C67.6762 148.217 66.8662 149.018 65.7862 149.018ZM72.566 144.689H68.444V145.094H70.28V149.387H70.73V145.094H72.566V144.689ZM76.9945 149.387H77.5345L75.4825 146.966L77.3905 144.689H76.8955L75.1225 146.822H73.9795V144.689H73.5295V149.387H73.9795V147.209H75.1225L76.9945 149.387ZM79.0227 144.689L78.9417 146.309C78.8697 147.668 78.7797 149.027 77.9787 149.027C77.9157 149.027 77.8347 149.009 77.7627 148.991L77.7177 149.378C77.8617 149.414 77.9877 149.441 78.1047 149.441C79.0857 149.441 79.2657 147.992 79.3557 146.345L79.4187 145.094H81.8667V149.387H82.3167V144.689H79.0227ZM86.1329 149.423C87.4829 149.423 88.4819 148.433 88.4819 147.038C88.4819 145.643 87.4829 144.653 86.1329 144.653C84.7829 144.653 83.7839 145.643 83.7839 147.038C83.7839 148.433 84.7829 149.423 86.1329 149.423ZM86.1329 149.018C85.0529 149.018 84.2429 148.217 84.2429 147.038C84.2429 145.859 85.0529 145.058 86.1329 145.058C87.2129 145.058 88.0229 145.859 88.0229 147.038C88.0229 148.217 87.2129 149.018 86.1329 149.018ZM89.9474 149.387H90.3974V147.227H93.5834V149.387H94.0334V144.689H93.5834V146.831H90.3974V144.689H89.9474V149.387ZM99.9907 147.02C99.9907 145.625 99.0367 144.653 97.7497 144.653C96.4627 144.653 95.4997 145.643 95.4997 147.038C95.4997 148.433 96.4987 149.423 97.9207 149.423C98.6317 149.423 99.2797 149.162 99.6937 148.658L99.4327 148.361C99.0727 148.802 98.5237 149.018 97.9297 149.018C96.8047 149.018 95.9857 148.262 95.9407 147.146H99.9817C99.9817 147.101 99.9907 147.056 99.9907 147.02ZM97.7497 145.049C98.7487 145.049 99.4867 145.778 99.5497 146.795H95.9497C96.0217 145.769 96.7507 145.049 97.7497 145.049ZM101.461 149.387H101.911V147.227H105.097V149.387H105.547V144.689H105.097V146.831H101.911V144.689H101.461V149.387ZM107.49 149.387H107.886L111.234 145.382V149.387H111.684V144.689H111.288L107.94 148.694V144.689H107.49V149.387ZM115.182 144.689C114.012 144.689 113.247 145.193 113.247 146.255C113.247 147.047 113.679 147.533 114.435 147.704L113.22 149.387H113.715L114.876 147.758C114.948 147.767 115.029 147.767 115.11 147.767H116.676V149.387H117.09V144.689H115.182ZM113.697 146.273C113.697 145.436 114.246 145.085 115.209 145.085H116.676V147.425H115.155C114.192 147.425 113.697 147.047 113.697 146.273Z" fill="#76BD1D"/>
<path fill-rule="evenodd" clip-rule="evenodd" d="M90.6155 172.725C140.661 172.725 181.231 134.106 181.231 86.4674C181.231 38.8285 140.661 0.209473 90.6155 0.209473C40.57 0.209473 0 38.8285 0 86.4674C0 134.106 40.57 172.725 90.6155 172.725ZM90.6151 161.813C134.33 161.813 169.767 128.079 169.767 86.4669C169.767 44.8545 134.33 11.1211 90.6151 11.1211C46.9006 11.1211 11.463 44.8545 11.463 86.4669C11.463 128.079 46.9006 161.813 90.6151 161.813Z" fill="#24346C"/>
<path fill-rule="evenodd" clip-rule="evenodd" d="M92.354 11.1401C128.779 11.8872 159.144 36.0567 167.493 68.4585L178.655 65.9633C169.12 28.7373 134.208 0.975146 92.354 0.225342V11.1401Z" fill="#76BD1D"/>
</svg>
