<svg width="182" height="173" viewBox="0 0 182 173" fill="none" xmlns="http://www.w3.org/2000/svg">
<path d="M87.218 103.851C87.218 102.393 86.21 101.529 84.464 101.475V99.5315H84.023V101.475C82.286 101.529 81.269 102.393 81.269 103.851C81.269 105.327 82.277 106.2 84.023 106.254V107.955H84.464V106.254C86.21 106.191 87.218 105.327 87.218 103.851ZM81.719 103.851C81.719 102.654 82.529 101.943 84.023 101.88V105.849C82.538 105.786 81.719 105.066 81.719 103.851ZM84.464 105.849V101.88C85.949 101.943 86.777 102.645 86.777 103.851C86.777 105.075 85.949 105.786 84.464 105.849ZM90.2116 101.475C89.4826 101.475 88.7986 101.727 88.3306 102.141L88.5556 102.465C88.9426 102.114 89.5276 101.871 90.1756 101.871C91.0936 101.871 91.5706 102.339 91.5706 103.212V103.59H89.9596C88.6546 103.59 88.2046 104.193 88.2046 104.904C88.2046 105.705 88.8436 106.245 89.8966 106.245C90.7156 106.245 91.2916 105.912 91.5886 105.372V106.209H92.0206V103.23C92.0206 102.069 91.3726 101.475 90.2116 101.475ZM89.9596 105.876C89.1316 105.876 88.6546 105.498 88.6546 104.886C88.6546 104.346 88.9966 103.941 89.9686 103.941H91.5706V104.823C91.3006 105.498 90.7516 105.876 89.9596 105.876ZM97.314 106.209H97.854L95.802 103.788L97.71 101.511H97.215L95.442 103.644H94.299V101.511H93.849V106.209H94.299V104.031H95.442L97.314 106.209ZM101.991 101.511H97.8689V101.916H99.7049V106.209H100.155V101.916H101.991V101.511Z" fill="#76BD1D"/>
<path d="M58.6814 91.3835L61.0574 89.1875C62.8574 87.5315 63.1994 86.4155 63.1994 85.1915C63.1994 82.8515 61.2014 81.3575 58.3034 81.3575C55.8194 81.3575 54.0374 82.4015 53.0834 83.9855L55.7294 85.4615C56.2334 84.6515 57.0614 84.2375 57.9794 84.2375C59.0594 84.2375 59.5994 84.7235 59.5994 85.5335C59.5994 86.0555 59.4554 86.6315 58.4474 87.5675L53.7314 91.9775V94.2095H63.5414V91.3835H58.6814ZM70.1232 94.4615C73.3272 94.4615 75.6672 92.0675 75.6672 87.9095C75.6672 83.7515 73.3272 81.3575 70.1232 81.3575C66.9012 81.3575 64.5612 83.7515 64.5612 87.9095C64.5612 92.0675 66.9012 94.4615 70.1232 94.4615ZM70.1232 91.5455C68.9712 91.5455 68.1432 90.5555 68.1432 87.9095C68.1432 85.2635 68.9712 84.2735 70.1232 84.2735C71.2572 84.2735 72.0852 85.2635 72.0852 87.9095C72.0852 90.5555 71.2572 91.5455 70.1232 91.5455ZM81.6209 91.3835L83.9969 89.1875C85.7969 87.5315 86.1389 86.4155 86.1389 85.1915C86.1389 82.8515 84.1409 81.3575 81.2429 81.3575C78.7589 81.3575 76.9769 82.4015 76.0229 83.9855L78.6689 85.4615C79.1729 84.6515 80.0009 84.2375 80.9189 84.2375C81.9989 84.2375 82.5389 84.7235 82.5389 85.5335C82.5389 86.0555 82.3949 86.6315 81.3869 87.5675L76.6709 91.9775V94.2095H86.4809V91.3835H81.6209ZM92.5585 81.6095V86.3795H95.6005V84.4355H98.9125L94.6645 94.2095H98.5525L102.999 83.8415V81.6095H92.5585ZM109.008 91.3835L111.384 89.1875C113.184 87.5315 113.526 86.4155 113.526 85.1915C113.526 82.8515 111.528 81.3575 108.63 81.3575C106.146 81.3575 104.364 82.4015 103.41 83.9855L106.056 85.4615C106.56 84.6515 107.388 84.2375 108.306 84.2375C109.386 84.2375 109.926 84.7235 109.926 85.5335C109.926 86.0555 109.782 86.6315 108.774 87.5675L104.058 91.9775V94.2095H113.868V91.3835H109.008ZM126.697 88.9715H124.825V86.8295H121.459V88.9715H118.903L124.033 81.6095H120.343L114.691 89.4755V91.7975H121.351V94.2095H124.825V91.7975H126.697V88.9715Z" fill="#76BD1D"/>
<path d="M61.7133 62.5043H66.1733L61.7533 55.2643L66.1333 48.5043H61.9733L58.6333 53.9443H56.7333V48.5043H52.7933V62.5043H56.7333V57.1443H58.5333L61.7133 62.5043ZM69.6142 48.5043L69.4142 54.0843C69.2942 57.2443 68.9942 59.3243 67.3742 59.3243C67.1942 59.3243 67.0142 59.3043 66.8342 59.2643L66.6142 62.5043C67.2742 62.6643 67.8742 62.7443 68.4142 62.7443C71.9742 62.7443 72.7142 59.3843 72.8942 53.9243L72.9742 51.6443H76.9942V62.5043H80.8942V48.5043H69.6142ZM83.8889 62.5043H87.6289L93.3889 54.3043V62.5043H97.2889V48.5043H93.5689L87.7889 56.7243V48.5043H83.8889V62.5043ZM109.135 62.5043H113.595L109.175 55.2643L113.555 48.5043H109.395L106.055 53.9443H104.155V48.5043H100.215V62.5043H104.155V57.1443H105.955L109.135 62.5043ZM114.865 62.5043H118.605L124.365 54.3043V62.5043H128.265V48.5043H124.545L118.765 56.7243V48.5043H114.865V62.5043Z" fill="#304078"/>
<path d="M70.1397 122.595H67.0977V119.625H64.3257V122.595H61.2657V125.223H64.3257V128.193H67.0977V125.223H70.1397V122.595ZM77.9129 122.649L80.5229 119.841V117.609H71.4149V120.363H76.3829L74.1329 122.793V125.043H75.6269C76.9949 125.043 77.5529 125.511 77.5529 126.267C77.5529 127.113 76.7609 127.581 75.5549 127.581C74.3669 127.581 73.0709 127.221 72.0629 126.537L70.7669 129.219C72.0629 130.029 73.9169 130.461 75.6629 130.461C79.4609 130.461 81.1529 128.409 81.1529 126.267C81.1529 124.467 80.0369 123.099 77.9129 122.649ZM87.0867 127.383L89.4627 125.187C91.2627 123.531 91.6047 122.415 91.6047 121.191C91.6047 118.851 89.6067 117.357 86.7087 117.357C84.2247 117.357 82.4427 118.401 81.4887 119.985L84.1347 121.461C84.6387 120.651 85.4667 120.237 86.3847 120.237C87.4647 120.237 88.0047 120.723 88.0047 121.533C88.0047 122.055 87.8607 122.631 86.8527 123.567L82.1367 127.977V130.209H91.9467V127.383H87.0867ZM95.1039 126.321C93.9159 126.321 93.0519 127.113 93.0519 128.337C93.0519 129.183 93.4659 129.795 94.1139 130.101L93.2679 133.035H95.4099L96.5439 130.407C97.0659 129.237 97.1379 128.841 97.1379 128.337C97.1379 127.113 96.2739 126.321 95.1039 126.321ZM97.4371 117.609V120.363H99.7771V130.209H103.341V117.609H97.4371ZM108.242 124.431C110.114 124.431 111.482 123.135 111.482 120.939C111.482 118.761 110.114 117.447 108.242 117.447C106.388 117.447 105.02 118.761 105.02 120.939C105.02 123.135 106.388 124.431 108.242 124.431ZM107.09 130.209H109.682L118.286 117.609H115.694L107.09 130.209ZM108.242 122.721C107.666 122.721 107.18 122.217 107.18 120.939C107.18 119.661 107.666 119.157 108.242 119.157C108.854 119.157 109.304 119.661 109.304 120.939C109.304 122.217 108.854 122.721 108.242 122.721ZM117.134 130.371C119.006 130.371 120.374 129.075 120.374 126.879C120.374 124.701 119.006 123.387 117.134 123.387C115.262 123.387 113.912 124.701 113.912 126.879C113.912 129.075 115.262 130.371 117.134 130.371ZM117.134 128.661C116.54 128.661 116.072 128.157 116.072 126.879C116.072 125.601 116.54 125.097 117.134 125.097C117.728 125.097 118.196 125.601 118.196 126.879C118.196 128.157 117.728 128.661 117.134 128.661Z" fill="#76BD1D"/>
<path d="M70.1042 137.855V142.553H70.5542V138.26H73.7582V142.553H74.2082V137.855H70.1042ZM78.5181 137.819C77.6721 137.819 76.9611 138.242 76.5921 138.962V137.855H76.1601V144.299H76.6101V141.482C76.9881 142.184 77.6901 142.589 78.5181 142.589C79.8411 142.589 80.8401 141.617 80.8401 140.204C80.8401 138.8 79.8411 137.819 78.5181 137.819ZM78.4911 142.184C77.4111 142.184 76.6011 141.383 76.6011 140.204C76.6011 139.025 77.4111 138.224 78.4911 138.224C79.5711 138.224 80.3901 139.025 80.3901 140.204C80.3901 141.383 79.5711 142.184 78.4911 142.184ZM84.1754 142.589C85.5254 142.589 86.5244 141.599 86.5244 140.204C86.5244 138.809 85.5254 137.819 84.1754 137.819C82.8254 137.819 81.8264 138.809 81.8264 140.204C81.8264 141.599 82.8254 142.589 84.1754 142.589ZM84.1754 142.184C83.0954 142.184 82.2854 141.383 82.2854 140.204C82.2854 139.025 83.0954 138.224 84.1754 138.224C85.2554 138.224 86.0654 139.025 86.0654 140.204C86.0654 141.383 85.2554 142.184 84.1754 142.184ZM92.0039 142.157V137.855H91.5539V142.157H88.4399V137.855H87.9899V142.553H92.3549V143.777H92.7869V142.157H92.0039ZM98.1123 140.186C98.1123 138.791 97.1583 137.819 95.8713 137.819C94.5843 137.819 93.6213 138.809 93.6213 140.204C93.6213 141.599 94.6203 142.589 96.0423 142.589C96.7533 142.589 97.4013 142.328 97.8153 141.824L97.5543 141.527C97.1943 141.968 96.6453 142.184 96.0513 142.184C94.9263 142.184 94.1073 141.428 94.0623 140.312H98.1033C98.1033 140.267 98.1123 140.222 98.1123 140.186ZM95.8713 138.215C96.8703 138.215 97.6083 138.944 97.6713 139.961H94.0713C94.1433 138.935 94.8723 138.215 95.8713 138.215ZM99.5827 142.553H100.033V140.393H103.219V142.553H103.669V137.855H103.219V139.997H100.033V137.855H99.5827V142.553ZM108.753 137.855H104.631V138.26H106.467V142.553H106.917V138.26H108.753V137.855ZM64.2242 150.589C65.5742 150.589 66.5732 149.599 66.5732 148.204C66.5732 146.809 65.5742 145.819 64.2242 145.819C62.8742 145.819 61.8752 146.809 61.8752 148.204C61.8752 149.599 62.8742 150.589 64.2242 150.589ZM64.2242 150.184C63.1442 150.184 62.3342 149.383 62.3342 148.204C62.3342 147.025 63.1442 146.224 64.2242 146.224C65.3042 146.224 66.1142 147.025 66.1142 148.204C66.1142 149.383 65.3042 150.184 64.2242 150.184ZM71.004 145.855H66.882V146.26H68.718V150.553H69.168V146.26H71.004V145.855ZM75.4325 150.553H75.9725L73.9205 148.132L75.8285 145.855H75.3335L73.5605 147.988H72.4175V145.855H71.9675V150.553H72.4175V148.375H73.5605L75.4325 150.553ZM77.4607 145.855L77.3797 147.475C77.3077 148.834 77.2177 150.193 76.4167 150.193C76.3537 150.193 76.2727 150.175 76.2007 150.157L76.1557 150.544C76.2997 150.58 76.4257 150.607 76.5427 150.607C77.5237 150.607 77.7037 149.158 77.7937 147.511L77.8567 146.26H80.3047V150.553H80.7547V145.855H77.4607ZM84.5709 150.589C85.9209 150.589 86.9199 149.599 86.9199 148.204C86.9199 146.809 85.9209 145.819 84.5709 145.819C83.2209 145.819 82.2219 146.809 82.2219 148.204C82.2219 149.599 83.2209 150.589 84.5709 150.589ZM84.5709 150.184C83.4909 150.184 82.6809 149.383 82.6809 148.204C82.6809 147.025 83.4909 146.224 84.5709 146.224C85.6509 146.224 86.4609 147.025 86.4609 148.204C86.4609 149.383 85.6509 150.184 84.5709 150.184ZM88.3855 150.553H88.8355V148.393H92.0215V150.553H92.4715V145.855H92.0215V147.997H88.8355V145.855H88.3855V150.553ZM98.4287 148.186C98.4287 146.791 97.4747 145.819 96.1877 145.819C94.9007 145.819 93.9377 146.809 93.9377 148.204C93.9377 149.599 94.9367 150.589 96.3587 150.589C97.0697 150.589 97.7177 150.328 98.1317 149.824L97.8707 149.527C97.5107 149.968 96.9617 150.184 96.3677 150.184C95.2427 150.184 94.4237 149.428 94.3787 148.312H98.4197C98.4197 148.267 98.4287 148.222 98.4287 148.186ZM96.1877 146.215C97.1867 146.215 97.9247 146.944 97.9877 147.961H94.3877C94.4597 146.935 95.1887 146.215 96.1877 146.215ZM99.8991 150.553H100.349V148.393H103.535V150.553H103.985V145.855H103.535V147.997H100.349V145.855H99.8991V150.553ZM105.928 150.553H106.324L109.672 146.548V150.553H110.122V145.855H109.726L106.378 149.86V145.855H105.928V150.553ZM113.62 145.855C112.45 145.855 111.685 146.359 111.685 147.421C111.685 148.213 112.117 148.699 112.873 148.87L111.658 150.553H112.153L113.314 148.924C113.386 148.933 113.467 148.933 113.548 148.933H115.114V150.553H115.528V145.855H113.62ZM112.135 147.439C112.135 146.602 112.684 146.251 113.647 146.251H115.114V148.591H113.593C112.63 148.591 112.135 148.213 112.135 147.439Z" fill="#76BD1D"/>
<path fill-rule="evenodd" clip-rule="evenodd" d="M90.6155 172.725C140.661 172.725 181.231 134.106 181.231 86.4674C181.231 38.8285 140.661 0.209473 90.6155 0.209473C40.57 0.209473 0 38.8285 0 86.4674C0 134.106 40.57 172.725 90.6155 172.725ZM90.6159 161.814C134.33 161.814 169.768 128.08 169.768 86.4678C169.768 44.8554 134.33 11.122 90.6159 11.122C46.9014 11.122 11.4638 44.8554 11.4638 86.4678C11.4638 128.08 46.9014 161.814 90.6159 161.814Z" fill="#24346C"/>
<path fill-rule="evenodd" clip-rule="evenodd" d="M87.5288 11.1782C88.5529 11.1409 89.582 11.122 90.6157 11.122C134.33 11.122 169.768 44.8554 169.768 86.4678C169.768 98.794 166.658 110.429 161.145 120.701L171.28 125.806C177.641 114.01 181.231 100.638 181.231 86.4674C181.231 38.8285 140.661 0.209473 90.6153 0.209473C89.5823 0.209473 88.5534 0.225925 87.5288 0.25857V11.1782Z" fill="#76BD1D"/>
</svg>
