<svg width="182" height="173" viewBox="0 0 182 173" fill="none" xmlns="http://www.w3.org/2000/svg">
<path d="M87.4676 103.12C87.4676 101.662 86.4596 100.798 84.7136 100.744V98.8H84.2726V100.744C82.5356 100.798 81.5186 101.662 81.5186 103.12C81.5186 104.596 82.5266 105.469 84.2726 105.523V107.224H84.7136V105.523C86.4596 105.46 87.4676 104.596 87.4676 103.12ZM81.9686 103.12C81.9686 101.923 82.7786 101.212 84.2726 101.149V105.118C82.7876 105.055 81.9686 104.335 81.9686 103.12ZM84.7136 105.118V101.149C86.1986 101.212 87.0266 101.914 87.0266 103.12C87.0266 104.344 86.1986 105.055 84.7136 105.118ZM90.4613 100.744C89.7323 100.744 89.0483 100.996 88.5803 101.41L88.8053 101.734C89.1923 101.383 89.7773 101.14 90.4253 101.14C91.3433 101.14 91.8203 101.608 91.8203 102.481V102.859H90.2093C88.9043 102.859 88.4543 103.462 88.4543 104.173C88.4543 104.974 89.0933 105.514 90.1463 105.514C90.9653 105.514 91.5413 105.181 91.8383 104.641V105.478H92.2703V102.499C92.2703 101.338 91.6223 100.744 90.4613 100.744ZM90.2093 105.145C89.3813 105.145 88.9043 104.767 88.9043 104.155C88.9043 103.615 89.2463 103.21 90.2183 103.21H91.8203V104.092C91.5503 104.767 91.0013 105.145 90.2093 105.145ZM97.5636 105.478H98.1036L96.0516 103.057L97.9596 100.78H97.4646L95.6916 102.913H94.5486V100.78H94.0986V105.478H94.5486V103.3H95.6916L97.5636 105.478ZM102.241 100.78H98.1186V101.185H99.9546V105.478H100.405V101.185H102.241V100.78Z" fill="#76BD1D"/>
<path d="M44.4412 81.6166V84.3706H46.7812V94.2166H50.3452V81.6166H44.4412ZM58.6841 86.1886C57.4961 86.1886 56.5421 86.5126 55.8401 87.1246C56.0201 85.1986 57.2261 84.1906 59.0261 84.1906C59.8361 84.1906 60.6281 84.3346 61.3481 84.8386L62.6441 82.2826C61.7261 81.6886 60.3581 81.3646 58.9361 81.3646C54.9581 81.3646 52.2401 83.8666 52.2401 88.2586C52.2401 92.3446 54.5441 94.4686 58.0721 94.4686C60.8261 94.4686 63.0221 92.7946 63.0221 90.1666C63.0221 87.7546 61.0601 86.1886 58.6841 86.1886ZM57.8561 91.9306C56.7761 91.9306 56.0921 91.2826 56.0921 90.3466C56.0921 89.3926 56.8121 88.7446 57.8381 88.7446C58.8641 88.7446 59.5661 89.3566 59.5661 90.3286C59.5661 91.3186 58.8641 91.9306 57.8561 91.9306ZM68.6638 81.6166V84.3706H71.0038V94.2166H74.5678V81.6166H68.6638ZM76.2648 81.6166V86.3866H79.3068V84.4426H82.6188L78.3708 94.2166H82.2588L86.7048 83.8486V81.6166H76.2648ZM87.6378 81.6166V86.3866H90.6798V84.4426H93.9918L89.7438 94.2166H93.6318L98.0778 83.8486V81.6166H87.6378ZM110.909 86.6566L113.519 83.8486V81.6166H104.411V84.3706H109.379L107.129 86.8006V89.0506H108.623C109.991 89.0506 110.549 89.5186 110.549 90.2746C110.549 91.1206 109.757 91.5886 108.551 91.5886C107.363 91.5886 106.067 91.2286 105.059 90.5446L103.763 93.2266C105.059 94.0366 106.913 94.4686 108.659 94.4686C112.457 94.4686 114.149 92.4166 114.149 90.2746C114.149 88.4746 113.033 87.1066 110.909 86.6566ZM120.083 91.3906L122.459 89.1946C124.259 87.5386 124.601 86.4226 124.601 85.1986C124.601 82.8586 122.603 81.3646 119.705 81.3646C117.221 81.3646 115.439 82.4086 114.485 83.9926L117.131 85.4686C117.635 84.6586 118.463 84.2446 119.381 84.2446C120.461 84.2446 121.001 84.7306 121.001 85.5406C121.001 86.0626 120.857 86.6386 119.849 87.5746L115.133 91.9846V94.2166H124.943V91.3906H120.083ZM132.407 86.1886C131.219 86.1886 130.265 86.5126 129.563 87.1246C129.743 85.1986 130.949 84.1906 132.749 84.1906C133.559 84.1906 134.351 84.3346 135.071 84.8386L136.367 82.2826C135.449 81.6886 134.081 81.3646 132.659 81.3646C128.681 81.3646 125.963 83.8666 125.963 88.2586C125.963 92.3446 128.267 94.4686 131.795 94.4686C134.549 94.4686 136.745 92.7946 136.745 90.1666C136.745 87.7546 134.783 86.1886 132.407 86.1886ZM131.579 91.9306C130.499 91.9306 129.815 91.2826 129.815 90.3466C129.815 89.3926 130.535 88.7446 131.561 88.7446C132.587 88.7446 133.289 89.3566 133.289 90.3286C133.289 91.3186 132.587 91.9306 131.579 91.9306Z" fill="#76BD1D"/>
<path d="M61.5265 62.7843C66.0065 62.7843 69.3065 59.7043 69.3065 55.5043C69.3065 51.3043 66.0065 48.2243 61.5265 48.2243C57.0465 48.2243 53.7465 51.3043 53.7465 55.5043C53.7465 59.7043 57.0465 62.7843 61.5265 62.7843ZM61.5265 59.5043C59.4065 59.5043 57.7465 57.9243 57.7465 55.5043C57.7465 53.0843 59.4065 51.5043 61.5265 51.5043C63.6465 51.5043 65.3065 53.0843 65.3065 55.5043C65.3065 57.9243 63.6465 59.5043 61.5265 59.5043ZM69.856 48.4843L74.516 55.3643L69.536 62.5043H74.096L76.896 58.3643L79.716 62.5043H84.376L79.376 55.1843L83.976 48.4843H79.376L76.896 52.2843L74.396 48.4843H69.856ZM95.784 55.1843C96.984 54.5843 97.684 53.5243 97.684 52.1443C97.684 49.8243 95.724 48.5043 92.384 48.5043H85.584V62.5043H92.764C96.364 62.5043 98.324 60.9643 98.324 58.5043C98.324 56.8243 97.404 55.7043 95.784 55.1843ZM89.484 51.3443H92.004C93.124 51.3443 93.684 51.8243 93.684 52.7243C93.684 53.6443 93.124 54.1043 92.004 54.1043H89.484V51.3443ZM92.604 59.6643H89.484V56.7843H92.604C93.744 56.7843 94.324 57.2443 94.324 58.2043C94.324 59.1643 93.744 59.6643 92.604 59.6643ZM111.227 62.5043H115.347L109.147 48.5043H105.247L99.0668 62.5043H103.107L104.207 59.7843H110.127L111.227 62.5043ZM105.367 56.8643L107.167 52.3843L108.967 56.8643H105.367ZM127.528 48.5043H115.048V51.6443H119.348V62.5043H123.248V51.6443H127.528V48.5043Z" fill="#304078"/>
<path d="M67.0021 121.595H63.9601V118.625H61.1881V121.595H58.1281V124.223H61.1881V127.193H63.9601V124.223H67.0021V121.595ZM75.144 121.181C73.956 121.181 73.002 121.505 72.3 122.117C72.48 120.191 73.686 119.183 75.486 119.183C76.296 119.183 77.088 119.327 77.808 119.831L79.104 117.275C78.186 116.681 76.818 116.357 75.396 116.357C71.418 116.357 68.7 118.859 68.7 123.251C68.7 127.337 71.004 129.461 74.532 129.461C77.286 129.461 79.482 127.787 79.482 125.159C79.482 122.747 77.52 121.181 75.144 121.181ZM74.316 126.923C73.236 126.923 72.552 126.275 72.552 125.339C72.552 124.385 73.272 123.737 74.298 123.737C75.324 123.737 76.026 124.349 76.026 125.321C76.026 126.311 75.324 126.923 74.316 126.923ZM86.8515 121.649L89.4615 118.841V116.609H80.3535V119.363H85.3215L83.0715 121.793V124.043H84.5655C85.9335 124.043 86.4915 124.511 86.4915 125.267C86.4915 126.113 85.6995 126.581 84.4935 126.581C83.3055 126.581 82.0095 126.221 81.0015 125.537L79.7055 128.219C81.0015 129.029 82.8555 129.461 84.6015 129.461C88.3995 129.461 90.0915 127.409 90.0915 125.267C90.0915 123.467 88.9755 122.099 86.8515 121.649ZM93.1792 125.321C91.9912 125.321 91.1272 126.113 91.1272 127.337C91.1272 128.183 91.5412 128.795 92.1892 129.101L91.3432 132.035H93.4852L94.6192 129.407C95.1412 128.237 95.2132 127.841 95.2132 127.337C95.2132 126.113 94.3492 125.321 93.1792 125.321ZM105.581 122.567C106.427 121.973 106.931 121.109 106.931 120.029C106.931 117.797 104.879 116.357 101.909 116.357C98.9386 116.357 96.8866 117.797 96.8866 120.029C96.8866 121.109 97.3906 121.973 98.2366 122.567C97.1026 123.215 96.4366 124.205 96.4366 125.501C96.4366 127.913 98.6506 129.461 101.909 129.461C105.167 129.461 107.381 127.913 107.381 125.501C107.381 124.205 106.715 123.215 105.581 122.567ZM101.909 118.859C102.791 118.859 103.421 119.345 103.421 120.191C103.421 121.019 102.809 121.505 101.909 121.505C101.009 121.505 100.415 121.019 100.415 120.191C100.415 119.345 101.027 118.859 101.909 118.859ZM101.909 126.959C100.775 126.959 100.019 126.365 100.019 125.393C100.019 124.421 100.775 123.827 101.909 123.827C103.043 123.827 103.799 124.421 103.799 125.393C103.799 126.365 103.043 126.959 101.909 126.959ZM111.38 123.431C113.252 123.431 114.62 122.135 114.62 119.939C114.62 117.761 113.252 116.447 111.38 116.447C109.526 116.447 108.158 117.761 108.158 119.939C108.158 122.135 109.526 123.431 111.38 123.431ZM110.228 129.209H112.82L121.424 116.609H118.832L110.228 129.209ZM111.38 121.721C110.804 121.721 110.318 121.217 110.318 119.939C110.318 118.661 110.804 118.157 111.38 118.157C111.992 118.157 112.442 118.661 112.442 119.939C112.442 121.217 111.992 121.721 111.38 121.721ZM120.272 129.371C122.144 129.371 123.512 128.075 123.512 125.879C123.512 123.701 122.144 122.387 120.272 122.387C118.4 122.387 117.05 123.701 117.05 125.879C117.05 128.075 118.4 129.371 120.272 129.371ZM120.272 127.661C119.678 127.661 119.21 127.157 119.21 125.879C119.21 124.601 119.678 124.097 120.272 124.097C120.866 124.097 121.334 124.601 121.334 125.879C121.334 127.157 120.866 127.661 120.272 127.661Z" fill="#76BD1D"/>
<path d="M70.5205 136.855V141.553H70.9705V137.26H74.1745V141.553H74.6245V136.855H70.5205ZM78.9343 136.819C78.0883 136.819 77.3773 137.242 77.0083 137.962V136.855H76.5763V143.299H77.0263V140.482C77.4043 141.184 78.1063 141.589 78.9343 141.589C80.2573 141.589 81.2563 140.617 81.2563 139.204C81.2563 137.8 80.2573 136.819 78.9343 136.819ZM78.9073 141.184C77.8273 141.184 77.0173 140.383 77.0173 139.204C77.0173 138.025 77.8273 137.224 78.9073 137.224C79.9873 137.224 80.8063 138.025 80.8063 139.204C80.8063 140.383 79.9873 141.184 78.9073 141.184ZM84.5917 141.589C85.9417 141.589 86.9407 140.599 86.9407 139.204C86.9407 137.809 85.9417 136.819 84.5917 136.819C83.2417 136.819 82.2427 137.809 82.2427 139.204C82.2427 140.599 83.2417 141.589 84.5917 141.589ZM84.5917 141.184C83.5117 141.184 82.7017 140.383 82.7017 139.204C82.7017 138.025 83.5117 137.224 84.5917 137.224C85.6717 137.224 86.4817 138.025 86.4817 139.204C86.4817 140.383 85.6717 141.184 84.5917 141.184ZM92.4202 141.157V136.855H91.9702V141.157H88.8562V136.855H88.4062V141.553H92.7712V142.777H93.2032V141.157H92.4202ZM98.5286 139.186C98.5286 137.791 97.5746 136.819 96.2876 136.819C95.0006 136.819 94.0376 137.809 94.0376 139.204C94.0376 140.599 95.0366 141.589 96.4586 141.589C97.1696 141.589 97.8176 141.328 98.2316 140.824L97.9706 140.527C97.6106 140.968 97.0616 141.184 96.4676 141.184C95.3426 141.184 94.5236 140.428 94.4786 139.312H98.5196C98.5196 139.267 98.5286 139.222 98.5286 139.186ZM96.2876 137.215C97.2866 137.215 98.0246 137.944 98.0876 138.961H94.4876C94.5596 137.935 95.2886 137.215 96.2876 137.215ZM99.999 141.553H100.449V139.393H103.635V141.553H104.085V136.855H103.635V138.997H100.449V136.855H99.999V141.553ZM109.169 136.855H105.047V137.26H106.883V141.553H107.333V137.26H109.169V136.855ZM64.6405 149.589C65.9905 149.589 66.9895 148.599 66.9895 147.204C66.9895 145.809 65.9905 144.819 64.6405 144.819C63.2905 144.819 62.2915 145.809 62.2915 147.204C62.2915 148.599 63.2905 149.589 64.6405 149.589ZM64.6405 149.184C63.5605 149.184 62.7505 148.383 62.7505 147.204C62.7505 146.025 63.5605 145.224 64.6405 145.224C65.7205 145.224 66.5305 146.025 66.5305 147.204C66.5305 148.383 65.7205 149.184 64.6405 149.184ZM71.4203 144.855H67.2983V145.26H69.1343V149.553H69.5843V145.26H71.4203V144.855ZM75.8487 149.553H76.3887L74.3367 147.132L76.2447 144.855H75.7497L73.9767 146.988H72.8337V144.855H72.3837V149.553H72.8337V147.375H73.9767L75.8487 149.553ZM77.877 144.855L77.796 146.475C77.724 147.834 77.634 149.193 76.833 149.193C76.77 149.193 76.689 149.175 76.617 149.157L76.572 149.544C76.716 149.58 76.842 149.607 76.959 149.607C77.94 149.607 78.12 148.158 78.21 146.511L78.273 145.26H80.721V149.553H81.171V144.855H77.877ZM84.9872 149.589C86.3372 149.589 87.3362 148.599 87.3362 147.204C87.3362 145.809 86.3372 144.819 84.9872 144.819C83.6372 144.819 82.6382 145.809 82.6382 147.204C82.6382 148.599 83.6372 149.589 84.9872 149.589ZM84.9872 149.184C83.9072 149.184 83.0972 148.383 83.0972 147.204C83.0972 146.025 83.9072 145.224 84.9872 145.224C86.0672 145.224 86.8772 146.025 86.8772 147.204C86.8772 148.383 86.0672 149.184 84.9872 149.184ZM88.8017 149.553H89.2517V147.393H92.4377V149.553H92.8877V144.855H92.4377V146.997H89.2517V144.855H88.8017V149.553ZM98.845 147.186C98.845 145.791 97.891 144.819 96.604 144.819C95.317 144.819 94.354 145.809 94.354 147.204C94.354 148.599 95.353 149.589 96.775 149.589C97.486 149.589 98.134 149.328 98.548 148.824L98.287 148.527C97.927 148.968 97.378 149.184 96.784 149.184C95.659 149.184 94.84 148.428 94.795 147.312H98.836C98.836 147.267 98.845 147.222 98.845 147.186ZM96.604 145.215C97.603 145.215 98.341 145.944 98.404 146.961H94.804C94.876 145.935 95.605 145.215 96.604 145.215ZM100.315 149.553H100.765V147.393H103.951V149.553H104.401V144.855H103.951V146.997H100.765V144.855H100.315V149.553ZM106.345 149.553H106.741L110.089 145.548V149.553H110.539V144.855H110.143L106.795 148.86V144.855H106.345V149.553ZM114.036 144.855C112.866 144.855 112.101 145.359 112.101 146.421C112.101 147.213 112.533 147.699 113.289 147.87L112.074 149.553H112.569L113.73 147.924C113.802 147.933 113.883 147.933 113.964 147.933H115.53V149.553H115.944V144.855H114.036ZM112.551 146.439C112.551 145.602 113.1 145.251 114.063 145.251H115.53V147.591H114.009C113.046 147.591 112.551 147.213 112.551 146.439Z" fill="#76BD1D"/>
<path fill-rule="evenodd" clip-rule="evenodd" d="M90.6155 172.725C140.661 172.725 181.231 134.106 181.231 86.4674C181.231 38.8285 140.661 0.209473 90.6155 0.209473C40.57 0.209473 0 38.8285 0 86.4674C0 134.106 40.57 172.725 90.6155 172.725ZM90.6162 161.814C134.331 161.814 169.768 128.08 169.768 86.4678C169.768 44.8554 134.331 11.122 90.6162 11.122C46.9017 11.122 11.4641 44.8554 11.4641 86.4678C11.4641 128.08 46.9017 161.814 90.6162 161.814Z" fill="#24346C"/>
<path fill-rule="evenodd" clip-rule="evenodd" d="M90.0834 11.1237C90.2655 11.1226 90.4477 11.122 90.63 11.122C134.345 11.122 169.782 44.8554 169.782 86.4678C169.782 128.08 134.345 161.814 90.63 161.814C68.1014 161.814 47.7711 152.854 33.3568 138.474L25 145.944C41.5056 162.443 64.8061 172.725 90.6296 172.725C140.675 172.725 181.245 134.106 181.245 86.4674C181.245 38.8285 140.675 0.209473 90.6296 0.209473C90.4474 0.209473 90.2654 0.209984 90.0834 0.211007V11.1237Z" fill="#76BD1D"/>
</svg>
