<svg width="182" height="173" viewBox="0 0 182 173" fill="none" xmlns="http://www.w3.org/2000/svg">
<path d="M87.8222 103.859C87.8222 102.401 86.8142 101.537 85.0682 101.483V99.5388H84.6272V101.483C82.8902 101.537 81.8732 102.401 81.8732 103.859C81.8732 105.335 82.8812 106.208 84.6272 106.262V107.963H85.0682V106.262C86.8142 106.199 87.8222 105.335 87.8222 103.859ZM82.3232 103.859C82.3232 102.662 83.1332 101.951 84.6272 101.888V105.857C83.1422 105.794 82.3232 105.074 82.3232 103.859ZM85.0682 105.857V101.888C86.5532 101.951 87.3812 102.653 87.3812 103.859C87.3812 105.083 86.5532 105.794 85.0682 105.857ZM90.8159 101.483C90.0869 101.483 89.4029 101.735 88.9349 102.149L89.1599 102.473C89.5469 102.122 90.1319 101.879 90.7799 101.879C91.6979 101.879 92.1749 102.347 92.1749 103.22V103.598H90.5639C89.2589 103.598 88.8089 104.201 88.8089 104.912C88.8089 105.713 89.4479 106.253 90.5009 106.253C91.3199 106.253 91.8959 105.92 92.1929 105.38V106.217H92.6249V103.238C92.6249 102.077 91.9769 101.483 90.8159 101.483ZM90.5639 105.884C89.7359 105.884 89.2589 105.506 89.2589 104.894C89.2589 104.354 89.6009 103.949 90.5729 103.949H92.1749V104.831C91.9049 105.506 91.3559 105.884 90.5639 105.884ZM97.9182 106.217H98.4582L96.4062 103.796L98.3142 101.519H97.8192L96.0462 103.652H94.9032V101.519H94.4532V106.217H94.9032V104.039H96.0462L97.9182 106.217ZM102.595 101.519H98.4732V101.924H100.309V106.217H100.759V101.924H102.595V101.519Z" fill="#76BD1D"/>
<path d="M69.549 94.4688C72.753 94.4688 75.093 92.0748 75.093 87.9168C75.093 83.7588 72.753 81.3648 69.549 81.3648C66.327 81.3648 63.987 83.7588 63.987 87.9168C63.987 92.0748 66.327 94.4688 69.549 94.4688ZM69.549 91.5528C68.397 91.5528 67.569 90.5628 67.569 87.9168C67.569 85.2708 68.397 84.2808 69.549 84.2808C70.683 84.2808 71.511 85.2708 71.511 87.9168C71.511 90.5628 70.683 91.5528 69.549 91.5528ZM78.0072 90.3288C76.8192 90.3288 75.9552 91.1208 75.9552 92.3448C75.9552 93.1908 76.3692 93.8028 77.0172 94.1088L76.1712 97.0428H78.3132L79.4472 94.4148C79.9692 93.2448 80.0412 92.8488 80.0412 92.3448C80.0412 91.1208 79.1772 90.3288 78.0072 90.3288ZM87.3587 86.1888C86.1707 86.1888 85.2167 86.5128 84.5147 87.1248C84.6947 85.1988 85.9007 84.1908 87.7007 84.1908C88.5107 84.1908 89.3027 84.3348 90.0227 84.8388L91.3187 82.2828C90.4007 81.6888 89.0327 81.3648 87.6107 81.3648C83.6327 81.3648 80.9147 83.8668 80.9147 88.2588C80.9147 92.3448 83.2187 94.4688 86.7467 94.4688C89.5007 94.4688 91.6967 92.7948 91.6967 90.1668C91.6967 87.7548 89.7347 86.1888 87.3587 86.1888ZM86.5307 91.9308C85.4507 91.9308 84.7667 91.2828 84.7667 90.3468C84.7667 89.3928 85.4867 88.7448 86.5127 88.7448C87.5387 88.7448 88.2407 89.3568 88.2407 90.3288C88.2407 91.3188 87.5387 91.9308 86.5307 91.9308ZM92.371 81.6168V86.3868H95.413V84.4428H98.725L94.477 94.2168H98.365L102.811 83.8488V81.6168H92.371ZM107.089 88.4388C108.961 88.4388 110.329 87.1428 110.329 84.9468C110.329 82.7688 108.961 81.4548 107.089 81.4548C105.235 81.4548 103.867 82.7688 103.867 84.9468C103.867 87.1428 105.235 88.4388 107.089 88.4388ZM105.937 94.2168H108.529L117.133 81.6168H114.541L105.937 94.2168ZM107.089 86.7288C106.513 86.7288 106.027 86.2248 106.027 84.9468C106.027 83.6688 106.513 83.1648 107.089 83.1648C107.701 83.1648 108.151 83.6688 108.151 84.9468C108.151 86.2248 107.701 86.7288 107.089 86.7288ZM115.981 94.3788C117.853 94.3788 119.221 93.0828 119.221 90.8868C119.221 88.7088 117.853 87.3948 115.981 87.3948C114.109 87.3948 112.759 88.7088 112.759 90.8868C112.759 93.0828 114.109 94.3788 115.981 94.3788ZM115.981 92.6688C115.387 92.6688 114.919 92.1648 114.919 90.8868C114.919 89.6088 115.387 89.1048 115.981 89.1048C116.575 89.1048 117.043 89.6088 117.043 90.8868C117.043 92.1648 116.575 92.6688 115.981 92.6688Z" fill="#76BD1D"/>
<path d="M78.8057 62.7843C81.3857 62.7843 83.4657 61.8443 84.8257 60.1443L82.3057 57.8643C81.4257 58.9243 80.3457 59.5043 79.0057 59.5043C76.7057 59.5043 75.1057 57.9043 75.1057 55.5043C75.1057 53.1043 76.7057 51.5043 79.0057 51.5043C80.3457 51.5043 81.4257 52.0843 82.3057 53.1443L84.8257 50.8643C83.4657 49.1643 81.3857 48.2243 78.8057 48.2243C74.3657 48.2243 71.1057 51.2443 71.1057 55.5043C71.1057 59.7643 74.3657 62.7843 78.8057 62.7843ZM89.4541 62.5043H93.4141V51.6443H97.6941V48.5043H85.1541V51.6443H89.4541V62.5043ZM107.829 62.5043H112.069L109.049 58.1043C110.789 57.2643 111.789 55.7443 111.789 53.6843C111.789 50.4843 109.389 48.5043 105.569 48.5043H99.1694V62.5043H103.129V58.7843H105.289L107.829 62.5043ZM107.789 53.6843C107.789 54.9643 106.969 55.7243 105.329 55.7243H103.129V51.6243H105.329C106.969 51.6243 107.789 52.3843 107.789 53.6843Z" fill="#304078"/>
<path d="M70.4102 122.603H67.3682V119.633H64.5962V122.603H61.5362V125.231H64.5962V128.201H67.3682V125.231H70.4102V122.603ZM76.6345 127.391L79.0105 125.195C80.8105 123.539 81.1525 122.423 81.1525 121.199C81.1525 118.859 79.1545 117.365 76.2565 117.365C73.7725 117.365 71.9905 118.409 71.0365 119.993L73.6825 121.469C74.1865 120.659 75.0145 120.245 75.9325 120.245C77.0125 120.245 77.5525 120.731 77.5525 121.541C77.5525 122.063 77.4085 122.639 76.4005 123.575L71.6845 127.985V130.217H81.4945V127.391H76.6345ZM82.0279 117.617V120.371H84.3679V130.217H87.9319V117.617H82.0279ZM91.7708 126.329C90.5828 126.329 89.7188 127.121 89.7188 128.345C89.7188 129.191 90.1328 129.803 90.7808 130.109L89.9348 133.043H92.0768L93.2108 130.415C93.7328 129.245 93.8048 128.849 93.8048 128.345C93.8048 127.121 92.9408 126.329 91.7708 126.329ZM104.172 123.575C105.018 122.981 105.522 122.117 105.522 121.037C105.522 118.805 103.47 117.365 100.5 117.365C97.5303 117.365 95.4783 118.805 95.4783 121.037C95.4783 122.117 95.9823 122.981 96.8283 123.575C95.6943 124.223 95.0283 125.213 95.0283 126.509C95.0283 128.921 97.2423 130.469 100.5 130.469C103.758 130.469 105.972 128.921 105.972 126.509C105.972 125.213 105.306 124.223 104.172 123.575ZM100.5 119.867C101.382 119.867 102.012 120.353 102.012 121.199C102.012 122.027 101.4 122.513 100.5 122.513C99.6003 122.513 99.0063 122.027 99.0063 121.199C99.0063 120.353 99.6183 119.867 100.5 119.867ZM100.5 127.967C99.3663 127.967 98.6103 127.373 98.6103 126.401C98.6103 125.429 99.3663 124.835 100.5 124.835C101.634 124.835 102.39 125.429 102.39 126.401C102.39 127.373 101.634 127.967 100.5 127.967ZM109.972 124.439C111.844 124.439 113.212 123.143 113.212 120.947C113.212 118.769 111.844 117.455 109.972 117.455C108.118 117.455 106.75 118.769 106.75 120.947C106.75 123.143 108.118 124.439 109.972 124.439ZM108.82 130.217H111.412L120.016 117.617H117.424L108.82 130.217ZM109.972 122.729C109.396 122.729 108.91 122.225 108.91 120.947C108.91 119.669 109.396 119.165 109.972 119.165C110.584 119.165 111.034 119.669 111.034 120.947C111.034 122.225 110.584 122.729 109.972 122.729ZM118.864 130.379C120.736 130.379 122.104 129.083 122.104 126.887C122.104 124.709 120.736 123.395 118.864 123.395C116.992 123.395 115.642 124.709 115.642 126.887C115.642 129.083 116.992 130.379 118.864 130.379ZM118.864 128.669C118.27 128.669 117.802 128.165 117.802 126.887C117.802 125.609 118.27 125.105 118.864 125.105C119.458 125.105 119.926 125.609 119.926 126.887C119.926 128.165 119.458 128.669 118.864 128.669Z" fill="#76BD1D"/>
<path d="M71.9582 137.863V142.561H72.4082V138.268H75.6122V142.561H76.0622V137.863H71.9582ZM80.3721 137.827C79.5261 137.827 78.8151 138.25 78.4461 138.97V137.863H78.0141V144.307H78.4641V141.49C78.8421 142.192 79.5441 142.597 80.3721 142.597C81.6951 142.597 82.6941 141.625 82.6941 140.212C82.6941 138.808 81.6951 137.827 80.3721 137.827ZM80.3451 142.192C79.2651 142.192 78.4551 141.391 78.4551 140.212C78.4551 139.033 79.2651 138.232 80.3451 138.232C81.4251 138.232 82.2441 139.033 82.2441 140.212C82.2441 141.391 81.4251 142.192 80.3451 142.192ZM86.0294 142.597C87.3794 142.597 88.3784 141.607 88.3784 140.212C88.3784 138.817 87.3794 137.827 86.0294 137.827C84.6794 137.827 83.6804 138.817 83.6804 140.212C83.6804 141.607 84.6794 142.597 86.0294 142.597ZM86.0294 142.192C84.9494 142.192 84.1394 141.391 84.1394 140.212C84.1394 139.033 84.9494 138.232 86.0294 138.232C87.1094 138.232 87.9194 139.033 87.9194 140.212C87.9194 141.391 87.1094 142.192 86.0294 142.192ZM93.8579 142.165V137.863H93.4079V142.165H90.2939V137.863H89.8439V142.561H94.2089V143.785H94.6409V142.165H93.8579ZM99.9663 140.194C99.9663 138.799 99.0123 137.827 97.7253 137.827C96.4383 137.827 95.4753 138.817 95.4753 140.212C95.4753 141.607 96.4743 142.597 97.8963 142.597C98.6073 142.597 99.2553 142.336 99.6693 141.832L99.4083 141.535C99.0483 141.976 98.4993 142.192 97.9053 142.192C96.7803 142.192 95.9613 141.436 95.9163 140.32H99.9573C99.9573 140.275 99.9663 140.23 99.9663 140.194ZM97.7253 138.223C98.7243 138.223 99.4623 138.952 99.5253 139.969H95.9253C95.9973 138.943 96.7263 138.223 97.7253 138.223ZM101.437 142.561H101.887V140.401H105.073V142.561H105.523V137.863H105.073V140.005H101.887V137.863H101.437V142.561ZM110.607 137.863H106.485V138.268H108.321V142.561H108.771V138.268H110.607V137.863ZM66.0783 150.597C67.4283 150.597 68.4273 149.607 68.4273 148.212C68.4273 146.817 67.4283 145.827 66.0783 145.827C64.7283 145.827 63.7293 146.817 63.7293 148.212C63.7293 149.607 64.7283 150.597 66.0783 150.597ZM66.0783 150.192C64.9983 150.192 64.1883 149.391 64.1883 148.212C64.1883 147.033 64.9983 146.232 66.0783 146.232C67.1583 146.232 67.9683 147.033 67.9683 148.212C67.9683 149.391 67.1583 150.192 66.0783 150.192ZM72.858 145.863H68.736V146.268H70.572V150.561H71.022V146.268H72.858V145.863ZM77.2865 150.561H77.8265L75.7745 148.14L77.6825 145.863H77.1875L75.4145 147.996H74.2715V145.863H73.8215V150.561H74.2715V148.383H75.4145L77.2865 150.561ZM79.3147 145.863L79.2337 147.483C79.1617 148.842 79.0717 150.201 78.2707 150.201C78.2077 150.201 78.1267 150.183 78.0547 150.165L78.0097 150.552C78.1537 150.588 78.2797 150.615 78.3967 150.615C79.3777 150.615 79.5577 149.166 79.6477 147.519L79.7107 146.268H82.1587V150.561H82.6087V145.863H79.3147ZM86.4249 150.597C87.7749 150.597 88.7739 149.607 88.7739 148.212C88.7739 146.817 87.7749 145.827 86.4249 145.827C85.0749 145.827 84.0759 146.817 84.0759 148.212C84.0759 149.607 85.0749 150.597 86.4249 150.597ZM86.4249 150.192C85.3449 150.192 84.5349 149.391 84.5349 148.212C84.5349 147.033 85.3449 146.232 86.4249 146.232C87.5049 146.232 88.3149 147.033 88.3149 148.212C88.3149 149.391 87.5049 150.192 86.4249 150.192ZM90.2395 150.561H90.6895V148.401H93.8755V150.561H94.3255V145.863H93.8755V148.005H90.6895V145.863H90.2395V150.561ZM100.283 148.194C100.283 146.799 99.3288 145.827 98.0418 145.827C96.7548 145.827 95.7918 146.817 95.7918 148.212C95.7918 149.607 96.7908 150.597 98.2128 150.597C98.9238 150.597 99.5718 150.336 99.9858 149.832L99.7248 149.535C99.3648 149.976 98.8158 150.192 98.2218 150.192C97.0968 150.192 96.2778 149.436 96.2328 148.32H100.274C100.274 148.275 100.283 148.23 100.283 148.194ZM98.0418 146.223C99.0408 146.223 99.7788 146.952 99.8418 147.969H96.2418C96.3138 146.943 97.0428 146.223 98.0418 146.223ZM101.753 150.561H102.203V148.401H105.389V150.561H105.839V145.863H105.389V148.005H102.203V145.863H101.753V150.561ZM107.782 150.561H108.178L111.526 146.556V150.561H111.976V145.863H111.58L108.232 149.868V145.863H107.782V150.561ZM115.474 145.863C114.304 145.863 113.539 146.367 113.539 147.429C113.539 148.221 113.971 148.707 114.727 148.878L113.512 150.561H114.007L115.168 148.932C115.24 148.941 115.321 148.941 115.402 148.941H116.968V150.561H117.382V145.863H115.474ZM113.989 147.447C113.989 146.61 114.538 146.259 115.501 146.259H116.968V148.599H115.447C114.484 148.599 113.989 148.221 113.989 147.447Z" fill="#76BD1D"/>
<path fill-rule="evenodd" clip-rule="evenodd" d="M90.6155 172.725C140.661 172.725 181.231 134.106 181.231 86.4674C181.231 38.8285 140.661 0.209473 90.6155 0.209473C40.57 0.209473 0 38.8285 0 86.4674C0 134.106 40.57 172.725 90.6155 172.725ZM90.6167 161.814C134.331 161.814 169.769 128.08 169.769 86.4678C169.769 44.8554 134.331 11.122 90.6167 11.122C46.9022 11.122 11.4645 44.8554 11.4645 86.4678C11.4645 128.08 46.9022 161.814 90.6167 161.814Z" fill="#24346C"/>
<path fill-rule="evenodd" clip-rule="evenodd" d="M88.9602 11.1382C89.511 11.1274 90.0632 11.122 90.6167 11.122C122.417 11.122 149.837 28.9731 162.421 54.7225L172.563 49.6042C158.042 20.4057 126.807 0.209473 90.6156 0.209473C90.0626 0.209473 89.5108 0.214188 88.9602 0.223578V11.1382Z" fill="#76BD1D"/>
</svg>
