<svg width="55" height="56" viewBox="0 0 55 56" fill="none" xmlns="http://www.w3.org/2000/svg">
<circle cx="27.4998" cy="28.1558" r="27.5" fill="white"/>
<path fill-rule="evenodd" clip-rule="evenodd" d="M35.5691 15.0933H19.0931V27.4694H13.0626L27.3311 43.6304L41.5997 27.4694H35.5691V15.0933Z" fill="white"/>
<path d="M19.0931 15.0933V13.7378C18.3445 13.7378 17.7376 14.3447 17.7376 15.0933H19.0931ZM35.5691 15.0933H36.9245C36.9245 14.3447 36.3177 13.7378 35.5691 13.7378V15.0933ZM19.0931 27.4694V28.8248C19.8417 28.8248 20.4486 28.218 20.4486 27.4694H19.0931ZM13.0626 27.4694V26.1139C12.5296 26.1139 12.0461 26.4262 11.827 26.912C11.6078 27.3978 11.6937 27.967 12.0465 28.3665L13.0626 27.4694ZM27.3311 43.6304L26.315 44.5275C26.5723 44.8189 26.9424 44.9858 27.3311 44.9858C27.7199 44.9858 28.0899 44.8189 28.3472 44.5275L27.3311 43.6304ZM41.5997 27.4694L42.6158 28.3665C42.9686 27.967 43.0544 27.3978 42.8353 26.912C42.6162 26.4262 42.1327 26.1139 41.5997 26.1139V27.4694ZM35.5691 27.4694H34.2136C34.2136 28.218 34.8205 28.8248 35.5691 28.8248V27.4694ZM19.0931 16.4487H35.5691V13.7378H19.0931V16.4487ZM20.4486 27.4694V15.0933H17.7376V27.4694H20.4486ZM19.0931 26.1139H13.0626V28.8248H19.0931V26.1139ZM12.0465 28.3665L26.315 44.5275L28.3472 42.7332L14.0787 26.5722L12.0465 28.3665ZM28.3472 44.5275L42.6158 28.3665L40.5836 26.5722L26.315 42.7332L28.3472 44.5275ZM41.5997 26.1139H35.5691V28.8248H41.5997V26.1139ZM34.2136 15.0933V27.4694H36.9245V15.0933H34.2136Z" fill="#76BD1D"/>
</svg>
