<svg width="91" height="88" viewBox="0 0 91 88" fill="none" xmlns="http://www.w3.org/2000/svg">
<path d="M63.3783 56.9793C63.3783 56.9793 63.2494 56.9742 63.0494 56.9753C62.8513 56.9667 62.5858 56.945 62.3299 56.9252C62.201 56.9201 62.0644 56.9035 61.9452 56.9003C61.8278 56.8875 61.7104 56.8746 61.6123 56.8655C61.416 56.8473 61.289 56.8326 61.289 56.8326C61.0543 56.8069 60.8519 56.7176 60.7011 56.5684C60.5503 56.4191 60.457 56.2312 60.4463 56.0293C60.4463 56.0293 60.4311 55.6967 60.4082 55.3526C60.393 55.0199 60.3796 54.6777 60.3796 54.6777C60.3663 54.3355 60.2992 54.0127 60.188 53.7114C60.0768 53.41 59.9138 53.1186 59.7317 52.8734C59.6368 52.745 59.5381 52.6359 59.4202 52.5231C59.312 52.4121 59.1922 52.3089 59.0705 52.2153C58.8176 52.0262 58.542 51.9027 58.2433 51.7946L58.2241 51.7909L58.2048 51.7871C58.0546 51.7379 57.9006 51.708 57.7466 51.678C57.6677 51.6726 57.5907 51.6577 57.5118 51.6523C57.4329 51.647 57.354 51.6416 57.2848 51.6381C57.1348 51.6389 56.9733 51.6474 56.8177 51.6771C56.7447 51.6929 56.6621 51.7068 56.5891 51.7225C56.5161 51.7383 56.4431 51.7541 56.3682 51.7795C55.7749 51.9537 55.1922 52.3299 54.7796 52.859C54.7796 52.859 54.5694 53.1178 54.367 53.3881C54.1568 53.6469 53.9448 53.9153 53.9448 53.9153C53.8148 54.0698 53.6346 54.1746 53.429 54.2045C53.3252 54.2243 53.2156 54.223 53.1097 54.2024C53.0038 54.1818 52.9017 54.1419 52.7937 54.0809C52.7937 54.0809 52.676 54.0181 52.5063 53.9151C52.3365 53.8122 52.1012 53.6865 51.8793 53.5434C51.6574 53.4004 51.4355 53.2573 51.2657 53.1543C51.1866 53.099 51.1152 53.0551 51.0708 53.0265C51.0264 52.9979 51.0013 52.973 51.0013 52.973C50.6249 52.7 50.4648 52.2393 50.6263 51.8711C50.6263 51.8711 50.767 51.5588 50.9058 51.2562C51.0542 50.9554 51.1949 50.6431 51.1949 50.6431C51.3452 50.3327 51.4377 50.0111 51.4688 49.6974C51.4891 49.5416 51.5017 49.3742 51.4913 49.2223C51.4923 49.0627 51.4742 48.8993 51.4541 48.7456C51.4245 48.59 51.3948 48.4343 51.3422 48.2942C51.2914 48.1445 51.2387 48.0044 51.1668 47.8605C51.1045 47.7185 51.0192 47.5921 50.934 47.4656C50.8391 47.3372 50.7404 47.2281 50.634 47.1075L50.6166 47.0942L50.5992 47.0808C50.1584 46.6254 49.5935 46.3457 48.9774 46.2258C48.371 46.1079 47.6809 46.1634 47.067 46.4435C47.067 46.4435 46.76 46.5836 46.455 46.7141C46.1499 46.8445 45.8333 46.9827 45.8333 46.9827C45.6472 47.0664 45.4375 47.0656 45.241 46.9974C45.1485 46.9594 45.0483 46.9099 44.9614 46.8431C44.8745 46.7762 44.801 46.692 44.7408 46.5904C44.7408 46.5904 44.6729 46.4773 44.5644 46.3163C44.4577 46.1457 44.3104 45.9272 44.1842 45.7029C44.0484 45.4767 43.9241 45.2427 43.8271 45.074C43.7728 44.9935 43.7378 44.9168 43.7183 44.863C43.6891 44.8074 43.6736 44.7844 43.6736 44.7844C43.4638 44.3739 43.5285 43.8871 43.8561 43.6411C43.8561 43.6411 44.1262 43.4339 44.3866 43.2249C44.6567 43.0177 44.9249 42.8201 44.9249 42.8201C45.195 42.6129 45.4321 42.3694 45.6135 42.1049C45.7089 41.9737 45.7851 41.8387 45.8536 41.6921C45.9317 41.5475 45.9905 41.3991 46.0397 41.2488C46.2347 40.6574 46.2583 40.0227 46.0763 39.4179L46.0704 39.3967L46.0645 39.3756C45.9745 39.0684 45.8288 38.7903 45.6582 38.5373C45.5729 38.4109 45.4761 38.2921 45.3679 38.1812C45.3099 38.1199 45.2596 38.0702 45.1997 38.0186C45.1398 37.967 45.0799 37.9154 45.02 37.8638C44.5372 37.4701 43.8993 37.2062 43.2279 37.1655C43.2279 37.1655 42.8931 37.1403 42.5565 37.1247C42.2218 37.0996 41.887 37.0744 41.887 37.0744C41.6811 37.0543 41.4999 36.9591 41.3587 36.8118C41.2833 36.7372 41.2309 36.6471 41.1804 36.5473C41.1395 36.4495 41.112 36.3342 41.1037 36.2227C41.1037 36.2227 41.0895 36.0901 41.077 35.8979C41.0644 35.7056 41.0361 35.4404 41.0271 35.1789C41.018 34.9174 41.0089 34.6559 40.9983 34.454C40.9977 34.354 40.9935 34.2733 40.9951 34.2137C40.9967 34.154 40.9927 34.1233 40.9927 34.1233C41.0037 33.6559 41.2901 33.2621 41.6821 33.1985C41.6821 33.1985 41.7647 33.1846 41.8895 33.1589C42.0144 33.1333 42.1797 33.1055 42.3449 33.0777C42.6754 33.0221 43.0155 32.9684 43.0155 32.9684C43.3556 32.9147 43.6666 32.8054 43.9543 32.6616C44.2439 32.5081 44.4891 32.3261 44.7225 32.1018C44.9541 31.8871 45.1431 31.6342 45.2859 31.3623C45.448 31.0941 45.5542 30.8051 45.6064 30.4856L45.6101 30.4663L45.6138 30.4471C45.6834 30.1409 45.6952 29.8235 45.6455 29.5142C45.615 29.2086 45.5327 28.9128 45.4004 28.6174C45.2662 28.3315 45.109 28.0612 44.8981 27.8104C44.6871 27.5596 44.4398 27.3416 44.1428 27.174C44.1428 27.174 43.8573 26.9985 43.5621 26.8212C43.4193 26.7335 43.2766 26.6458 43.1704 26.5752C43.0643 26.5046 42.9929 26.4607 42.9929 26.4607C42.6552 26.2452 42.5277 25.7709 42.7005 25.345C42.7005 25.345 42.7157 25.3179 42.7366 25.2621C42.7575 25.2062 42.7917 25.1329 42.8297 25.0404C42.9153 24.8573 43.0217 24.6183 43.1281 24.3792C43.2346 24.1402 43.3603 23.9049 43.444 23.7314C43.5277 23.5579 43.5905 23.4403 43.5905 23.4403C43.64 23.34 43.7087 23.2435 43.7833 23.1681C43.8676 23.0946 43.9499 23.0307 44.0478 22.9898C44.2339 22.9061 44.4395 22.8762 44.636 22.9444C44.636 22.9444 44.9558 23.0465 45.2756 23.1487C45.5953 23.2509 45.9132 23.3627 45.9132 23.3627C46.5509 23.5767 47.2413 23.5711 47.8365 23.3872C47.9113 23.3618 47.9862 23.3364 48.0611 23.311C48.1359 23.2856 48.2108 23.2603 48.2779 23.2234C48.4199 23.1611 48.5541 23.0873 48.6806 23.002C48.9336 22.8315 49.1729 22.6283 49.3716 22.3772L49.3849 22.3598L49.3983 22.3425C49.7938 21.85 50.0099 21.2527 50.0509 20.6313C50.0616 20.4736 50.0627 20.314 50.0445 20.1506C50.036 19.9891 50.016 19.8353 49.9767 19.6779C49.9077 19.3647 49.7888 19.0519 49.6064 18.7567C49.6064 18.7567 49.4338 18.4634 49.2592 18.1797C49.0865 17.8863 48.9234 17.5949 48.9234 17.5949C48.712 17.2441 48.8345 16.7684 49.1829 16.4666C49.1829 16.4666 49.2078 16.4414 49.2537 16.4104C49.3016 16.3698 49.361 16.3214 49.4337 16.2556C49.5869 16.1356 49.7976 15.9768 50.0006 15.8065C50.2035 15.6362 50.422 15.4889 50.583 15.3804C50.7458 15.2622 50.8493 15.1924 50.8493 15.1924C50.9432 15.1208 51.0429 15.0703 51.1485 15.0409C51.2541 15.0115 51.356 15.0013 51.4656 15.0027C51.6734 15.0131 51.868 15.0909 52.0092 15.2383C52.0092 15.2383 52.2431 15.4736 52.4848 15.7204C52.7169 15.9653 52.9508 16.2007 52.9508 16.2007C53.4168 16.6809 54.0338 17.0008 54.6402 17.1187C55.2544 17.2482 55.8849 17.1911 56.4643 16.9342L56.4854 16.9283L56.5065 16.9224C56.6504 16.8505 56.7924 16.7882 56.9189 16.7029C57.0453 16.6177 57.1737 16.5227 57.2828 16.4241C57.3938 16.3158 57.5047 16.2075 57.608 16.0878C57.7112 15.968 57.7951 15.8445 57.881 15.7113C57.9572 15.5763 58.0353 15.4317 58.0941 15.2833C58.1626 15.1368 58.2118 14.9865 58.2514 14.8344C58.3324 14.5205 58.3769 14.1895 58.352 13.855C58.352 13.855 58.3272 13.5205 58.3139 13.1783C58.3005 12.836 58.2853 12.5034 58.2853 12.5034C58.264 12.0996 58.5851 11.7326 59.0461 11.6225C59.0461 11.6225 59.0768 11.6185 59.1306 11.5989C59.1825 11.5891 59.267 11.5655 59.3592 11.5535C59.5552 11.5217 59.8146 11.4723 60.0739 11.4228C60.3333 11.3734 60.5889 11.3432 60.7945 11.3133C60.9886 11.2911 61.1231 11.2673 61.1231 11.2673C61.2365 11.2494 61.3557 11.2527 61.4616 11.2732C61.5675 11.2938 61.6696 11.3337 61.7584 11.3909C61.9378 11.4958 62.0771 11.6527 62.1281 11.8525C62.1281 11.8525 62.226 12.1712 62.3219 12.4995C62.4197 12.8182 62.5061 13.1447 62.5061 13.1447C62.6902 13.7899 63.0894 14.3571 63.5741 14.7411C63.634 14.7927 63.6957 14.8347 63.7575 14.8767C63.8192 14.9186 63.8906 14.9625 63.9524 15.0045C64.0855 15.0903 64.2224 15.1569 64.3708 15.2157C64.4459 15.2404 64.5096 15.2727 64.5866 15.2877C64.6617 15.3123 64.7387 15.3273 64.8138 15.3519C64.966 15.3915 65.1218 15.4118 65.2796 15.4225L65.2988 15.4263L65.3181 15.43C65.6355 15.4418 65.947 15.4325 66.2427 15.3502C66.3906 15.309 66.5403 15.2582 66.6823 15.1959C66.8224 15.1433 66.9662 15.0714 67.1023 14.988C67.3727 14.8308 67.6235 14.6198 67.8396 14.3822C68.0556 14.1445 68.2484 13.8723 68.3795 13.5582C68.3795 13.5582 68.5183 13.2555 68.659 12.9432C68.7978 12.6406 68.948 12.3302 68.948 12.3302C69.0336 12.147 69.1906 12.0077 69.3863 11.9259C69.582 11.8441 69.8032 11.8372 70.0304 11.9014C70.0304 11.9014 70.1537 11.9354 70.3425 11.9921C70.4368 12.0204 70.5505 12.0525 70.6641 12.0846C70.7759 12.1263 70.9087 12.1622 71.0301 12.2058C71.2844 12.2852 71.5272 12.3724 71.7159 12.4291C71.9028 12.4954 72.0223 12.5487 72.0223 12.5487C72.2362 12.6302 72.4177 12.7754 72.5244 12.946C72.5768 13.0361 72.6196 13.1244 72.6412 13.2185C72.661 13.3222 72.6615 13.4222 72.6428 13.5185C72.6428 13.5185 72.5791 13.8458 72.5136 14.1826C72.4499 14.5099 72.3844 14.8468 72.3844 14.8468C72.3188 15.1837 72.3052 15.5107 72.3415 15.8374C72.3597 16.0008 72.3893 16.1564 72.4305 16.3043C72.4698 16.4618 72.5206 16.6115 72.5828 16.7535C72.8301 17.331 73.2346 17.8193 73.7691 18.153L73.7864 18.1664L73.8038 18.1798C74.3479 18.5154 74.9602 18.6545 75.5869 18.6166C75.8984 18.6073 76.2115 18.5383 76.5225 18.429C76.6741 18.3686 76.8257 18.3082 76.9714 18.2266C77.1171 18.1451 77.2532 18.0617 77.395 17.9494C77.395 17.9494 77.665 17.7422 77.9255 17.5332C78.1956 17.326 78.4638 17.1284 78.4638 17.1284C78.6266 17.0102 78.8263 16.9592 79.0322 16.9793C79.14 16.9902 79.244 17.0205 79.3365 17.0584C79.4367 17.1079 79.5255 17.1651 79.6086 17.2512C79.6086 17.2512 79.7014 17.3392 79.8444 17.4769C79.9875 17.6146 80.1826 17.7925 80.3548 17.9858C80.5366 18.181 80.7203 18.3666 80.8518 18.5121C80.9176 18.5848 80.9756 18.646 81.0162 18.6939C81.0569 18.7418 81.0724 18.7647 81.0724 18.7647C81.3742 19.1132 81.4191 19.6014 81.1669 19.922C81.1669 19.922 80.9549 20.1904 80.7447 20.4492C80.5345 20.708 80.3128 20.9745 80.3128 20.9745C80.093 21.2315 79.9349 21.5304 79.8173 21.8271C79.7584 21.9755 79.7188 22.1277 79.6774 22.2894C79.6378 22.4416 79.6156 22.6071 79.6049 22.7648C79.5639 23.3862 79.6826 24.0087 80.0066 24.5512L80.0124 24.5723L80.0183 24.5934C80.1736 24.8734 80.3883 25.105 80.6086 25.3077C80.7188 25.409 80.85 25.5045 80.9832 25.5903C81.0449 25.6323 81.1182 25.6665 81.1896 25.7104C81.2628 25.7446 81.3246 25.7866 81.3979 25.8208C81.9569 26.0795 82.6459 26.1835 83.2991 26.0609C83.2991 26.0609 83.6296 26.0053 83.962 25.9401C84.2925 25.8845 84.6229 25.8289 84.6229 25.8289C84.8189 25.7971 85.0288 25.848 85.1967 25.9605C85.2855 26.0178 85.3609 26.0924 85.4344 26.1766C85.4983 26.259 85.5488 26.3587 85.586 26.4758C85.586 26.4758 85.6309 26.6044 85.6953 26.7868C85.7266 26.8828 85.7656 26.9903 85.8027 27.1074C85.8399 27.2245 85.8752 27.3512 85.9105 27.478C85.981 27.7315 86.0516 27.9849 86.1141 28.1769C86.1454 28.2729 86.1593 28.3555 86.1692 28.4074C86.1791 28.4593 86.1927 28.4919 86.1927 28.4919C86.3047 28.9432 86.1167 29.3962 85.7445 29.5635C85.7445 29.5635 85.4375 29.7036 85.1228 29.8321C84.8177 29.9626 84.5011 30.1008 84.5011 30.1008C84.1864 30.2294 83.9105 30.4154 83.6693 30.6282C83.5487 30.7346 83.4358 30.8525 83.3326 30.9723C83.2294 31.0921 83.1339 31.2234 83.0481 31.3565C82.9622 31.4897 82.8956 31.6265 82.8272 31.7731C82.7929 31.8463 82.7702 31.9118 82.7456 31.987C82.721 32.0621 82.6964 32.1372 82.6718 32.2123C82.6322 32.3645 82.6022 32.5185 82.5838 32.6647C82.5634 32.8206 82.5738 32.9725 82.5728 33.1321L82.5749 33.1725C82.5834 33.334 82.6035 33.4877 82.635 33.6337C82.6508 33.7067 82.6762 33.7816 82.7016 33.8564C82.727 33.9313 82.7427 34.0043 82.7681 34.0792C82.8716 34.369 83.0384 34.6412 83.2301 34.8883C83.6038 35.3806 84.154 35.7873 84.8032 35.9935C84.8032 35.9935 85.123 36.0957 85.4427 36.1979C85.7625 36.3 86.0804 36.4118 86.0804 36.4118C86.2673 36.4782 86.4296 36.6196 86.5247 36.798C86.5771 36.8881 86.6084 36.9841 86.6359 37.0993C86.6557 37.2031 86.6621 37.3242 86.6415 37.4301C86.6415 37.4301 86.55 37.9517 86.47 38.4656C86.3593 38.9835 86.2408 39.4899 86.2408 39.4899C86.2183 39.6054 86.1688 39.7057 86.1116 39.7944C86.0544 39.8832 85.9779 39.9682 85.8955 40.0321C85.7308 40.1599 85.537 40.2321 85.3388 40.2235C85.3388 40.2235 85.0041 40.1983 84.6675 40.1828C84.3327 40.1576 83.998 40.1324 83.998 40.1324C83.3188 40.0802 82.6562 40.251 82.1252 40.5673C81.8549 40.7245 81.5982 40.9143 81.3936 41.1442C81.342 41.2041 81.2904 41.264 81.2484 41.3257C81.1968 41.3856 81.1548 41.4474 81.1032 41.5073C81.0174 41.6404 80.9411 41.7754 80.8745 41.9123L80.8574 41.9489C80.7986 42.0973 80.7398 42.2457 80.6924 42.3864C80.6528 42.5385 80.6247 42.6829 80.6044 42.8387C80.599 42.9176 80.5937 42.9965 80.5883 43.0754C80.583 43.1542 80.5795 43.2235 80.5838 43.3042C80.5846 43.4542 80.6027 43.6176 80.6324 43.7732C80.662 43.9288 80.7013 44.0863 80.7521 44.2361C80.8029 44.3858 80.8633 44.5374 80.9352 44.6813C81.079 44.969 81.2747 45.2468 81.5087 45.4821C81.5087 45.4821 81.7522 45.7193 81.9843 45.9642C82.2163 46.2092 82.4599 46.4464 82.4599 46.4464C82.7422 46.7411 82.7486 47.2218 82.4737 47.6079C82.4737 47.6079 82.4584 47.6349 82.4202 47.6774C82.382 47.7199 82.3381 47.7913 82.2827 47.8704C82.1624 48.0268 82.002 48.2353 81.8319 48.442C81.7517 48.5463 81.6714 48.6505 81.5931 48.7452C81.5147 48.8398 81.4383 48.9248 81.3733 49.0021C81.2452 49.147 81.1553 49.2494 81.1553 49.2494C81.0789 49.3344 80.9946 49.408 80.9026 49.47C80.8125 49.5224 80.7051 49.5614 80.6013 49.5812C80.3938 49.6207 80.1898 49.591 80.02 49.4881C80.02 49.4881 79.7345 49.3126 79.449 49.1372C79.1634 48.9618 78.8797 48.7767 78.8797 48.7767C78.3105 48.4162 77.6424 48.2563 77.0253 48.2961C76.9445 48.3003 76.8734 48.3065 76.7908 48.3204C76.71 48.3246 76.637 48.3404 76.5544 48.3543C76.3988 48.384 76.2509 48.4251 76.1012 48.4759C75.8191 48.5909 75.5351 48.7154 75.2862 48.9167L75.2728 48.9341L75.2595 48.9515C74.7557 49.333 74.4027 49.8637 74.2173 50.457C74.1681 50.6072 74.1382 50.7612 74.1063 50.9249C74.0764 51.0789 74.0657 51.2366 74.0627 51.4059C74.0605 51.7251 74.095 52.0615 74.2024 52.3821C74.2024 52.3821 74.3003 52.7008 74.4058 53.031C74.5018 53.3594 74.5996 53.6781 74.5996 53.6781C74.7132 54.0698 74.4904 54.496 74.0781 54.7155C74.0781 54.7155 74.0455 54.7291 73.9995 54.7601C73.9439 54.7892 73.8768 54.8261 73.7789 54.867C73.6024 54.9526 73.3626 55.0558 73.1209 55.1686C72.8792 55.2814 72.6316 55.3731 72.457 55.449C72.2727 55.523 72.1537 55.5698 72.1537 55.5698C72.0462 55.6088 71.9406 55.6382 71.8291 55.6465C71.7195 55.6452 71.6118 55.6342 71.5174 55.6058C71.319 55.5473 71.153 55.4251 71.0463 55.2545C71.0463 55.2545 70.8736 54.9611 70.699 54.6774C70.536 54.386 70.3633 54.0926 70.3633 54.0926C70.2817 53.9469 70.1791 53.8071 70.0745 53.6768C69.97 53.5466 69.854 53.4241 69.7342 53.3209C69.4869 53.103 69.2206 52.9313 68.9372 52.7962C68.3704 52.5261 67.7506 52.4255 67.1204 52.5327L67.0782 52.5445C66.448 52.6516 65.8995 52.9545 65.4538 53.3972C65.3428 53.5055 65.2396 53.6253 65.1441 53.7565C65.0486 53.8878 64.9647 54.0113 64.8866 54.156C64.7323 54.4356 64.6109 54.7517 64.5549 55.0904C64.5549 55.0904 64.4913 55.4177 64.4257 55.7546C64.3621 56.0818 64.2965 56.4187 64.2965 56.4187C64.2778 56.515 64.2398 56.6075 64.1826 56.6962C64.1272 56.7754 64.0526 56.8508 63.9721 56.905C63.8299 56.9173 63.6072 56.9839 63.3783 56.9793ZM66.0515 47.0901C66.0822 47.0861 66.113 47.0821 66.1341 47.0762C66.1763 47.0645 66.2071 47.0605 66.2071 47.0605C66.2071 47.0605 66.3108 47.0407 66.4761 47.0129C66.5587 46.999 66.6721 46.9811 66.7873 46.9536C66.9025 46.9261 67.0389 46.8926 67.1849 46.8611C67.3309 46.8296 67.4903 46.7807 67.6496 46.7317C67.7341 46.7082 67.8186 46.6847 67.9031 46.6612C67.9876 46.6377 68.074 46.6045 68.1603 46.5714C68.3331 46.5051 68.5232 46.4522 68.7074 46.3781C68.7938 46.345 68.8916 46.3041 68.978 46.2709L69.1181 46.2183L69.2505 46.1541C69.9815 45.8368 70.6871 45.4446 71.1816 45.1113C71.239 45.0725 71.3062 45.0356 71.3637 44.9969C71.4211 44.9581 71.469 44.9175 71.5246 44.8883C71.6281 44.8185 71.7105 44.7547 71.7794 44.7081C71.8139 44.6849 71.8484 44.6616 71.8733 44.6365C71.8982 44.6114 71.9212 44.5959 71.9442 44.5803C71.9805 44.5475 72.0017 44.5416 72.0017 44.5416C72.0017 44.5416 72.084 44.4777 72.2142 44.3732C72.3541 44.2705 72.5378 44.0965 72.7656 43.901C73.2135 43.4987 73.7836 42.9303 74.2746 42.3065C74.7752 41.6847 75.2159 41.0112 75.4978 40.4866C75.5301 40.423 75.5721 40.3612 75.6045 40.2976C75.6368 40.234 75.6673 40.18 75.6882 40.1241C75.7395 40.0142 75.7871 39.9236 75.8328 39.8426C75.8671 39.7693 75.8994 39.7057 75.9184 39.6594C75.9374 39.6132 75.9508 39.5958 75.9508 39.5958C75.9508 39.5958 75.9888 39.5033 76.0591 39.3471C76.0762 39.3105 76.0952 39.2643 76.1142 39.218C76.1332 39.1717 76.1637 39.1177 76.1749 39.06C76.2166 38.9482 76.2717 38.8191 76.3191 38.6785C76.3437 38.6033 76.376 38.5397 76.4006 38.4646C76.4252 38.3894 76.4517 38.3047 76.4763 38.2295C76.5274 38.0697 76.5919 37.8924 76.6371 37.7114C76.6654 37.617 76.6823 37.5304 76.7106 37.436C76.739 37.3416 76.7673 37.2472 76.7861 37.151C76.8235 36.9585 76.8725 36.7582 76.9195 36.5676C76.957 36.3751 76.9867 36.1711 77.0145 35.9767C77.0332 35.8804 77.0423 35.7823 77.0514 35.6842C77.0605 35.5861 77.0696 35.4879 77.0865 35.4013C77.1124 35.2166 77.1173 35.0377 77.1317 34.8607C77.139 34.7722 77.1443 34.6933 77.1497 34.6144C77.155 34.5355 77.1508 34.4548 77.1561 34.3759C77.1553 34.2259 77.1623 34.0874 77.1655 33.9682C77.1671 33.9086 77.1687 33.8489 77.1685 33.7989C77.1682 33.7489 77.168 33.6989 77.1658 33.6586C77.1591 33.4874 77.1586 33.3874 77.1586 33.3874C77.1586 33.3874 77.1546 33.3567 77.1525 33.3163C77.1522 33.2663 77.1442 33.2048 77.1418 33.1144C77.1394 33.0241 77.1293 32.9222 77.1132 32.7992C77.1052 32.7377 77.1068 32.6781 77.1007 32.607C77.0945 32.5358 77.0788 32.4628 77.0726 32.3917C77.008 31.7997 76.8519 31.0102 76.621 30.246C76.3901 29.4818 76.0842 28.743 75.8199 28.2021C75.6819 27.9355 75.575 27.7149 75.4838 27.5673C75.3946 27.4101 75.3499 27.3314 75.3499 27.3314C75.3499 27.3314 75.3344 27.3084 75.3111 27.2739C75.2956 27.251 75.2898 27.2298 75.2665 27.1953C75.251 27.1723 75.2277 27.1378 75.2064 27.0937C75.1617 27.0151 75.0978 26.9328 75.0377 26.8311C75.0085 26.7755 74.9679 26.7277 74.9291 26.6702C74.8904 26.6127 74.8516 26.5552 74.8032 26.4958C74.4698 26.0014 73.9627 25.3733 73.4039 24.8051L73.3053 24.696L73.1951 24.5946C73.1179 24.5296 73.0521 24.4569 72.9845 24.3938C72.8414 24.2561 72.6947 24.1376 72.5498 24.0095C72.4821 23.9464 72.4145 23.8833 72.345 23.8298C72.2754 23.7763 72.2059 23.7229 72.1364 23.6694C71.9974 23.5624 71.8776 23.4592 71.7541 23.3752C71.6306 23.2913 71.5167 23.2092 71.4202 23.1404C71.3237 23.0717 71.2349 23.0145 71.1539 22.9688C71.0034 22.8695 70.9224 22.8238 70.9224 22.8238C70.9224 22.8238 70.905 22.8104 70.8606 22.7818C70.8432 22.7685 70.8162 22.7532 70.7892 22.738C70.7622 22.7227 70.7256 22.7056 70.6908 22.6789C70.6194 22.635 70.5192 22.5855 70.4208 22.5264C70.3668 22.496 70.3128 22.4655 70.2491 22.4331C70.1855 22.4008 70.1219 22.3684 70.0582 22.336C69.5337 22.0542 68.7955 21.7407 68.0346 21.4928C67.2736 21.2448 66.4862 21.0817 65.8953 20.9867C65.8183 20.9717 65.7491 20.9682 65.6817 20.9551C65.6143 20.942 65.5451 20.9385 65.4873 20.9273C65.3699 20.9144 65.2622 20.9035 65.1756 20.8866C65.0871 20.8794 65.0178 20.8759 64.9697 20.8665C64.9197 20.8668 64.9004 20.8631 64.9004 20.8631C64.9004 20.8631 64.8023 20.854 64.6253 20.8395C64.5849 20.8416 64.5368 20.8323 64.4772 20.8307C64.4272 20.8309 64.3676 20.8293 64.3079 20.8277C64.1887 20.8245 64.0483 20.8271 63.9002 20.8183C63.8309 20.8148 63.7502 20.8191 63.6694 20.8234C63.5887 20.8276 63.5079 20.8319 63.4176 20.8343C63.3272 20.8367 63.2464 20.841 63.1561 20.8434C63.0638 20.8554 62.9734 20.8578 62.8812 20.8698C62.6986 20.8842 62.5063 20.8968 62.3103 20.9286C62.2085 20.9387 62.1162 20.9507 62.0125 20.9705L61.8684 20.9924L61.7224 21.024C61.6283 21.0456 61.5264 21.0558 61.4323 21.0774C61.3381 21.0991 61.2363 21.1092 61.1403 21.1405C60.9521 21.1838 60.7638 21.2271 60.5756 21.2704C60.3951 21.3252 60.2261 21.3722 60.0571 21.4192C59.8978 21.4682 59.7461 21.5286 59.5983 21.5697C59.5234 21.5951 59.46 21.6128 59.3948 21.64C59.3296 21.6673 59.2758 21.6868 59.2106 21.7141C59.1012 21.7627 58.9937 21.8017 58.9189 21.8271C58.8325 21.8603 58.7769 21.8894 58.7327 21.9108C58.6886 21.9322 58.6675 21.9381 58.6675 21.9381C58.6675 21.9381 58.5793 21.9808 58.4162 22.049C58.3394 22.084 58.2416 22.1249 58.1303 22.1832C58.0191 22.2415 57.8982 22.2979 57.764 22.3717C57.2386 22.659 56.5484 23.0742 55.9144 23.5602C55.2804 24.0463 54.6852 24.5898 54.2894 25.0322C54.2397 25.0825 54.19 25.1328 54.1402 25.183C54.1001 25.2352 54.0504 25.2854 54.0121 25.3279C53.9338 25.4226 53.8592 25.498 53.8057 25.5675C53.7426 25.6351 53.7025 25.6873 53.6757 25.722C53.649 25.7568 53.6337 25.7838 53.6337 25.7838C53.6337 25.7838 53.5688 25.861 53.4618 26.0001C53.3452 26.1372 53.2155 26.3417 53.038 26.5869C53.0131 26.612 52.996 26.6487 52.9692 26.6834C52.9521 26.7201 52.9272 26.7452 52.9101 26.7818C52.8663 26.8532 52.8224 26.9246 52.7786 26.996C52.7347 27.0674 52.6812 27.1369 52.6355 27.2179C52.5898 27.2989 52.544 27.3799 52.4983 27.4609C52.4068 27.6229 52.3039 27.7927 52.2202 27.9662C52.1726 28.0569 52.1365 28.1397 52.0889 28.2304L52.0223 28.3673L51.9653 28.506C51.9273 28.5985 51.8797 28.6892 51.8418 28.7817C51.8038 28.8742 51.7562 28.9648 51.7278 29.0592C51.6519 29.2442 51.5874 29.4215 51.523 29.5988C51.4681 29.7779 51.4055 29.9455 51.3526 30.115C51.3355 30.1517 51.3261 30.1998 51.309 30.2364C51.3015 30.2749 51.2844 30.3115 51.275 30.3597C51.2504 30.4348 51.2354 30.5118 51.2108 30.5869C51.1862 30.6621 51.1731 30.7294 51.1504 30.795C51.1448 30.8238 51.1276 30.8605 51.122 30.8893C51.1164 30.9182 51.1089 30.9567 51.1033 30.9856C51.079 31.1107 51.0506 31.2051 51.0337 31.2917C50.9904 31.4631 50.9717 31.5594 50.9717 31.5594C50.9717 31.5594 50.953 31.6556 50.9289 31.8307C50.912 31.9174 50.8914 32.0233 50.8786 32.1406C50.873 32.1695 50.8673 32.1984 50.8599 32.2369C50.8542 32.2658 50.8468 32.3043 50.8508 32.335C50.8473 32.4043 50.8342 32.4716 50.8288 32.5505C50.8235 32.6294 50.8085 32.7064 50.8031 32.7853C50.7956 32.8238 50.7978 32.8641 50.7884 32.9123C50.7809 32.9508 50.783 32.9911 50.7833 33.0411C50.7707 33.2085 50.764 33.397 50.7477 33.5836C50.741 33.7721 50.7439 33.9625 50.7353 34.1606C50.7262 34.2588 50.7364 34.3606 50.7369 34.4606C50.7374 34.5606 50.7476 34.6625 50.7481 34.7625L50.7489 34.9125L50.7593 35.0644C50.7694 35.1663 50.7815 35.2585 50.782 35.3585C50.7945 35.5507 50.8263 35.7467 50.8504 35.9312C50.8624 36.0235 50.8744 36.1157 50.8865 36.208C50.8985 36.3002 50.922 36.3847 50.9359 36.4673C50.9498 36.5499 50.9637 36.6326 50.9776 36.7152C50.9893 36.7574 50.9915 36.7978 50.9955 36.8286C51.0072 36.8708 51.0113 36.9016 51.023 36.9438C51.0957 37.2377 51.1489 37.4778 51.1959 37.6467C51.243 37.8157 51.2742 37.9117 51.2742 37.9117C51.2742 37.9117 51.2801 37.9328 51.29 37.9847C51.3018 38.027 51.3194 38.0903 51.3526 38.1767C51.3761 38.2612 51.417 38.3591 51.4541 38.4762C51.4736 38.5299 51.4913 38.5933 51.5185 38.6585C51.5362 38.7219 51.5731 38.789 51.5985 38.8639C51.8091 39.4243 52.1475 40.1495 52.5531 40.8378C52.9586 41.526 53.4428 42.1697 53.8221 42.6331C53.9189 42.7518 54.0098 42.8494 54.0911 42.9451C54.1723 43.0408 54.2477 43.1154 54.3058 43.1767C54.4314 43.301 54.4972 43.3738 54.4972 43.3738C54.4972 43.3738 54.5127 43.3968 54.5474 43.4235C54.5803 43.4599 54.6306 43.5096 54.6905 43.5612C54.7485 43.6224 54.8335 43.6989 54.9185 43.7754C54.961 43.8136 55.0113 43.8634 55.0616 43.9131C55.1137 43.9532 55.1639 44.003 55.2238 44.0546C55.3359 44.1463 55.4538 44.2591 55.5928 44.3661C55.7318 44.4731 55.8708 44.58 56.0176 44.6985C56.1663 44.8073 56.3245 44.918 56.4924 45.0306C56.5716 45.086 56.6603 45.1432 56.7395 45.1986C56.8186 45.2539 56.9092 45.3015 56.9884 45.3569L57.1119 45.4408L57.2373 45.5152C57.3279 45.5628 57.4089 45.6085 57.4977 45.6658C57.6675 45.7687 57.841 45.8524 58.0049 45.9342C58.0859 45.98 58.1688 46.0161 58.2498 46.0618C58.3327 46.0979 58.4156 46.134 58.4888 46.1683C58.5717 46.2044 58.645 46.2386 58.7182 46.2728C58.7915 46.307 58.8647 46.3413 58.9302 46.364C59.069 46.421 59.2 46.4664 59.3118 46.5082C59.3676 46.529 59.4235 46.5499 59.4698 46.5689C59.516 46.5879 59.5642 46.5972 59.6104 46.6162C59.7799 46.6692 59.8743 46.6975 59.8743 46.6975C59.8743 46.6975 59.8936 46.7013 59.9398 46.7203C59.9879 46.7296 60.0516 46.762 60.1382 46.7788C60.223 46.8053 60.327 46.8355 60.4425 46.858C60.5002 46.8692 60.5657 46.892 60.6312 46.9147C60.6967 46.9374 60.7641 46.9506 60.8411 46.9655C61.4226 47.1086 62.2157 47.243 63.0141 47.2984C63.8124 47.3538 64.6143 47.34 65.2063 47.2753C65.2774 47.2692 65.3485 47.2631 65.4196 47.2569C65.4908 47.2508 65.5523 47.2428 65.6138 47.2347C65.7368 47.2187 65.8386 47.2086 65.9212 47.1947C65.9785 47.1059 66.0188 47.1038 66.0515 47.0901Z" fill="white"/>
<path d="M32.8255 63.8818C32.8255 63.8818 33.1619 63.8474 33.5042 63.834C33.8386 63.8092 34.1809 63.7959 34.1809 63.7959C34.5231 63.7825 34.8477 63.7058 35.1491 63.5946C35.46 63.4853 35.7381 63.3396 35.993 63.1594C36.5007 62.8087 36.8869 62.3643 37.1147 61.8093L37.1185 61.79L37.1222 61.7708C37.3482 61.2254 37.3932 60.6347 37.2823 60.0238C37.2307 59.724 37.1407 59.4168 36.9968 59.1291C36.8645 58.8336 36.6881 58.5596 36.4579 58.305C36.4579 58.305 36.2258 58.0601 36.0072 57.7977C35.7866 57.545 35.5679 57.2827 35.5679 57.2827C35.4382 57.1276 35.3776 56.926 35.3995 56.7105C35.4215 56.495 35.5049 56.2715 35.6712 56.0841C35.6712 56.0841 35.7611 55.9817 35.9025 55.8194C35.9675 55.7421 36.0555 55.6494 36.1435 55.5566C36.2315 55.4638 36.3309 55.3633 36.4304 55.2628C36.6293 55.0617 36.836 54.8722 36.993 54.7329C37.0676 54.6575 37.1366 54.611 37.1845 54.5703C37.2323 54.5297 37.2572 54.5046 37.2572 54.5046C37.4487 54.342 37.6674 54.2447 37.8789 54.2359C38.0923 54.2175 38.3003 54.278 38.4548 54.4079C38.4548 54.4079 38.7117 54.6277 38.9686 54.8475C39.2256 55.0673 39.471 55.2949 39.471 55.2949C39.7261 55.5243 40.0001 55.7075 40.2931 55.8445C40.5862 55.9814 40.8963 56.0817 41.1869 56.1282C41.7933 56.2462 42.3834 56.1912 42.9361 55.9691L42.9573 55.9632L42.9784 55.9573C43.5311 55.7352 43.9752 55.3521 44.3245 54.8406C44.502 54.5954 44.6486 54.3043 44.7566 54.0056C44.8647 53.707 44.938 53.3816 44.9554 53.0353C44.9554 53.0353 44.9709 52.6987 44.9961 52.364C45.0213 52.0292 45.0464 51.6945 45.0464 51.6945C45.0665 51.4886 45.1713 51.3092 45.3302 51.1603C45.489 51.0113 45.7155 50.9255 45.9596 50.9031C45.9596 50.9031 45.9904 50.8991 46.0519 50.8911C46.1133 50.8831 46.2037 50.8807 46.3056 50.8705C46.5171 50.8617 46.7997 50.8468 47.0786 50.8511C47.2171 50.8581 47.3575 50.8554 47.4863 50.8605C47.6152 50.8656 47.7441 50.8707 47.8441 50.8702C48.0518 50.8806 48.2 50.8894 48.2 50.8894C48.4462 50.9074 48.6679 51.0004 48.8301 51.1419C48.9924 51.2834 49.0972 51.4636 49.1175 51.6673C49.1175 51.6673 49.152 52.0037 49.1653 52.3459C49.1901 52.6804 49.2035 53.0227 49.2035 53.0227C49.2168 53.3649 49.2935 53.6895 49.4047 53.9909C49.514 54.3018 49.6597 54.5799 49.8303 54.8329C50.181 55.3407 50.6254 55.7268 51.1804 55.9547L51.1997 55.9584L51.2189 55.9621C51.7643 56.1881 52.355 56.2331 52.9659 56.1222C53.2657 56.0706 53.5633 55.9787 53.8606 55.8368C54.1561 55.7044 54.4302 55.528 54.6847 55.2978C54.6847 55.2978 54.9297 55.0657 55.192 54.8471C55.4447 54.6265 55.707 54.4078 55.707 54.4078C55.8621 54.2782 56.0637 54.2175 56.2792 54.2394C56.4947 54.2614 56.7182 54.3448 56.9056 54.5111C56.9056 54.5111 57.008 54.601 57.1703 54.7425C57.2476 54.8074 57.3403 54.8954 57.4331 54.9834C57.5259 55.0714 57.6264 55.1708 57.7269 55.2703C57.928 55.4693 58.1175 55.676 58.2568 55.8329C58.3322 55.9075 58.3787 55.9765 58.4194 56.0244C58.46 56.0722 58.4851 56.0971 58.4851 56.0971C58.6477 56.2886 58.745 56.5073 58.7538 56.7188C58.7722 56.9322 58.7118 57.1402 58.5818 57.2947C58.5818 57.2947 58.362 57.5516 58.1422 57.8086C57.9224 58.0655 57.6948 58.3109 57.6948 58.3109C57.4654 58.566 57.2822 58.84 57.1453 59.133C57.0083 59.4261 56.908 59.7362 56.8615 60.0269C56.7435 60.6333 56.7985 61.2234 57.0207 61.776L57.0265 61.7972L57.0324 61.8183C57.2545 62.371 57.6377 62.8151 58.1491 63.1644C58.3943 63.3419 58.6854 63.4885 58.9841 63.5965C59.2827 63.7046 59.6081 63.7779 59.9544 63.7953C59.9544 63.7953 60.291 63.8108 60.6257 63.836C60.9605 63.8612 61.2953 63.8864 61.2953 63.8864C61.5011 63.9064 61.6805 64.0113 61.8198 64.1682C61.9687 64.3271 62.0545 64.5535 62.077 64.7976C62.077 64.7976 62.081 64.8284 62.0871 64.8995C62.0951 64.961 62.0975 65.0514 62.1077 65.1533C62.1165 65.3648 62.1314 65.6474 62.1271 65.9263C62.1202 66.0648 62.1228 66.2051 62.1177 66.334C62.1126 66.4629 62.1075 66.5918 62.1081 66.6917C62.0976 66.8995 62.0791 67.0458 62.0791 67.0458C62.0708 67.2939 61.9681 67.5136 61.8267 67.6759C61.6852 67.8382 61.505 67.943 61.3013 67.9633C61.3013 67.9633 60.9649 67.9978 60.6226 68.0111C60.2882 68.0359 59.9459 68.0493 59.9459 68.0493C59.6037 68.0626 59.2791 68.1393 58.9777 68.2505C58.6668 68.3598 58.3887 68.5055 58.1338 68.6857C57.6261 69.0364 57.2399 69.4808 57.0121 70.0358L57.0083 70.0551L57.0046 70.0743C56.7786 70.6198 56.7336 71.2104 56.8445 71.8214C56.8961 72.1211 56.988 72.4187 57.13 72.716C57.2623 73.0115 57.4387 73.2856 57.6689 73.5401C57.6689 73.5401 57.901 73.7851 58.1197 74.0474C58.3402 74.3001 58.5589 74.5624 58.5589 74.5624C58.6886 74.7175 58.7492 74.9191 58.7273 75.1346C58.7053 75.3501 58.6219 75.5736 58.4556 75.7611C58.4556 75.7611 58.3657 75.8634 58.2243 76.0257C58.1593 76.103 58.0713 76.1958 57.9833 76.2885C57.8953 76.3813 57.7959 76.4818 57.6964 76.5824C57.4975 76.7834 57.2907 76.973 57.1338 77.1122C57.0592 77.1876 56.9902 77.2341 56.9423 77.2748C56.8945 77.3154 56.8696 77.3405 56.8696 77.3405C56.6781 77.5031 56.4594 77.6004 56.2383 77.6073C56.0249 77.6257 55.8169 77.5653 55.6624 77.4353C55.6624 77.4353 55.4055 77.2155 55.1485 76.9957C54.8916 76.7759 54.6462 76.5483 54.6462 76.5483C54.3911 76.3189 54.1171 76.1357 53.824 75.9988C53.531 75.8619 53.2209 75.7616 52.9302 75.715C52.3238 75.5971 51.7337 75.6521 51.181 75.8742L51.1599 75.8801L51.1388 75.886C50.5861 76.1081 50.1401 76.5008 49.7927 77.0027C49.6151 77.2478 49.4686 77.539 49.3605 77.8376C49.2525 78.1363 49.1792 78.4617 49.1618 78.8079C49.1618 78.8079 49.1462 79.1446 49.1211 79.4793C49.0959 79.8141 49.0707 80.1488 49.0707 80.1488C49.0507 80.3547 48.9458 80.5341 48.7889 80.6734C48.63 80.8223 48.4036 80.9081 48.1594 80.9305C48.1594 80.9305 48.1287 80.9345 48.0576 80.9407C47.9961 80.9487 47.9057 80.9511 47.8038 80.9612C47.5923 80.97 47.3097 80.985 47.0308 80.9807C46.8923 80.9737 46.752 80.9764 46.6231 80.9713C46.4942 80.9662 46.3653 80.9611 46.2653 80.9616C46.0576 80.9512 45.9095 80.9423 45.9095 80.9423C45.6632 80.9244 45.4416 80.8313 45.2793 80.6899C45.117 80.5484 45.0122 80.3682 44.9919 80.1644C44.9919 80.1644 44.9575 79.8281 44.9441 79.4858C44.9193 79.1513 44.906 78.8091 44.906 78.8091C44.8926 78.4669 44.8159 78.1422 44.7047 77.8409C44.5954 77.5299 44.4497 77.2518 44.2695 76.997C43.9188 76.4892 43.4744 76.1031 42.9194 75.8752L42.9001 75.8715L42.8809 75.8677C42.3355 75.6418 41.7448 75.5968 41.1339 75.7077C40.8341 75.7592 40.5269 75.8493 40.2392 75.9931C39.9437 76.1255 39.6696 76.3019 39.4151 76.5321C39.4151 76.5321 39.1701 76.7641 38.9078 76.9828C38.6551 77.2034 38.3928 77.4221 38.3928 77.4221C38.2377 77.5517 38.0361 77.6124 37.8206 77.5905C37.6051 77.5685 37.3816 77.4851 37.1942 77.3187C37.1942 77.3187 37.0918 77.2289 36.9295 77.0874C36.8522 77.0225 36.7595 76.9345 36.6667 76.8465C36.5739 76.7585 36.4734 76.6591 36.3729 76.5596C36.1718 76.3606 35.9823 76.1539 35.843 75.997C35.7676 75.9224 35.7114 75.8515 35.6804 75.8055C35.6398 75.7576 35.6147 75.7328 35.6147 75.7328C35.4521 75.5413 35.3548 75.3226 35.3479 75.1015C35.3295 74.8881 35.3899 74.6801 35.5199 74.5256C35.5199 74.5256 35.7397 74.2686 35.9595 74.0117C36.1793 73.7548 36.4069 73.5094 36.4069 73.5094C36.6363 73.2543 36.8195 72.9803 36.9564 72.6872C37.0933 72.3942 37.1936 72.084 37.2402 71.7934C37.3582 71.187 37.3031 70.5969 37.081 70.0442L37.0751 70.0231L37.0692 70.002C36.8471 69.4493 36.464 69.0051 35.9526 68.6559C35.7074 68.4783 35.4162 68.3318 35.1176 68.2237C34.8189 68.1157 34.4935 68.0424 34.1473 68.025C34.1473 68.025 33.8107 68.0094 33.4759 67.9842C33.1412 67.9591 32.8064 67.9339 32.8064 67.9339C32.6102 67.9157 32.4211 67.809 32.2818 67.652C32.1329 67.4932 32.0471 67.2667 32.0247 67.0226C32.0247 67.0226 32.0207 66.9919 32.0146 66.9207C32.0065 66.8592 32.0041 66.7689 31.994 66.667C31.9852 66.4555 31.9702 66.1729 31.9745 65.894C31.9815 65.7555 31.9789 65.6151 31.984 65.4863C31.989 65.3574 31.9941 65.2285 31.9936 65.1285C32.0041 64.9208 32.011 64.7823 32.011 64.7823C32.0193 64.5341 32.122 64.3144 32.2635 64.1521C32.432 64.005 32.6218 63.9021 32.8255 63.8818ZM40.2235 64.9315C40.1828 65.2433 40.1461 65.5858 40.1498 65.9261C40.1536 66.2665 40.1784 66.601 40.2262 66.92C40.274 67.239 40.3371 67.5309 40.4095 67.7748C40.4272 67.8382 40.4467 67.8919 40.4547 67.9534C40.4742 68.0072 40.4937 68.0609 40.5036 68.1128C40.5231 68.1665 40.5349 68.2088 40.5467 68.251C40.5584 68.2933 40.5817 68.3278 40.5934 68.37C40.6461 68.5101 40.6811 68.5869 40.6811 68.5869C40.6811 68.5869 40.7161 68.6636 40.7784 68.8056C40.7921 68.8382 40.8038 68.8804 40.8271 68.9149C40.8485 68.9591 40.8698 69.0032 40.8912 69.0473C40.9126 69.0914 40.9418 69.147 40.9631 69.1911C40.9923 69.2468 41.0233 69.2928 41.0524 69.3484C41.1786 69.5727 41.3395 69.8238 41.5294 70.0805C41.7192 70.3372 41.9397 70.5899 42.1814 70.8367C42.4231 71.0835 42.6819 71.2937 42.9329 71.4924C43.0661 71.5782 43.1858 71.6815 43.3112 71.7558C43.373 71.7978 43.4366 71.8301 43.4888 71.8703C43.5524 71.9026 43.6064 71.9331 43.6604 71.9636C43.7666 72.0342 43.8783 72.0759 43.9689 72.1235C44.0152 72.1425 44.0596 72.1711 44.0962 72.1882C44.1425 72.2072 44.1791 72.2243 44.2061 72.2396C44.3449 72.2965 44.4181 72.3308 44.4181 72.3308C44.4181 72.3308 44.501 72.3669 44.6416 72.4142C44.6783 72.4313 44.7168 72.4388 44.7534 72.4559C44.7997 72.4749 44.8478 72.4843 44.894 72.5033C44.9884 72.5316 45.1002 72.5734 45.2234 72.6073C45.2812 72.6186 45.3467 72.6413 45.4122 72.664C45.4796 72.6771 45.5469 72.6902 45.624 72.7052C45.7665 72.7429 45.9127 72.7614 46.0763 72.7932C46.3881 72.8339 46.7306 72.8706 47.0614 72.865C47.4017 72.8613 47.7362 72.8365 48.0552 72.7886C48.3742 72.7408 48.6662 72.6777 48.91 72.6053C48.9734 72.5877 49.0271 72.5681 49.0886 72.5601C49.1424 72.5406 49.1961 72.5211 49.248 72.5112C49.3017 72.4917 49.344 72.4799 49.3862 72.4682C49.4285 72.4564 49.463 72.4332 49.5052 72.4214C49.6453 72.3687 49.7221 72.3337 49.7221 72.3337C49.7221 72.3337 49.7988 72.2987 49.9408 72.2364C49.9734 72.2228 50.0157 72.211 50.0502 72.1878C50.0943 72.1664 50.1384 72.145 50.1825 72.1236C50.2266 72.1022 50.2822 72.0731 50.3264 72.0517C50.382 72.0226 50.428 71.9916 50.4836 71.9624C50.7079 71.8362 50.959 71.6753 51.2157 71.4855C51.4724 71.2957 51.7251 71.0751 51.9719 70.8334C52.2169 70.6014 52.4289 70.333 52.6276 70.0819C52.7135 69.9488 52.8167 69.829 52.891 69.7036C52.933 69.6418 52.9654 69.5782 53.0055 69.5261C53.0378 69.4624 53.0683 69.4084 53.0988 69.3544C53.1694 69.2483 53.2111 69.1365 53.2587 69.0459C53.2777 68.9996 53.3063 68.9553 53.3234 68.9186C53.3424 68.8724 53.3595 68.8357 53.3748 68.8087C53.4318 68.67 53.466 68.5967 53.466 68.5967C53.466 68.5967 53.5021 68.5138 53.5494 68.3732C53.5665 68.3366 53.574 68.2981 53.5912 68.2614C53.6101 68.2152 53.6195 68.1671 53.6385 68.1208C53.6668 68.0264 53.7086 67.9147 53.7425 67.7914C53.7556 67.724 53.7765 67.6682 53.7992 67.6027C53.8123 67.5353 53.8255 67.4679 53.8404 67.3909C53.8782 67.2484 53.8966 67.1021 53.9285 66.9385C53.9691 66.6267 54.0058 66.2842 54.0021 65.9439C53.9984 65.6035 53.9735 65.269 53.9257 64.95C53.8779 64.631 53.8148 64.3391 53.7424 64.0952C53.7247 64.0318 53.7052 63.9781 53.6972 63.9166C53.6777 63.8628 53.6582 63.8091 53.6483 63.7572C53.6288 63.7035 53.617 63.6612 53.6053 63.619C53.5935 63.5767 53.5703 63.5422 53.5585 63.5C53.5058 63.3599 53.4708 63.2831 53.4708 63.2831C53.4708 63.2831 53.4358 63.2064 53.3735 63.0644C53.3599 63.0318 53.3481 62.9896 53.3249 62.9551C53.3035 62.9109 53.2802 62.8765 53.2607 62.8227C53.2393 62.7786 53.2102 62.723 53.1888 62.6788C53.1597 62.6232 53.1286 62.5772 53.0995 62.5216C52.9733 62.2973 52.8124 62.0462 52.6226 61.7895C52.4328 61.5328 52.2122 61.2801 51.9705 61.0333C51.7288 60.7865 51.47 60.5763 51.219 60.3776C51.0859 60.2918 50.9661 60.1885 50.8407 60.1142C50.7789 60.0722 50.7153 60.0399 50.6632 59.9997C50.5995 59.9674 50.5455 59.9369 50.4915 59.9064C50.3854 59.8358 50.2736 59.7941 50.183 59.7465C50.1367 59.7275 50.0923 59.6989 50.0557 59.6818C50.0095 59.6628 49.9728 59.6457 49.9458 59.6304C49.8089 59.5638 49.7338 59.5392 49.7338 59.5392C49.7338 59.5392 49.6509 59.5031 49.5103 59.4558C49.4737 59.4387 49.4352 59.4312 49.3985 59.4141C49.3504 59.4047 49.3138 59.3876 49.2579 59.3667C49.1635 59.3384 49.0518 59.2966 48.9285 59.2627C48.8707 59.2514 48.8052 59.2287 48.7397 59.206C48.6724 59.1929 48.605 59.1798 48.528 59.1648C48.3855 59.1271 48.2392 59.1086 48.0756 59.0768C47.7638 59.0361 47.4213 58.9994 47.0906 59.005C46.7502 59.0087 46.4157 59.0335 46.0967 59.0814C45.7777 59.1292 45.4858 59.1923 45.2419 59.2647C45.1785 59.2823 45.1248 59.3019 45.0633 59.3099C45.0096 59.3294 44.9558 59.3489 44.9039 59.3588C44.8521 59.3687 44.8079 59.3901 44.7657 59.4018C44.7235 59.4136 44.689 59.4368 44.6467 59.4486C44.5066 59.5013 44.4299 59.5363 44.4299 59.5363C44.4299 59.5363 44.3531 59.5713 44.2111 59.6336C44.1785 59.6472 44.1363 59.659 44.1018 59.6822C44.0577 59.7036 44.0232 59.7269 43.9694 59.7464C43.9253 59.7678 43.8697 59.7969 43.8256 59.8183C43.7699 59.8474 43.724 59.8784 43.6683 59.9076C43.444 60.0338 43.1929 60.1947 42.9362 60.3845C42.6795 60.5743 42.4268 60.7949 42.18 61.0366C41.9332 61.2782 41.723 61.537 41.5243 61.7881C41.4385 61.9212 41.3353 62.041 41.2609 62.1664C41.2189 62.2282 41.1866 62.2918 41.1465 62.3439C41.1141 62.4076 41.0836 62.4616 41.0531 62.5156C40.9825 62.6217 40.9408 62.7335 40.8932 62.8241C40.8742 62.8704 40.8456 62.9147 40.8285 62.9514C40.8114 62.988 40.7924 63.0343 40.7771 63.0613C40.7105 63.1981 40.6859 63.2733 40.6859 63.2733C40.6859 63.2733 40.6498 63.3562 40.6025 63.4968C40.5854 63.5334 40.5779 63.5719 40.5608 63.6086C40.5514 63.6567 40.5324 63.7029 40.5134 63.7492C40.4851 63.8436 40.4434 63.9553 40.4094 64.0786C40.3963 64.146 40.3754 64.2018 40.3527 64.2674C40.3396 64.3347 40.3265 64.4021 40.3115 64.4791C40.2719 64.6312 40.2534 64.7775 40.2235 64.9315Z" fill="white"/>
<path d="M6.20921 42.8498C6.20921 42.8498 6.5453 42.7653 6.86991 42.6886C7.20414 42.6138 7.52687 42.5467 7.52687 42.5467C7.8611 42.4719 8.17394 42.3529 8.44802 42.1765C8.58413 42.0931 8.7221 42 8.85232 41.8955C8.98254 41.791 9.10314 41.6846 9.20636 41.5648C9.63662 41.0991 9.95673 40.532 10.0707 39.8949L10.0744 39.8756L10.0782 39.8563C10.2114 39.2229 10.1272 38.5772 9.90298 37.9842C9.84256 37.8326 9.77066 37.6887 9.69875 37.5448C9.61722 37.3991 9.52418 37.2611 9.42928 37.1328C9.22984 36.8742 8.99591 36.6389 8.71411 36.4442C8.71411 36.4442 8.43044 36.2592 8.15827 36.0664C7.87648 35.8717 7.60618 35.6692 7.60618 35.6692C7.44016 35.547 7.33536 35.3668 7.29769 35.1497C7.26001 34.9326 7.28757 34.6882 7.39027 34.4684C7.39027 34.4684 7.45498 34.3412 7.55206 34.1503C7.59966 34.0596 7.65288 33.9401 7.71573 33.8225C7.74809 33.7589 7.77858 33.7048 7.81094 33.6412C7.8433 33.5776 7.88528 33.5158 7.91576 33.4618C8.05295 33.2188 8.19202 32.9661 8.30647 32.7886C8.42093 32.6111 8.49527 32.4857 8.49527 32.4857C8.75841 32.0574 9.25361 31.874 9.62365 32.0259C9.62365 32.0259 9.9378 32.157 10.252 32.288C10.5661 32.4191 10.8688 32.5579 10.8688 32.5579C11.181 32.6985 11.5046 32.7814 11.8393 32.8066C12.0067 32.8192 12.1663 32.8203 12.3278 32.8117C12.4086 32.8075 12.4893 32.8032 12.5719 32.7893C12.6527 32.785 12.7353 32.7711 12.8083 32.7554C13.1292 32.6979 13.419 32.5945 13.7145 32.4622C13.8583 32.3902 13.9925 32.3165 14.1209 32.2216C14.257 32.1382 14.3776 32.0317 14.4982 31.9253L14.5116 31.908L14.5249 31.8906C14.6378 31.7727 14.7488 31.6644 14.8538 31.535C14.9571 31.4152 15.0429 31.2821 15.121 31.1375C15.2068 31.0043 15.2753 30.8578 15.3323 30.719C15.3911 30.5706 15.4403 30.4204 15.4799 30.2682C15.5591 29.964 15.6035 29.633 15.5979 29.3022C15.5905 28.9811 15.5368 28.641 15.4178 28.3282C15.4178 28.3282 15.2989 28.0153 15.1914 27.6947C15.084 27.3741 14.9765 27.0535 14.9765 27.0535C14.914 26.8615 14.9359 26.646 15.033 26.4551C15.1301 26.2642 15.2945 26.0865 15.5092 25.9584C15.5092 25.9584 15.632 25.8924 15.8199 25.7991C16.0079 25.7058 16.2552 25.5641 16.5162 25.455C16.7791 25.3364 17.0323 25.2158 17.228 25.134C17.4237 25.0522 17.5542 24.9977 17.5542 24.9977C18.0205 24.8087 18.5232 24.9464 18.7365 25.2876C18.7365 25.2876 18.9207 25.5732 19.0934 25.8665C19.268 26.1502 19.4407 26.4436 19.4407 26.4436C19.6134 26.7369 19.8321 26.9992 20.0794 27.2172C20.3267 27.4351 20.5929 27.6068 20.886 27.7437C21.179 27.8806 21.4814 27.9694 21.7894 28.0293C21.9434 28.0593 22.1012 28.07 22.2608 28.0711C22.4185 28.0818 22.58 28.0733 22.7434 28.0551L22.7645 28.0492L22.7857 28.0434C22.9509 28.0156 23.1046 27.9955 23.2525 27.9544C23.41 27.9151 23.552 27.8528 23.694 27.7905C23.8359 27.7282 23.9798 27.6563 24.1159 27.5729C24.252 27.4895 24.3822 27.385 24.501 27.2882C24.7499 27.0869 24.9756 26.8511 25.1588 26.577C25.3497 26.3145 25.4981 26.0137 25.5926 25.6824C25.5926 25.6824 25.6851 25.3608 25.7891 25.0314C25.8913 24.7116 25.9954 24.3822 25.9954 24.3822C26.0521 24.1935 26.205 24.0234 26.393 23.9301C26.5828 23.8272 26.8211 23.7837 27.0751 23.8131C27.0751 23.8131 27.2117 23.8297 27.4253 23.8613C27.6371 23.9025 27.9085 23.9453 28.1895 23.9899C28.4667 24.0539 28.7459 24.1082 28.9461 24.1571C29.1579 24.1983 29.2889 24.2438 29.2889 24.2438C29.5258 24.3099 29.7303 24.4396 29.8774 24.608C30.0167 24.765 30.0851 24.9781 30.0765 25.1762C30.0765 25.1762 30.0513 25.511 30.0243 25.8554C29.9991 26.1901 29.9625 26.5326 29.9625 26.5326C29.9258 26.8751 29.9525 27.2 30.0292 27.5246C30.0963 27.8473 30.2152 28.1602 30.3724 28.4305C30.4558 28.5666 30.5374 28.7123 30.6227 28.8388C30.7176 28.9672 30.8143 29.0859 30.9322 29.1987C31.0405 29.3097 31.1584 29.4225 31.2801 29.5161C31.4017 29.6097 31.5445 29.6974 31.6795 29.7737L31.6969 29.787L31.7143 29.8004C31.8589 29.8785 32.0054 29.947 32.1557 29.9962C32.3041 30.055 32.4543 30.1042 32.6083 30.1342C32.9163 30.1941 33.23 30.2251 33.553 30.2081C33.8778 30.1814 34.1872 30.1317 34.4981 30.0223C34.8091 29.913 35.1102 29.7518 35.3803 29.5446C35.3803 29.5446 35.6407 29.3356 35.9185 29.1399C36.1886 28.9327 36.4664 28.737 36.4664 28.737C36.7921 28.5007 37.3098 28.5614 37.6712 28.9114C37.6712 28.9114 37.7717 29.0109 37.9225 29.1601C38.0733 29.3093 38.2629 29.516 38.462 29.7246C38.6631 29.9236 38.8393 30.1477 38.9786 30.3046C39.1178 30.4616 39.2069 30.5688 39.2069 30.5688C39.3694 30.7603 39.4533 30.9964 39.4621 31.2079C39.4806 31.4212 39.4201 31.6292 39.2902 31.7838C39.2902 31.7838 39.0703 32.0407 38.8505 32.2976C38.6307 32.5546 38.4032 32.8 38.4032 32.8C38.1737 33.055 37.9983 33.3406 37.871 33.6355C37.7418 33.94 37.6512 34.252 37.6086 34.5734C37.5883 34.7293 37.5776 34.887 37.5765 35.0467C37.5754 35.2063 37.5839 35.3678 37.6155 35.5138C37.6355 35.6675 37.6652 35.8231 37.7141 35.9825C37.7552 36.1304 37.8253 36.2838 37.8857 36.4354L37.8916 36.4566L37.8974 36.4777C37.9675 36.6312 38.0413 36.7654 38.1362 36.8938C38.2196 37.0299 38.3164 37.1486 38.4228 37.2692C38.6374 37.5008 38.8751 37.7168 39.1529 37.8807C39.2243 37.9246 39.2957 37.9685 39.3593 38.0008C39.4326 38.0351 39.5039 38.0789 39.5772 38.1131C39.7237 38.1816 39.8721 38.2404 40.032 38.2915C40.344 38.3822 40.6846 38.4285 41.025 38.4248C41.025 38.4248 41.3576 38.4096 41.698 38.4059C42.0384 38.4022 42.3691 38.3966 42.3691 38.3966C42.7691 38.3945 43.1594 38.7501 43.2428 39.2459C43.2428 39.2459 43.2666 39.3803 43.3043 39.5975C43.3438 39.8049 43.378 40.0913 43.4141 40.3681C43.4202 40.4392 43.436 40.5122 43.444 40.5737C43.4502 40.6448 43.4563 40.7159 43.4643 40.7774C43.4785 40.91 43.4849 41.0312 43.4932 41.1427C43.5116 41.356 43.5239 41.4983 43.5239 41.4983C43.5348 41.7501 43.4687 41.987 43.3543 42.1646C43.238 42.3517 43.0732 42.4795 42.8735 42.5305C42.8735 42.5305 42.5374 42.615 42.2128 42.6917C41.8786 42.7665 41.5558 42.8336 41.5558 42.8336C41.2216 42.9084 40.9088 43.0274 40.6347 43.2038C40.4986 43.2872 40.3606 43.3803 40.2304 43.4848C40.1002 43.5893 39.9796 43.6957 39.8763 43.8155C39.4461 44.2812 39.126 44.8483 39.012 45.4855L39.0027 45.5336C38.8694 46.167 38.9536 46.8127 39.1779 47.4058C39.2383 47.5574 39.3006 47.6994 39.3821 47.8451C39.4636 47.9908 39.5567 48.1288 39.6516 48.2571C39.851 48.5157 40.0849 48.751 40.3667 48.9457C40.3667 48.9457 40.6504 49.1308 40.9226 49.3236C41.2044 49.5183 41.4747 49.7207 41.4747 49.7207C41.6407 49.8429 41.7455 50.0231 41.7832 50.2402C41.8208 50.4573 41.7933 50.7017 41.6906 50.9215C41.6906 50.9215 41.6259 51.0488 41.5288 51.2397C41.4812 51.3303 41.428 51.4498 41.3651 51.5674C41.3346 51.6215 41.3023 51.6851 41.2699 51.7487C41.2375 51.8123 41.1956 51.8741 41.1651 51.9281C41.0279 52.1711 40.8888 52.4238 40.7744 52.6013C40.6599 52.7789 40.5856 52.9042 40.5856 52.9042C40.3224 53.3326 39.8272 53.5159 39.4572 53.364C39.4572 53.364 39.143 53.233 38.8385 53.1038C38.5244 52.9728 38.2217 52.834 38.2217 52.834C37.9094 52.6933 37.5859 52.6104 37.2511 52.5852C37.0838 52.5726 36.9241 52.5715 36.7626 52.5801C36.6819 52.5843 36.6012 52.5886 36.5185 52.6025C36.4378 52.6068 36.3552 52.6207 36.2822 52.6364C35.9613 52.6939 35.6715 52.7973 35.376 52.9296C35.2321 53.0016 35.0979 53.0753 34.9696 53.1702C34.8335 53.2537 34.7129 53.3601 34.5923 53.4665L34.5789 53.4838L34.5655 53.5012C34.4527 53.6191 34.3417 53.7274 34.2366 53.8568C34.1334 53.9766 34.0476 54.1097 33.9695 54.2544C33.8836 54.3875 33.8152 54.534 33.7582 54.6728C33.6994 54.8212 33.6501 54.9714 33.6106 55.1236C33.5314 55.4278 33.487 55.7588 33.5022 56.0914C33.5096 56.4126 33.5633 56.7527 33.6823 57.0655C33.6823 57.0655 33.8012 57.3784 33.9087 57.699C34.0161 58.0196 34.1236 58.3401 34.1236 58.3401C34.1861 58.5321 34.1642 58.7476 34.0671 58.9385C33.97 59.1294 33.8056 59.3072 33.5909 59.4353C33.5909 59.4353 33.4681 59.5013 33.2802 59.5946C33.0922 59.6879 32.8448 59.8296 32.5839 59.9386C32.321 60.0573 32.0678 60.1779 31.8721 60.2597C31.6764 60.3415 31.5459 60.396 31.5459 60.396C31.0795 60.585 30.5769 60.4472 30.3636 60.106C30.3636 60.106 30.1794 59.8205 30.0067 59.5271C29.834 59.2338 29.6594 58.9501 29.6594 58.9501C29.4867 58.6568 29.268 58.3945 29.0207 58.1765C28.7734 57.9586 28.4975 57.785 28.2141 57.65C27.9211 57.5131 27.6187 57.4243 27.3107 57.3643C27.1567 57.3344 26.9989 57.3237 26.8393 57.3226C26.6815 57.3119 26.52 57.3204 26.3567 57.3386L26.3355 57.3444L26.3144 57.3503C26.1492 57.3781 25.9954 57.3982 25.8476 57.4393C25.6901 57.4786 25.5481 57.5409 25.4061 57.6032C25.2641 57.6655 25.1203 57.7374 24.9842 57.8208C24.8481 57.9042 24.7197 57.9991 24.5991 58.1055C24.3502 58.3068 24.1245 58.5426 23.9413 58.8166C23.7504 59.0792 23.602 59.38 23.5075 59.7112C23.5075 59.7112 23.415 60.0329 23.3109 60.3623C23.2088 60.682 23.1047 61.0114 23.1047 61.0114C23.048 61.2002 22.8951 61.3702 22.7071 61.4635C22.5172 61.5665 22.279 61.61 22.025 61.5806C22.025 61.5806 21.8884 61.564 21.6747 61.5324C21.463 61.4912 21.1916 61.4484 20.9106 61.4037C20.6333 61.3398 20.3542 61.2855 20.1539 61.2365C19.9422 61.1953 19.8112 61.1499 19.8112 61.1499C19.5743 61.0838 19.3601 60.9522 19.2227 60.7856C19.0834 60.6287 19.015 60.4156 19.0236 60.2175C19.0236 60.2175 19.0487 59.8827 19.0758 59.5383C19.101 59.2036 19.1376 58.8611 19.1376 58.8611C19.1743 58.5186 19.1476 58.1937 19.0709 57.8691C19.0038 57.5464 18.8848 57.2335 18.7277 56.9632C18.6539 56.829 18.5627 56.6814 18.4774 56.5549C18.3825 56.4265 18.2858 56.3078 18.1679 56.195C18.0596 56.084 17.9417 55.9711 17.82 55.8775C17.6888 55.7821 17.5556 55.6962 17.4206 55.62L17.4032 55.6066L17.3858 55.5933C17.2412 55.5152 17.0947 55.4467 16.9444 55.3975C16.796 55.3387 16.6458 55.2895 16.4918 55.2595C16.1838 55.1996 15.8701 55.1685 15.5471 55.1856C15.2223 55.2123 14.9129 55.262 14.6019 55.3713C14.291 55.4807 13.9899 55.6419 13.7198 55.849C13.7198 55.849 13.4594 56.0581 13.1815 56.2538C12.9115 56.461 12.6336 56.6567 12.6336 56.6567C12.308 56.893 11.7903 56.8323 11.4289 56.4822C11.4289 56.4822 11.3283 56.3828 11.1776 56.2335C11.0268 56.0843 10.8372 55.8776 10.638 55.6691C10.437 55.4701 10.2608 55.246 10.1215 55.0891C9.98225 54.9321 9.89323 54.8249 9.89323 54.8249C9.73068 54.6334 9.64675 54.3973 9.63795 54.1858C9.61952 53.9724 9.67997 53.7644 9.80993 53.6099C9.80993 53.6099 10.0297 53.353 10.2496 53.096C10.4694 52.8391 10.6969 52.5937 10.6969 52.5937C10.9264 52.3386 11.1018 52.0531 11.2291 51.7582C11.3583 51.4537 11.4489 51.1416 11.4819 50.8184C11.5022 50.6625 11.5129 50.5048 11.514 50.3451C11.5151 50.1855 11.5065 50.024 11.475 49.878C11.455 49.7243 11.4253 49.5687 11.3764 49.4093C11.3352 49.2614 11.2652 49.108 11.2048 48.9564L11.1989 48.9352L11.193 48.9141C11.123 48.7606 11.0492 48.6264 10.9543 48.4981C10.8709 48.3619 10.7741 48.2432 10.6677 48.1226C10.453 47.8911 10.2153 47.675 9.93756 47.5111C9.86618 47.4672 9.80442 47.4252 9.73116 47.391C9.6579 47.3568 9.58652 47.3129 9.51326 47.2787C9.36674 47.2102 9.21835 47.1514 9.05847 47.1003C8.74645 47.0096 8.40582 46.9633 8.06545 46.967C8.06545 46.967 7.73283 46.9822 7.39246 46.9859C7.05209 46.9896 6.71172 46.9934 6.71172 46.9934C6.31172 46.9954 5.92139 46.6398 5.83802 46.1441C5.83802 46.1441 5.81424 46.0096 5.77656 45.7925C5.73701 45.585 5.70281 45.2986 5.66674 45.0219C5.6606 44.9508 5.64484 44.8778 5.63682 44.8163C5.63068 44.7451 5.62453 44.674 5.61652 44.6125C5.60236 44.4799 5.59596 44.3588 5.58768 44.2473C5.56925 44.0339 5.55697 43.8917 5.55697 43.8917C5.54603 43.6398 5.6121 43.4029 5.72656 43.2254C5.84476 43.0286 6.00947 42.9008 6.20921 42.8498ZM14.6133 41.0384C14.6058 41.0769 14.5965 41.125 14.5852 41.1827C14.5759 41.2309 14.5646 41.2886 14.563 41.3482C14.5502 41.4656 14.5336 41.6022 14.5151 41.7485C14.5063 41.8966 14.4956 42.0544 14.483 42.2217C14.4757 42.3103 14.48 42.391 14.4728 42.4795C14.4752 42.5699 14.468 42.6584 14.4703 42.7487C14.4727 42.8391 14.4733 42.9391 14.4757 43.0295C14.4781 43.1199 14.4786 43.2199 14.4887 43.3217C14.4989 43.4236 14.5013 43.514 14.5114 43.6158L14.5218 43.7677C14.5221 43.8177 14.532 43.8696 14.5438 43.9118C14.6402 44.6998 14.8404 45.468 15.0414 46.0266C15.0844 46.1648 15.139 46.2953 15.1876 46.4047C15.2363 46.514 15.2657 46.6196 15.3007 46.6964C15.3707 46.8499 15.4116 46.9477 15.4116 46.9477C15.4116 46.9477 15.4175 46.9688 15.4389 47.013C15.4603 47.0571 15.4894 47.1127 15.5244 47.1894C15.5594 47.2662 15.6118 47.3563 15.6701 47.4675C15.7284 47.5788 15.7963 47.6919 15.872 47.8165C16.1727 48.3245 16.6242 48.9818 17.1715 49.5578C17.7072 50.1415 18.3291 50.6421 18.8136 50.9761C18.9352 51.0697 19.0529 51.1325 19.1494 51.2013C19.2459 51.27 19.3346 51.3272 19.4175 51.3633C19.5699 51.4529 19.6509 51.4986 19.6509 51.4986C19.6509 51.4986 19.6683 51.512 19.7146 51.531C19.7493 51.5577 19.8148 51.5805 19.8958 51.6262C19.9787 51.6623 20.0694 51.7099 20.1774 51.7709C20.2873 51.8222 20.4068 51.8754 20.5455 51.9324C21.0891 52.168 21.8385 52.4237 22.6182 52.5754C23.3978 52.7271 24.1885 52.771 24.7807 52.7564C24.9326 52.746 25.0614 52.7511 25.1826 52.7446C25.3037 52.7382 25.4056 52.7281 25.4882 52.7142C25.5785 52.7118 25.64 52.7038 25.6919 52.6939C25.7419 52.6936 25.763 52.6878 25.763 52.6878C25.763 52.6878 25.8649 52.6776 26.0302 52.6498C26.1109 52.6455 26.2165 52.6161 26.3395 52.6001C26.4548 52.5726 26.5874 52.5584 26.7352 52.5173C27.3192 52.3911 28.0756 52.1487 28.7893 51.818C29.5126 51.4892 30.1776 51.0492 30.6469 50.691C30.7656 50.5942 30.871 50.5148 30.9648 50.4431C31.0509 50.36 31.1333 50.2961 31.2041 50.2399C31.2654 50.1819 31.3229 50.1432 31.3496 50.1084C31.386 50.0755 31.3993 50.0582 31.3993 50.0582C31.3993 50.0582 31.4721 49.9924 31.5964 49.8667C31.6576 49.8087 31.7323 49.7333 31.8202 49.6406C31.9063 49.5574 31.9962 49.455 32.0975 49.3449C32.4933 48.9024 32.9669 48.2653 33.3517 47.5709C33.3803 47.5266 33.3993 47.4803 33.4261 47.4456L33.4926 47.3087C33.5402 47.218 33.5764 47.1351 33.624 47.0445C33.6716 46.9539 33.7077 46.871 33.7456 46.7785C33.7836 46.686 33.8293 46.605 33.8558 46.5202C33.8919 46.4373 33.9184 46.3526 33.9545 46.2697C33.981 46.1849 34.0267 46.1039 34.0417 46.0269C34.0928 45.867 34.1516 45.7186 34.1893 45.5761C34.2271 45.4336 34.2629 45.3007 34.295 45.1871C34.3159 45.1312 34.3271 45.0735 34.3364 45.0254C34.3458 44.9772 34.3552 44.9291 34.3645 44.881C34.3982 44.7077 34.4266 44.6133 34.4266 44.6133C34.4266 44.6133 34.4453 44.5171 34.4694 44.342C34.4769 44.3035 34.4863 44.2553 34.4975 44.1976C34.5069 44.1494 34.5181 44.0917 34.5197 44.0321C34.5326 43.9147 34.5491 43.7781 34.5676 43.6318C34.5861 43.4856 34.5872 43.3259 34.5997 43.1586C34.607 43.0701 34.6027 42.9893 34.6099 42.9008C34.6075 42.8104 34.6148 42.7219 34.6124 42.6316C34.61 42.5412 34.6094 42.4412 34.607 42.3508C34.6046 42.2604 34.6041 42.1604 34.594 42.0586C34.582 41.9663 34.5814 41.8663 34.5713 41.7645L34.5609 41.6126C34.5606 41.5626 34.5507 41.5107 34.539 41.4685C34.4425 40.6805 34.2423 39.9123 34.0413 39.3537C33.9983 39.2155 33.9438 39.085 33.8951 38.9757C33.8464 38.8663 33.817 38.7607 33.7724 38.6821C33.7024 38.5286 33.6615 38.4307 33.6615 38.4307C33.6615 38.4307 33.6556 38.4096 33.6342 38.3655C33.6128 38.3213 33.5837 38.2657 33.5487 38.189C33.5136 38.1123 33.4612 38.0221 33.403 37.9109C33.3447 37.7997 33.2768 37.6866 33.2011 37.562C32.9004 37.0539 32.4489 36.3967 31.9016 35.8207C31.3658 35.2369 30.7536 34.7382 30.2595 34.4023C30.1379 34.3087 30.0202 34.2459 29.9237 34.1772C29.8272 34.1084 29.7384 34.0512 29.6556 34.0151C29.5032 33.9255 29.4221 33.8798 29.4221 33.8798C29.4221 33.8798 29.4048 33.8664 29.3585 33.8474C29.3238 33.8207 29.2583 33.798 29.1772 33.7522C29.104 33.718 29.0037 33.6685 28.9053 33.6094C28.7954 33.5581 28.6759 33.5049 28.5372 33.4479C27.9936 33.2123 27.2442 32.9566 26.4645 32.8049C25.6849 32.6532 24.8943 32.6093 24.302 32.6239C24.1501 32.6344 24.0213 32.6293 23.9001 32.6357C23.779 32.6421 23.6772 32.6522 23.5849 32.6642C23.5042 32.6685 23.433 32.6747 23.3812 32.6845C23.3389 32.6963 23.31 32.6907 23.31 32.6907C23.31 32.6907 23.2082 32.7008 23.0429 32.7286C22.9603 32.7425 22.8566 32.7623 22.7336 32.7783C22.6183 32.8058 22.4857 32.82 22.3378 32.8612C21.7539 32.9873 20.9974 33.2297 20.2838 33.5604C19.5605 33.8892 18.8955 34.3292 18.4262 34.6875C18.3075 34.7843 18.2021 34.8637 18.1083 34.9353C18.0125 35.0166 17.9398 35.0823 17.8689 35.1385C17.8077 35.1965 17.7502 35.2353 17.7235 35.27C17.6871 35.3029 17.6737 35.3203 17.6737 35.3203C17.6737 35.3203 17.601 35.3861 17.4767 35.5117C17.4154 35.5697 17.3408 35.6451 17.2625 35.7398C17.1764 35.8229 17.0865 35.9253 16.9852 36.0354C16.5894 36.4779 16.1158 37.115 15.731 37.8094C15.7024 37.8537 15.6834 37.9 15.6567 37.9348L15.5901 38.0716C15.5425 38.1623 15.5064 38.2452 15.4588 38.3358C15.4208 38.4283 15.3847 38.5112 15.3371 38.6018C15.2991 38.6943 15.2534 38.7753 15.2269 38.8601C15.1908 38.943 15.1643 39.0277 15.1282 39.1106C15.1017 39.1954 15.056 39.2764 15.041 39.3534C14.9899 39.5133 14.9311 39.6617 14.8934 39.8042C14.8557 39.9467 14.8198 40.0796 14.7877 40.1932C14.7669 40.2491 14.7556 40.3068 14.7463 40.355C14.7369 40.4031 14.7275 40.4512 14.7182 40.4993C14.6845 40.6726 14.6561 40.767 14.6561 40.767C14.6561 40.767 14.6451 40.8747 14.6133 41.0384Z" fill="white"/>
</svg>
