<svg width="55" height="56" viewBox="0 0 55 56" fill="none" xmlns="http://www.w3.org/2000/svg">
<circle cx="27.4998" cy="28.1558" r="27.5" fill="white"/>
<path d="M41.6558 27.1982C41.5923 27.7536 41.1943 28.213 40.6537 28.3551L16.8649 34.6076L18.3441 39.5868L18.3479 39.5876C18.7489 39.6795 19.0865 39.9486 19.2655 40.3191C19.4445 40.6896 19.4456 41.1213 19.2684 41.4926L17.933 44.291C17.751 44.6725 17.4016 44.9472 16.9879 45.0339C16.5743 45.1207 16.1439 45.0095 15.824 44.7334L12.7386 42.07C12.3635 41.7462 12.195 41.2436 12.2991 40.7592C12.3406 40.5663 12.4226 40.3885 12.5363 40.2355L6.86761 29.2679C6.69983 28.9433 6.67022 28.5647 6.78549 28.2179C6.90076 27.8712 7.15116 27.5857 7.47989 27.4261L41.4174 10.9545C41.8623 10.7386 42.3894 10.7821 42.7929 11.0679C43.1963 11.3538 43.4121 11.8367 43.356 12.3279L41.6558 27.1982Z" fill="white" stroke="#76BD1D" stroke-width="2.71094" stroke-linejoin="round"/>
<path d="M15.7876 29.8874L14.7789 26.5693L14.0842 26.9571L15.5079 29.9854L15.7876 29.8874Z" fill="#76BD1D"/>
<path d="M16.4823 29.6508L15.8321 26.2792L15.1812 26.5123L16.1815 29.6966L16.4823 29.6508Z" fill="#76BD1D"/>
<path d="M14.1073 28.7419L16.6749 27.383L16.4216 26.9076L14.0012 28.4046L14.1073 28.7419Z" fill="#76BD1D"/>
<path d="M14.3803 29.6048L16.895 28.1152L16.6946 27.7705L14.2795 29.2806L14.3803 29.6048Z" fill="#76BD1D"/>
<path d="M18.0834 26.0528C18.0703 26.0581 18.0389 26.0556 18.0075 26.0531C17.9891 26.0453 17.9446 26.0481 17.9185 26.0587C17.8531 26.0851 17.7906 26.156 17.757 26.2608C17.7287 26.3787 17.7058 26.5096 17.7195 26.6561C17.7202 26.8079 17.7392 26.9675 17.7583 27.1271C17.7826 27.2997 17.8225 27.4356 17.8624 27.5716C17.873 27.5977 17.8942 27.65 17.9153 27.7022C17.9365 27.7545 17.9761 27.8145 18.0156 27.8746C18.0552 27.9346 18.0947 27.9946 18.1343 28.0547C18.1738 28.1147 18.208 28.1617 18.237 28.1956L18.2896 28.2504L18.3578 28.2684C18.4129 28.2917 18.4496 28.3073 18.4863 28.3229C18.5231 28.3384 18.5467 28.3593 18.5598 28.354C18.641 28.3668 18.717 28.3665 18.7823 28.34C18.8738 28.303 18.9625 28.2216 19.0352 28.1009C19.0586 28.0458 19.1002 27.9986 19.1183 27.9304C19.1416 27.8754 19.1649 27.8203 19.1752 27.7706C19.1854 27.7208 19.201 27.6841 19.2165 27.6474C19.219 27.616 19.2268 27.5976 19.2398 27.5924C19.279 27.5765 19.3235 27.5737 19.3656 27.6023C19.4023 27.6179 19.4259 27.6387 19.4312 27.6518C19.4524 27.7041 19.4475 27.7669 19.4478 27.8428C19.4351 27.924 19.4171 27.9921 19.3913 28.0786C19.3655 28.165 19.3344 28.2384 19.2902 28.3171C19.246 28.3958 19.2149 28.4692 19.1863 28.5112C19.1708 28.5479 19.1499 28.5715 19.116 28.6004C19.0821 28.6294 19.0482 28.6583 18.9959 28.6794C18.962 28.7083 18.9228 28.7242 18.8836 28.7401C18.8444 28.7559 18.8183 28.7665 18.7921 28.777C18.7398 28.7982 18.6823 28.8063 18.6431 28.8221C18.5986 28.8249 18.5594 28.8408 18.5226 28.8252C18.4781 28.828 18.4414 28.8124 18.3916 28.8022C18.3418 28.7919 18.2998 28.7633 18.2316 28.7452C18.1214 28.6985 18.019 28.6335 17.935 28.5763C17.8509 28.519 17.7799 28.4565 17.7326 28.4148C17.6115 28.2661 17.5006 28.0676 17.4053 27.8325C17.2648 27.4483 17.2002 27.0638 17.2116 26.6791C17.2237 26.4461 17.27 26.2601 17.353 26.0897C17.4413 25.9323 17.5508 25.8272 17.6946 25.769C17.7207 25.7585 17.7783 25.7504 17.862 25.7317C17.9457 25.7131 18.0347 25.7075 18.1368 25.6967C18.2258 25.6911 18.3201 25.6986 18.4013 25.7113C18.4826 25.7241 18.5299 25.7658 18.5564 25.8311C18.5669 25.8572 18.5775 25.8834 18.5857 25.9409C18.6068 25.9932 18.6044 26.0246 18.6097 26.0376C18.6866 26.265 18.7396 26.3957 18.7738 26.4427C18.7791 26.4557 18.7844 26.4688 18.7897 26.4819C18.8003 26.508 18.7847 26.5447 18.7692 26.5814C18.7406 26.6234 18.7197 26.647 18.7067 26.6523C18.6805 26.6629 18.6544 26.6734 18.6336 26.6971C18.6074 26.7076 18.5996 26.726 18.5866 26.7313C18.5866 26.7313 18.5735 26.7366 18.5421 26.7341C18.5106 26.7316 18.4792 26.7291 18.4478 26.7266C18.4163 26.7241 18.3849 26.7216 18.3535 26.7191C18.322 26.7166 18.3037 26.7088 18.2984 26.6958C18.2878 26.6696 18.2772 26.6435 18.2482 26.6096C18.2246 26.5887 18.1981 26.5234 18.1741 26.4267L18.0731 26.1026C18.1229 26.1128 18.1124 26.0867 18.0834 26.0528Z" fill="#76BD1D"/>
<path d="M20.4228 27.7366C20.4151 27.755 20.4179 27.7995 20.3945 27.8546C20.3895 27.9174 20.3662 27.9725 20.3482 28.0407C20.3301 28.1089 20.3068 28.164 20.2704 28.2243C20.234 28.2847 20.2 28.3137 20.1477 28.3348C20.0301 28.3825 19.9252 28.3489 19.8122 28.2577C19.6992 28.1665 19.6202 28.0464 19.575 27.8973C19.538 27.8058 19.5087 27.6959 19.4872 27.5677C19.4657 27.4394 19.4389 27.2981 19.4016 27.1307C19.3988 27.0862 19.3932 26.9972 19.3953 26.8898C19.3975 26.7824 19.4127 26.6697 19.4463 26.5648C19.4799 26.4599 19.5425 26.389 19.6234 26.3258C19.7096 26.2757 19.817 26.2778 19.9692 26.3531C19.9876 26.3609 20.0059 26.3687 20.019 26.3634C20.0321 26.3581 20.0582 26.3475 20.1027 26.3447C20.1473 26.3419 20.2048 26.3338 20.2624 26.3257C20.32 26.3176 20.3698 26.3279 20.4196 26.3382C20.4694 26.3484 20.4983 26.3824 20.5142 26.4216C20.5142 26.4216 20.5195 26.4346 20.517 26.4661C20.5145 26.4975 20.5198 26.5106 20.5198 26.5106L20.5516 26.589C20.5728 26.6413 20.5837 26.7434 20.5868 26.8638C20.5899 26.9843 20.6167 27.1256 20.6696 27.2563C20.6908 27.3086 20.7172 27.374 20.7698 27.4287C20.8094 27.4888 20.8645 27.5121 20.8906 27.5016C20.9168 27.491 20.9376 27.4673 20.961 27.4122C20.9843 27.3571 20.9946 27.3073 21.0179 27.2522C21.0282 27.2024 21.0384 27.1526 21.0487 27.1028C21.059 27.053 21.0667 27.0347 21.0667 27.0347C21.0798 27.0294 21.0851 27.0425 21.0904 27.0555C21.0957 27.0686 21.101 27.0817 21.1116 27.1078C21.1222 27.134 21.1274 27.147 21.125 27.1785C21.1303 27.1915 21.1355 27.2046 21.1461 27.2308C21.1514 27.2438 21.1567 27.2569 21.162 27.27C21.1673 27.283 21.1648 27.3145 21.1598 27.3774C21.1549 27.4402 21.1315 27.4953 21.1135 27.5635C21.0824 27.6369 21.046 27.6973 20.9965 27.763C20.947 27.8287 20.8869 27.8682 20.8085 27.9C20.764 27.9028 20.7011 27.8978 20.6382 27.8928C20.5831 27.8695 20.4991 27.8122 20.4228 27.7366ZM19.9151 26.5576C19.8889 26.5682 19.8787 26.618 19.879 26.694C19.8662 26.7752 19.8718 26.8642 19.8697 26.9716C19.8675 27.079 19.8837 27.1941 19.9052 27.3224C19.9267 27.4506 19.9559 27.5605 19.9983 27.6651C20.0195 27.7173 20.0459 27.7827 20.0855 27.8428C20.125 27.9028 20.167 27.9315 20.1932 27.9209C20.219 27.8343 20.237 27.7662 20.2473 27.7164C20.2523 27.6535 20.2625 27.6037 20.2622 27.5278C20.2672 27.4649 20.2591 27.4073 20.2379 27.355L20.2298 27.2974L20.2058 27.2007C20.19 27.1614 20.1766 27.0908 20.1763 27.0148C20.1707 26.9258 20.1573 26.8552 20.1439 26.7845C20.1305 26.7139 20.104 26.6485 20.0698 26.6015C20.0302 26.5414 19.9804 26.5312 19.9151 26.5576Z" fill="#76BD1D"/>
<path d="M21.5148 26.564C21.5176 26.6085 21.5073 26.6583 21.5048 26.6897L21.5351 27.0274C21.5488 27.174 21.5494 27.3259 21.5525 27.4464C21.5556 27.5668 21.5457 27.6926 21.5096 27.8289C21.5096 27.8289 21.5018 27.8473 21.494 27.8656C21.4863 27.884 21.4916 27.8971 21.4785 27.9024C21.4629 27.9391 21.4421 27.9627 21.4106 27.9603C21.3792 27.9578 21.3478 27.9553 21.311 27.9397C21.2743 27.9242 21.2376 27.9086 21.2323 27.8955C21.227 27.8825 21.2111 27.8433 21.2083 27.7987L21.208 27.7228C21.2105 27.6914 21.213 27.6599 21.2155 27.6285C21.2232 27.6101 21.2388 27.5734 21.2544 27.5367C21.2699 27.4999 21.2802 27.4501 21.3035 27.395C21.3269 27.34 21.3265 27.264 21.3418 27.1513C21.339 27.1068 21.3387 27.0309 21.3461 26.9366C21.3405 26.8476 21.348 26.7532 21.3424 26.6642C21.3498 26.5699 21.3442 26.4809 21.3439 26.405C21.3436 26.329 21.3355 26.2714 21.338 26.24C21.3271 26.1379 21.319 26.0803 21.3214 26.0489C21.3292 26.0305 21.3501 26.0069 21.3971 25.9726C21.3971 25.9726 21.4179 25.949 21.4388 25.9253C21.4727 25.8964 21.4936 25.8727 21.5066 25.8674L21.5879 25.8802C21.6691 25.8929 21.7058 25.9085 21.7058 25.9085C21.7058 25.9085 21.7164 25.9346 21.727 25.9608C21.727 25.9608 21.7323 25.9738 21.7559 25.9947C21.7743 26.0025 21.7849 26.0286 21.7902 26.0417C21.7955 26.0548 21.8008 26.0678 21.8061 26.0809C21.8328 26.2222 21.8649 26.3766 21.9023 26.544C21.9527 26.7062 21.9926 26.8422 22.0218 26.9521C22.0508 26.986 22.0822 26.9885 22.1161 26.9595C22.137 26.9359 22.1603 26.8808 22.1706 26.831C22.1939 26.7759 22.1989 26.713 22.1986 26.6371C22.1983 26.5611 22.2033 26.4983 22.2135 26.4485C22.2104 26.328 22.2126 26.2206 22.2045 26.163C22.2042 26.0871 22.2013 26.0426 22.1985 25.9981C22.1957 25.9536 22.1929 25.9091 22.1954 25.8776C22.1926 25.8331 22.1767 25.7939 22.1739 25.7494C22.1711 25.7049 22.1683 25.6604 22.163 25.6473C22.1708 25.6289 22.1602 25.6028 22.1443 25.5636C22.1391 25.5505 22.1391 25.5505 22.1391 25.5505L22.215 25.5502C22.2228 25.5318 22.2489 25.5212 22.2698 25.4976C22.2959 25.487 22.3429 25.4528 22.4422 25.3974C22.4553 25.3921 22.4736 25.3998 22.4867 25.3945C22.5051 25.4023 22.5287 25.4232 22.5891 25.4596L22.6311 25.4882L22.6601 25.5221C22.6707 25.5483 22.689 25.5561 22.6943 25.5691C22.7127 25.5769 22.7127 25.5769 22.718 25.59C22.7286 25.6161 22.7183 25.6659 22.695 25.721C22.6897 25.708 22.6872 25.7394 22.7006 25.81C22.714 25.8807 22.7143 25.9566 22.7383 26.0534C22.7492 26.1555 22.7678 26.2392 22.7918 26.336C22.8105 26.4198 22.8239 26.4904 22.8345 26.5166C22.8768 26.6211 22.9216 26.6943 22.9742 26.7491C23.0268 26.8038 23.0819 26.8272 23.1212 26.8113C23.1342 26.806 23.142 26.7876 23.1629 26.764C23.1784 26.7272 23.1809 26.6958 23.1965 26.6591C23.212 26.6224 23.2276 26.5856 23.2301 26.5542C23.2456 26.5175 23.2534 26.4991 23.2718 26.5069C23.2848 26.5016 23.3032 26.5094 23.3085 26.5224L23.3297 26.5747C23.3455 26.6139 23.3431 26.6454 23.3536 26.6715C23.3642 26.6977 23.3695 26.7107 23.3695 26.7107C23.3748 26.7238 23.3748 26.7238 23.3801 26.7369C23.3801 26.7369 23.3723 26.7552 23.3776 26.7683C23.3776 26.7683 23.3621 26.805 23.3465 26.8418C23.3309 26.8785 23.3076 26.9336 23.2712 26.994C23.2479 27.0491 23.2062 27.0964 23.1514 27.149C23.1097 27.1963 23.0627 27.2305 23.0104 27.2517C22.9581 27.2729 22.8952 27.2679 22.8585 27.2524C22.8034 27.229 22.7614 27.2004 22.7088 27.1456C22.6615 27.1039 22.6219 27.0438 22.5824 26.9838C22.5429 26.9237 22.5217 26.8714 22.4952 26.8061C22.4847 26.7799 22.4688 26.7407 22.466 26.6962C22.4632 26.6517 22.4473 26.6125 22.4445 26.568C22.4417 26.5234 22.4258 26.4842 22.4152 26.4581C22.4046 26.4319 22.4071 26.4005 22.4071 26.4005C22.4071 26.4005 22.4018 26.3874 22.3965 26.3744C22.3912 26.3613 22.3859 26.3482 22.3754 26.3221C22.3757 26.398 22.376 26.474 22.371 26.5368C22.366 26.5997 22.3741 26.6573 22.3639 26.7071C22.3667 26.7516 22.3617 26.8145 22.3645 26.859C22.3726 26.9166 22.3676 26.9794 22.368 27.0554C22.3686 27.2073 22.3586 27.333 22.3145 27.4118C22.2756 27.5036 22.2339 27.5509 22.213 27.5746C22.1869 27.5851 22.1607 27.5957 22.1293 27.5932C22.0848 27.596 22.048 27.5805 21.9982 27.5702C21.9431 27.5469 21.9011 27.5182 21.8538 27.4765C21.8065 27.4348 21.767 27.3748 21.7536 27.3041C21.7271 27.2388 21.7007 27.1734 21.682 27.0897C21.6502 27.0112 21.6368 26.9406 21.6104 26.8752C21.5839 26.8099 21.5758 26.7523 21.5546 26.7C21.5335 26.6477 21.536 26.6163 21.5307 26.6032C21.5307 26.6032 21.5254 26.5901 21.5201 26.5771C21.5384 26.5848 21.5331 26.5718 21.5148 26.564Z" fill="#76BD1D"/>
<path d="M25.5592 25.171C25.52 25.1869 25.4938 25.1975 25.4599 25.2265C25.426 25.2554 25.4129 25.2607 25.3998 25.266C25.3214 25.2977 25.2293 25.1829 25.1234 24.9215C25.1128 24.8953 25.1075 24.8823 25.0969 24.8561C25.0864 24.83 25.0811 24.8169 25.0758 24.8038C25.0652 24.7777 25.0546 24.7515 25.0624 24.7332C25.0518 24.707 25.0465 24.694 25.0412 24.6809C25.0306 24.6547 25.0123 24.647 24.9861 24.6575C24.96 24.6681 24.9497 24.7179 24.95 24.7939C24.9504 24.8698 24.9613 24.9719 24.9852 25.0687C25.0014 25.1839 25.0254 25.2807 25.06 25.4036C25.0892 25.5135 25.1132 25.6103 25.145 25.6887C25.182 25.7802 25.2321 25.8664 25.3084 25.942C25.3794 26.0046 25.4659 26.0304 25.5443 25.9987C25.5574 25.9934 25.6044 25.9591 25.6853 25.8959L25.7217 25.8355L25.7712 25.7699L25.8359 25.5915C25.8515 25.5548 25.8748 25.4997 25.8851 25.4499C25.9084 25.3948 25.9162 25.3764 25.9293 25.3711C25.9423 25.3659 25.9819 25.4259 26.0164 25.5489C26.0376 25.6011 26.0326 25.664 26.0277 25.7269C26.0096 25.7951 25.9863 25.8502 25.9629 25.9052C25.9396 25.9603 25.8979 26.0076 25.8693 26.0497C25.8406 26.0917 25.8067 26.1206 25.7989 26.139C25.7728 26.1496 25.7519 26.1732 25.7311 26.1969C25.6972 26.2259 25.6763 26.2495 25.6424 26.2785C25.6085 26.3074 25.5876 26.3311 25.5537 26.36C25.5328 26.3837 25.5067 26.3943 25.5067 26.3943C25.4413 26.4207 25.3654 26.421 25.2894 26.4214C25.2213 26.4033 25.1531 26.3853 25.0927 26.3489C25.0323 26.3124 24.9797 26.2577 24.9271 26.2029C24.8745 26.1481 24.8481 26.0828 24.8216 26.0174C24.7581 25.8605 24.7129 25.7115 24.6784 25.5885C24.6438 25.4656 24.6146 25.3557 24.6089 25.2667C24.6114 25.2353 24.5956 25.196 24.5875 25.1385C24.5794 25.0809 24.566 25.0102 24.5709 24.9474C24.5759 24.8845 24.5678 24.8269 24.5728 24.764C24.5831 24.7142 24.5986 24.6775 24.6378 24.6616C24.6771 24.6457 24.711 24.6168 24.7658 24.5642C24.8075 24.5169 24.9067 24.4615 25.0375 24.4085C25.0767 24.3927 25.1081 24.3951 25.1395 24.3976C25.1763 24.4132 25.2077 24.4157 25.2391 24.4182L25.2706 24.4207C25.2889 24.4284 25.3073 24.4362 25.3204 24.4309C25.3335 24.4256 25.3518 24.4334 25.3624 24.4596C25.3808 24.4673 25.3966 24.5065 25.4125 24.5458C25.4284 24.585 25.4549 24.6503 25.4866 24.7288C25.5184 24.8072 25.5501 24.8856 25.5713 24.9379C25.5978 25.0033 25.632 25.0503 25.6401 25.1079C25.6613 25.1601 25.6535 25.1785 25.609 25.1813C25.5906 25.1735 25.5592 25.171 25.5592 25.171Z" fill="#76BD1D"/>
<path d="M25.7587 24.2381C25.7979 24.2222 25.8449 24.188 25.9128 24.1301C25.9806 24.0722 26.0668 24.022 26.1661 23.9666L26.2915 23.9006C26.3308 23.8848 26.3753 23.8819 26.4304 23.9053C26.4854 23.9286 26.5405 23.952 26.5931 24.0067C26.6405 24.0484 26.6931 24.1032 26.7457 24.158C26.7852 24.2181 26.8247 24.2781 26.8512 24.3435C26.883 24.4219 26.8886 24.5109 26.8942 24.5999C26.8998 24.689 26.887 24.7702 26.8506 24.8306C26.7962 24.9591 26.765 25.0326 26.7495 25.0693C26.7339 25.1061 26.7 25.135 26.6739 25.1456C26.6608 25.1509 26.6477 25.1562 26.6399 25.1745C26.6322 25.1929 26.6191 25.1982 26.606 25.2035C26.606 25.2035 26.5799 25.2141 26.5354 25.2169C26.4909 25.2197 26.4647 25.2303 26.4386 25.2409C26.4124 25.2514 26.4046 25.2698 26.4205 25.309C26.4523 25.3874 26.4971 25.4606 26.5759 25.5048C26.6546 25.549 26.7044 25.5592 26.7751 25.5458C26.9188 25.4876 27.0231 25.3693 27.1009 25.1857C27.1009 25.1857 27.1087 25.1673 27.132 25.1122C27.1554 25.0571 27.1787 25.0021 27.189 24.9523C27.1992 24.9025 27.2148 24.8657 27.2148 24.8657C27.2279 24.8604 27.2332 24.8735 27.2384 24.8866C27.2437 24.8996 27.249 24.9127 27.2543 24.9258L27.302 25.0434C27.3072 25.0565 27.3072 25.0565 27.3125 25.0696C27.3178 25.0827 27.3231 25.0957 27.3284 25.1088C27.3443 25.148 27.3393 25.2109 27.3135 25.2974C27.2877 25.3839 27.2488 25.4758 27.1915 25.5598C27.1395 25.6569 27.077 25.7279 26.9883 25.8094C26.9127 25.8857 26.8317 25.9489 26.7349 25.9729C26.6957 25.9888 26.6382 25.9969 26.5883 25.9866C26.5385 25.9763 26.4704 25.9583 26.4153 25.9349C26.3051 25.8883 26.2264 25.8441 26.1554 25.7815C26.1028 25.7267 26.0527 25.6405 26.005 25.5229C25.968 25.4314 25.944 25.3346 25.9175 25.2692C25.8989 25.1855 25.8724 25.1201 25.859 25.0495C25.8456 24.9788 25.8269 24.8951 25.8083 24.8114C25.7896 24.7277 25.784 24.6386 25.7678 24.5235C25.765 24.479 25.7569 24.4214 25.7541 24.3769C25.759 24.314 25.7615 24.2826 25.7587 24.2381ZM26.2586 24.1574L26.2141 24.1602C26.1957 24.1524 26.1854 24.2022 26.191 24.2913C26.1967 24.3803 26.2076 24.4824 26.2185 24.5844C26.2347 24.6996 26.2456 24.8017 26.2642 24.8854C26.2751 24.9875 26.2963 25.0398 26.3016 25.0529C26.3069 25.0659 26.3253 25.0737 26.3567 25.0762C26.3881 25.0787 26.4196 25.0812 26.4326 25.0759C26.4719 25.06 26.5005 25.018 26.5108 24.9682C26.5157 24.9053 26.5207 24.8424 26.5204 24.7665C26.507 24.6958 26.5067 24.6199 26.4802 24.5545C26.4668 24.4839 26.4509 24.4447 26.4351 24.4055C26.4086 24.3401 26.3821 24.2747 26.3426 24.2147C26.332 24.1885 26.3137 24.1808 26.3084 24.1677C26.3031 24.1546 26.29 24.1599 26.2586 24.1574Z" fill="#76BD1D"/>
<path d="M28.1357 24.8878C28.1333 24.9192 28.1308 24.9507 28.1127 25.0188C28.1025 25.0686 28.0975 25.1314 28.0742 25.1865C28.0508 25.2416 28.0275 25.2966 28.0042 25.3517C27.9808 25.4068 27.9469 25.4357 27.8947 25.4569C27.8555 25.4728 27.7979 25.4808 27.7351 25.4759C27.6722 25.4709 27.6224 25.4606 27.5621 25.4242C27.507 25.4009 27.4544 25.3462 27.4018 25.2914C27.3492 25.2367 27.3044 25.1635 27.2805 25.0668C27.2699 25.0407 27.2646 25.0276 27.254 25.0014C27.2434 24.9753 27.2381 24.9622 27.2406 24.9308C27.2272 24.8602 27.2114 24.821 27.1955 24.7818C27.1796 24.7426 27.1743 24.7295 27.169 24.7165C27.1133 24.5413 27.0682 24.3923 27.0545 24.2457C27.0461 24.1123 27.043 23.9919 27.0582 23.8792C27.0734 23.7666 27.0993 23.6801 27.1381 23.5883C27.177 23.4965 27.2028 23.41 27.2339 23.3366C27.265 23.2632 27.2909 23.1767 27.3036 23.0955C27.3164 23.0143 27.316 22.9383 27.2974 22.8547C27.2974 22.8547 27.2868 22.8285 27.284 22.784C27.2787 22.771 27.2681 22.7448 27.2392 22.7109C27.2102 22.677 27.1944 22.6378 27.1732 22.5855C27.1679 22.5725 27.1626 22.5594 27.1651 22.528C27.1676 22.4966 27.1701 22.4651 27.1856 22.4284C27.2012 22.3917 27.2167 22.355 27.2637 22.3208C27.2976 22.2918 27.3446 22.2576 27.4099 22.2311C27.423 22.2259 27.4361 22.2206 27.4675 22.223C27.4989 22.2255 27.5303 22.228 27.5618 22.2305C27.5932 22.233 27.6116 22.2408 27.6352 22.2616C27.6536 22.2694 27.6641 22.2955 27.6694 22.3086L27.6959 22.3739C27.6959 22.3739 27.7012 22.387 27.7248 22.4078C27.7432 22.4156 27.7485 22.4287 27.7485 22.4287C27.7908 22.5332 27.8331 22.6377 27.8518 22.7214C27.8705 22.8051 27.8891 22.8888 27.8842 22.9517C27.8845 23.0276 27.8534 23.101 27.8223 23.1744C27.7912 23.2479 27.7209 23.3372 27.6453 23.4134C27.541 23.5316 27.463 23.6393 27.4371 23.7258C27.3983 23.8176 27.4014 23.938 27.4204 24.0976C27.4338 24.1682 27.4419 24.2258 27.463 24.2781C27.4842 24.3303 27.4817 24.3617 27.487 24.3748C27.4923 24.3879 27.5081 24.4271 27.5293 24.4793C27.5505 24.5316 27.5769 24.597 27.5981 24.6492C27.6245 24.7146 27.6457 24.7668 27.6669 24.8191C27.688 24.8714 27.7039 24.9106 27.7222 24.9183C27.7776 25.0176 27.8327 25.0409 27.8903 25.0328C27.9033 25.0275 27.9111 25.0092 27.9136 24.9777C27.9161 24.9463 27.9316 24.9096 27.9341 24.8782C27.9366 24.8468 27.9469 24.797 27.9441 24.7525C27.9413 24.708 27.9438 24.6766 27.9279 24.6374C27.9173 24.6112 27.9014 24.572 27.8803 24.5198C27.8644 24.4806 27.8379 24.4152 27.8009 24.3238C27.7399 24.1355 27.6739 24.0102 27.6136 23.9738C27.5846 23.9398 27.5479 23.9243 27.5243 23.9035C27.5006 23.8826 27.4823 23.8748 27.4823 23.8748C27.4823 23.8748 27.4848 23.8434 27.4925 23.825C27.495 23.7936 27.5159 23.77 27.5314 23.7333C27.547 23.6965 27.5678 23.6729 27.5964 23.6309C27.6251 23.5889 27.6381 23.5836 27.6643 23.573L27.7165 23.5519L27.7557 23.536C27.7688 23.5307 27.7871 23.5385 27.8239 23.554C27.8606 23.5696 27.8842 23.5904 27.9209 23.606C27.9577 23.6215 27.9866 23.6554 28.0102 23.6763C28.0339 23.6971 28.0575 23.718 28.0575 23.718L28.0631 23.807L28.0843 23.8592C28.1055 23.9115 28.1266 23.9638 28.1241 23.9952C28.1347 24.0213 28.1453 24.0474 28.1428 24.0789C28.1534 24.105 28.1456 24.1234 28.1509 24.1364C28.1562 24.1495 28.1537 24.1809 28.1512 24.2123C28.1512 24.2123 28.1487 24.2438 28.1515 24.2883C28.1544 24.3327 28.1572 24.3772 28.1653 24.4348C28.1681 24.4793 28.1762 24.5368 28.1737 24.5683C28.1765 24.6128 28.1818 24.6258 28.1818 24.6258C28.1871 24.6389 28.1976 24.665 28.216 24.6728C28.2343 24.6806 28.2658 24.6831 28.305 24.6672L28.407 24.6563C28.4332 24.6457 28.4851 24.5486 28.5523 24.3389C28.5654 24.3336 28.5706 24.3467 28.5812 24.3728C28.5918 24.399 28.5971 24.412 28.5946 24.4435C28.6052 24.4696 28.6105 24.4827 28.608 24.5141L28.645 24.6056C28.6503 24.6186 28.6478 24.6501 28.6323 24.6868C28.6167 24.7235 28.5959 24.7471 28.5673 24.7891C28.5386 24.8311 28.5178 24.8548 28.4839 24.8837C28.45 24.9127 28.4238 24.9232 28.4108 24.9285C28.3846 24.9391 28.3532 24.9366 28.3218 24.9341C28.3087 24.9394 28.2406 24.9214 28.1357 24.8878Z" fill="#76BD1D"/>
<path d="M28.3962 23.2768C28.4354 23.2609 28.4824 23.2266 28.5503 23.1688C28.6181 23.1109 28.7043 23.0607 28.8036 23.0053L28.9291 22.9393C28.9683 22.9234 29.0128 22.9206 29.0679 22.944C29.123 22.9673 29.1781 22.9907 29.2254 23.0324C29.2727 23.0741 29.3253 23.1288 29.3779 23.1836C29.4174 23.2437 29.457 23.3037 29.4834 23.3691C29.5152 23.4475 29.5208 23.5366 29.5264 23.6256C29.532 23.7146 29.5193 23.7958 29.4828 23.8562C29.4284 23.9848 29.3973 24.0582 29.3817 24.0949C29.3662 24.1317 29.3322 24.1606 29.3061 24.1712C29.293 24.1765 29.2799 24.1818 29.2722 24.2002C29.2644 24.2185 29.2513 24.2238 29.2382 24.2291C29.2382 24.2291 29.2121 24.2397 29.1676 24.2425C29.1231 24.2453 29.0969 24.2559 29.0708 24.2665C29.0446 24.2771 29.0369 24.2954 29.0527 24.3346C29.0845 24.4131 29.1293 24.4862 29.2081 24.5304C29.2868 24.5746 29.3366 24.5849 29.4073 24.5715C29.5511 24.5132 29.6553 24.395 29.7331 24.2113C29.7331 24.2113 29.7409 24.193 29.7642 24.1379C29.7876 24.0828 29.8109 24.0277 29.8212 23.9779C29.8314 23.9281 29.847 23.8913 29.847 23.8913C29.8601 23.8861 29.8654 23.8991 29.8707 23.9122C29.876 23.9253 29.8812 23.9383 29.8865 23.9514L29.9342 24.0691C29.9395 24.0821 29.9395 24.0821 29.9448 24.0952C29.9501 24.1083 29.9553 24.1213 29.9606 24.1344C29.9765 24.1736 29.9715 24.2365 29.9457 24.323C29.9199 24.4096 29.881 24.5014 29.8237 24.5854C29.7718 24.6825 29.7092 24.7535 29.6205 24.8351C29.5449 24.9113 29.464 24.9745 29.3672 24.9985C29.328 25.0144 29.2704 25.0225 29.2206 25.0122C29.1708 25.0019 29.1026 24.9839 29.0475 24.9606C28.9373 24.9139 28.8586 24.8697 28.7876 24.8071C28.735 24.7524 28.6849 24.6662 28.6372 24.5485C28.6002 24.457 28.5762 24.3602 28.5498 24.2948C28.5311 24.2111 28.5046 24.1458 28.4912 24.0751C28.4778 24.0045 28.4592 23.9207 28.4405 23.837C28.4218 23.7533 28.4162 23.6643 28.4 23.5491C28.3972 23.5046 28.3891 23.447 28.3863 23.4025C28.3965 23.3527 28.399 23.3213 28.3962 23.2768ZM28.8961 23.1961L28.8516 23.1989C28.8332 23.1911 28.8229 23.2409 28.8286 23.33C28.8342 23.419 28.8451 23.5211 28.856 23.6231C28.8722 23.7383 28.8831 23.8404 28.9018 23.9241C28.9127 24.0262 28.9338 24.0785 28.9391 24.0916C28.9444 24.1046 28.9628 24.1124 28.9942 24.1149C29.0256 24.1174 29.0571 24.1199 29.0702 24.1146C29.1094 24.0987 29.138 24.0567 29.1483 24.0069C29.1532 23.944 29.1582 23.8811 29.1579 23.8052C29.1445 23.7345 29.1442 23.6586 29.1177 23.5932C29.1043 23.5226 29.0885 23.4834 29.0726 23.4442C29.0461 23.3788 29.0197 23.3134 28.9801 23.2534C28.9695 23.2272 28.9512 23.2194 28.9459 23.2064C28.9459 23.2064 28.9275 23.1986 28.8961 23.1961Z" fill="#76BD1D"/>
<path d="M25.1306 29.4814L24.4197 27.5023L24.9504 27.2725L25.4756 28.7183L25.5933 28.6707L25.084 27.2641L25.6331 27.0421L26.1477 28.4617L26.2654 28.4141L25.7402 26.9684L26.3472 26.8142L27.0529 28.7802L25.1306 29.4814Z" fill="#76BD1D"/>
<path d="M28.4442 28.2768L27.3434 28.6769L26.6174 26.6582L27.6659 26.2793L27.8462 26.7997L27.3286 27.0245L27.4475 27.2806L27.9365 27.0979L28.0875 27.5084L27.6247 27.6805L27.7069 27.9211L28.235 27.7225L28.4442 28.2768Z" fill="#76BD1D"/>
<path d="M28.5047 26.1376L28.5309 26.127C28.5439 26.1217 28.5439 26.1217 28.557 26.1164C28.557 26.1164 28.557 26.1164 28.5701 26.1111L28.4985 25.8967L29.0711 25.6952L29.148 25.9228C29.1611 25.9175 29.1873 25.9069 29.2187 25.9094C29.4254 25.8561 29.5878 25.8816 29.7376 25.9884C29.882 26.082 29.9822 26.2545 30.033 26.4926C30.1183 26.8536 30.0461 27.1263 29.7981 27.3028C29.7249 27.3476 29.6726 27.3688 29.6073 27.3952L29.7713 27.8005L29.1987 28.0019L29.0632 27.5546C28.9848 27.5864 28.9141 27.5998 28.8382 27.6001C28.5344 27.6014 28.3268 27.4268 28.1839 27.0738C28.0939 26.8516 28.0774 26.6605 28.1291 26.4875C28.1913 26.3405 28.3217 26.2117 28.5047 26.1376ZM28.792 26.5842C28.7136 26.6159 28.6588 26.6685 28.6224 26.7289C28.5913 26.8024 28.5863 26.8653 28.6181 26.9437C28.6393 26.996 28.6735 27.043 28.7417 27.061C28.8098 27.0791 28.8674 27.071 28.925 27.0629L28.792 26.5842ZM29.4192 26.8932C29.4846 26.8667 29.5369 26.8456 29.5733 26.7852C29.615 26.7379 29.62 26.675 29.6119 26.6174C29.5932 26.5337 29.5536 26.4736 29.4802 26.4425C29.4198 26.4061 29.3439 26.4064 29.2732 26.4198L29.4192 26.8932Z" fill="#76BD1D"/>
<path d="M30.3366 26.7187L30.1777 26.2509L30.8283 26.0179L31.0003 26.4804L30.3366 26.7187Z" fill="#76BD1D"/>
<path d="M32.2686 24.6137L32.9816 26.6377L32.3697 26.855L31.8345 25.3829L31.5416 25.4862L32.0768 26.9584L31.478 27.1704L30.752 25.1517L32.2686 24.6137Z" fill="#76BD1D"/>
<path d="M33.0524 24.2963C33.1701 24.2487 33.2775 24.2509 33.3954 24.2792C33.5134 24.3075 33.6105 24.3595 33.7235 24.4506C33.8312 24.5288 33.9233 24.6436 34.0077 24.7768C34.092 24.91 34.1686 25.0616 34.2374 25.2315C34.2904 25.3622 34.3118 25.4905 34.3097 25.5979C34.3128 25.7183 34.3053 25.8126 34.2717 25.9175C34.2328 26.0093 34.1886 26.0881 34.113 26.1643C34.0374 26.2406 33.9512 26.2907 33.8335 26.3384C33.5799 26.4258 33.3598 26.4084 33.1681 26.2731C32.9763 26.1377 32.8182 25.8974 32.6884 25.5392C32.6302 25.3954 32.6034 25.2541 32.595 25.1206C32.5866 24.987 32.5834 24.8666 32.617 24.7617C32.6506 24.6568 32.7026 24.5597 32.7652 24.4887C32.8486 24.3941 32.9426 24.3256 33.0524 24.2963ZM33.619 25.771C33.6452 25.7604 33.666 25.7367 33.6869 25.7131C33.7024 25.6763 33.718 25.6396 33.7205 25.6082C33.7177 25.5637 33.7279 25.5139 33.7251 25.4694C33.717 25.4118 33.7012 25.3726 33.6931 25.315C33.5738 24.9829 33.4319 24.8578 33.2567 24.9135C33.139 24.9611 33.1213 25.1053 33.2088 25.3589C33.2405 25.4373 33.267 25.5027 33.3065 25.5628C33.3461 25.6228 33.3803 25.6698 33.4092 25.7038C33.4382 25.7377 33.4802 25.7663 33.5169 25.7819C33.5484 25.7844 33.5929 25.7816 33.619 25.771Z" fill="#76BD1D"/>
<path d="M35.2586 24.6356C35.3031 24.6328 35.3529 24.643 35.3897 24.6586C35.4448 24.6819 35.4868 24.7106 35.5157 24.7445C35.563 24.7862 35.5973 24.8332 35.6315 24.8802C35.6658 24.9272 35.6922 24.9925 35.7187 25.0579C35.7505 25.1363 35.7508 25.2123 35.7327 25.2804C35.72 25.3617 35.6836 25.4221 35.6524 25.4955C35.603 25.5612 35.5535 25.6269 35.4673 25.677C35.3994 25.7349 35.3079 25.7719 35.2033 25.8143L34.6621 26.0182L33.8654 24.0129C34.0615 23.9335 34.2053 23.8753 34.3099 23.833C34.4014 23.7959 34.4537 23.7747 34.4537 23.7747C34.655 23.7084 34.8278 23.6841 34.9747 23.7464C35.1163 23.7955 35.2215 23.9051 35.2903 24.075C35.3115 24.1273 35.3249 24.198 35.333 24.2555C35.3411 24.3131 35.3492 24.3707 35.3389 24.4205C35.3287 24.4703 35.3315 24.5148 35.3159 24.5515C35.3134 24.583 35.2979 24.6197 35.2586 24.6356ZM35.0393 25.409C35.1961 25.3455 35.2534 25.2615 35.2058 25.1438C35.1581 25.0262 35.0532 24.9926 34.8911 25.043C34.8649 25.0536 34.8519 25.0589 34.8519 25.0589L34.987 25.4302L35.0393 25.409ZM34.6875 24.5777C34.7006 24.5724 34.7006 24.5724 34.7136 24.5671C34.7267 24.5619 34.7267 24.5619 34.7398 24.5566C34.8574 24.5089 34.8938 24.4485 34.8515 24.344C34.8303 24.2917 34.7961 24.2447 34.7463 24.2344C34.6965 24.2242 34.6336 24.2192 34.5682 24.2456L34.5421 24.2562L34.6875 24.5777Z" fill="#76BD1D"/>
<path d="M37.6052 24.8722L36.9933 25.0895L36.785 24.763L36.466 24.8769L36.5516 25.3139L35.9659 25.5206L35.6921 23.3036L36.4608 23.0228L37.6052 24.8722ZM36.5733 24.2401L36.2673 23.7098L36.3589 24.3117L36.5733 24.2401Z" fill="#76BD1D"/>
<path d="M37.6237 22.628C37.8251 22.5617 37.9954 22.5688 38.1476 22.6441C38.3051 22.7325 38.4131 22.8865 38.5031 23.1088C38.6329 23.467 38.5791 23.7474 38.3232 23.9423C38.2685 23.9949 38.1953 24.0397 38.1247 24.0531L38.3681 24.6544L37.7693 24.8664L37.0486 22.8608L37.54 22.6466C37.5531 22.6414 37.5792 22.6308 37.5923 22.6255C37.6054 22.6202 37.6184 22.6149 37.6184 22.6149L37.6237 22.628ZM37.908 23.5931C37.9734 23.5667 38.0151 23.5193 38.0437 23.4773C38.0801 23.4169 38.0773 23.3724 38.0639 23.3018C38.0321 23.2233 37.9979 23.1764 37.9244 23.1452C37.851 23.1141 37.7881 23.1091 37.7097 23.1409L37.908 23.5931Z" fill="#76BD1D"/>
<path d="M32.5947 22.6413C32.5343 22.6049 32.4923 22.5763 32.4425 22.5661C32.4058 22.5505 32.356 22.5402 32.3246 22.5378C32.2381 22.5119 32.1491 22.5176 32.0471 22.5284C31.9136 22.5369 31.7723 22.5636 31.6364 22.6035C31.3645 22.6831 30.5935 22.9953 30.5963 23.0398C30.6203 23.1365 31.4357 22.8216 31.6423 22.7684C31.7783 22.7285 31.9432 22.7226 31.9668 22.7434C32.0144 22.8611 31.792 22.8751 31.6221 22.9438C30.7622 23.2616 30.3602 23.546 31.0217 23.339C31.2621 23.2569 31.5079 23.1878 31.7431 23.0926C31.8346 23.0555 31.9522 23.0079 32.049 22.9839C32.1327 22.9653 32.2322 22.9858 32.1619 23.0751C32.1489 23.0804 31.9634 23.1859 31.8667 23.2098C31.8536 23.2151 31.7046 23.2603 31.6915 23.2655C31.3673 23.3664 31.1162 23.4224 30.8002 23.5808C30.7348 23.6073 30.7351 23.6832 30.9025 23.6458C31.1405 23.5951 31.381 23.5129 31.6137 23.4491C31.815 23.3828 32.0919 23.2403 32.1367 23.3134C32.0509 23.4394 31.9488 23.4503 31.8104 23.5216C31.6536 23.5851 31.2877 23.7332 31.1178 23.802C30.8565 23.9078 30.8307 23.9943 31.1393 23.9302C31.5055 23.858 32.091 23.6513 32.4227 23.4562C32.6289 23.3271 32.7484 23.0962 32.9363 22.9593C33.1503 22.8118 33.4276 22.7452 33.6575 22.6369C33.6836 22.6263 33.7097 22.6157 33.7359 22.6051C33.9686 22.5413 34.1907 22.4514 34.4182 22.3745C34.7162 22.2843 34.9987 22.2307 35.3154 22.2242C35.6007 22.2151 35.9016 22.1694 36.1682 22.0766C36.2728 22.0343 36.372 21.9789 36.466 21.9105C36.6592 21.7866 36.8181 21.6158 36.8355 21.3958C36.8327 21.3513 36.7777 21.328 36.7385 21.3439C36.7148 21.323 36.6912 21.3022 36.6545 21.2866C36.539 21.2269 36.408 21.2039 36.2851 21.2384C36.0577 21.3153 35.8409 21.4183 35.6293 21.5344C35.5167 21.5191 35.3079 21.6797 35.2426 21.7062C35.0911 21.7827 34.9579 21.867 34.8064 21.9436C34.2 22.1739 33.5591 22.2813 32.9739 22.5638C32.8955 22.5956 32.8302 22.622 32.7571 22.6668C32.7465 22.6407 32.6706 22.641 32.5947 22.6413ZM33.5679 22.4907C33.594 22.4801 33.6254 22.4826 33.6515 22.472C33.5862 22.4984 33.5078 22.5302 33.4425 22.5566L33.4294 22.5619C33.2882 22.5887 33.1391 22.6338 32.9954 22.692C32.9954 22.692 32.9901 22.6789 32.9848 22.6659C33.024 22.65 33.0579 22.6211 33.1102 22.5999C33.2776 22.5626 33.4319 22.5305 33.5679 22.4907ZM35.876 21.693C35.9283 21.6719 35.9622 21.6429 36.0145 21.6218C36.0668 21.6006 36.119 21.5794 36.1766 21.5713C36.1635 21.5766 36.1374 21.5872 36.1243 21.5925C36.0851 21.6084 36.059 21.619 36.0251 21.6479C35.9728 21.6691 35.9152 21.6772 35.876 21.693ZM36.5972 21.3706C36.5972 21.3706 36.5841 21.3759 36.5972 21.3706C36.5789 21.3629 36.5736 21.3498 36.5605 21.3551C36.5919 21.3576 36.6103 21.3653 36.6209 21.3915C36.6156 21.3784 36.5972 21.3706 36.5972 21.3706ZM32.9354 22.7315C32.9484 22.7262 32.9484 22.7262 32.9615 22.721C32.9484 22.7262 32.9484 22.7262 32.9354 22.7315ZM32.6398 22.7904C32.6398 22.7904 32.6451 22.8034 32.6504 22.8165C32.6504 22.8165 32.6504 22.8165 32.6557 22.8296C32.6557 22.8296 32.6557 22.8296 32.6426 22.8349C32.632 22.8087 32.6267 22.7957 32.6031 22.7748C32.6161 22.7695 32.6214 22.7826 32.6398 22.7904C32.6398 22.7904 32.6345 22.7773 32.6398 22.7904ZM32.3312 22.8545C32.3626 22.857 32.394 22.8595 32.4071 22.8542L32.4124 22.8672C32.4046 22.8856 32.389 22.9223 32.3682 22.946C32.3523 22.9068 32.3287 22.8859 32.3128 22.8467C32.3181 22.8598 32.3181 22.8598 32.3312 22.8545ZM32.5418 23.1494C32.5549 23.1441 32.5549 23.1441 32.5418 23.1494C32.5496 23.1311 32.5496 23.1311 32.5496 23.1311C32.5496 23.1311 32.5496 23.1311 32.5679 23.1388C32.5602 23.1572 32.5602 23.1572 32.5524 23.1756C32.5446 23.1939 32.5368 23.2123 32.5238 23.2176C32.5316 23.1992 32.5393 23.1808 32.5418 23.1494ZM35.4532 22.0011C35.4532 22.0011 35.4585 22.0142 35.4532 22.0011C35.4402 22.0064 35.414 22.017 35.3879 22.0275C35.401 22.0222 35.4271 22.0117 35.4532 22.0011ZM35.7174 21.9398C35.7958 21.908 35.8873 21.871 35.971 21.8523C35.9579 21.8576 35.9318 21.8682 35.9187 21.8735C35.8664 21.8946 35.8142 21.9158 35.775 21.9317C35.7488 21.9423 35.7305 21.9345 35.7174 21.9398ZM36.5851 21.6037C36.5773 21.622 36.5695 21.6404 36.5565 21.6457C36.5512 21.6326 36.5643 21.6273 36.559 21.6142C36.572 21.609 36.572 21.609 36.5851 21.6037ZM36.4715 21.3607C36.4584 21.366 36.4584 21.366 36.4454 21.3713C36.4454 21.3713 36.4401 21.3582 36.427 21.3635C36.4401 21.3582 36.4584 21.366 36.4715 21.3607ZM35.4003 21.8704C35.3611 21.8863 35.3089 21.9074 35.2697 21.9233C35.3036 21.8944 35.3375 21.8654 35.3767 21.8496C35.3767 21.8496 35.3951 21.8573 35.4003 21.8704ZM31.5624 23.0593C31.6277 23.0328 31.693 23.0064 31.7453 22.9852C31.7453 22.9852 31.7742 23.0191 31.7926 23.0269C31.6619 23.0798 31.5023 23.0988 31.3533 23.1439C31.4317 23.1122 31.497 23.0857 31.5624 23.0593ZM35.0584 22.1153C35.0715 22.11 35.0846 22.1047 35.0976 22.0994C35.0976 22.0994 35.1029 22.1125 35.116 22.1072L35.1029 22.1125C35.0899 22.1178 35.0768 22.1231 35.0584 22.1153ZM36.1853 21.7807C36.2506 21.7543 36.3343 21.7356 36.3997 21.7092C36.3371 21.7801 36.251 21.8302 36.1411 21.8595C36.1751 21.8305 36.1775 21.7991 36.1853 21.7807ZM35.0786 21.9398C35.0578 21.9635 35.05 21.9818 35.0422 22.0002C34.9377 22.0425 34.8148 22.0771 34.7103 22.1194C34.6972 22.1247 34.6841 22.13 34.658 22.1405C34.7364 22.1088 34.7965 22.0693 34.8749 22.0375C34.9402 22.0111 35.0186 21.9793 35.0786 21.9398ZM35.5923 22.0817C35.6054 22.0764 35.6185 22.0711 35.6368 22.0789C35.6944 22.0708 35.7911 22.0468 35.8826 22.0098C35.9087 21.9992 35.9402 22.0017 35.9663 21.9911C36.05 21.9724 36.152 21.9615 36.2435 21.9245C36.0581 22.03 35.8279 22.0623 35.5923 22.0817Z" fill="#76BD1D"/>
<path d="M23.2796 28.4821C23.0755 28.5038 22.8533 28.5938 22.7043 28.6389C22.3723 28.7581 22.0432 28.9218 21.7218 29.0671C20.7368 29.5267 19.6802 29.772 18.6371 30.0879C18.3913 30.157 18.1377 30.2444 17.8972 30.3266C17.722 30.3823 17.5285 30.4302 17.364 30.5121C17.1655 30.6229 17.0435 30.8852 17.3892 30.9125C17.5018 30.9277 17.6039 30.9168 17.719 30.9007C17.8917 30.8764 18.0513 30.8574 18.2292 30.8462C18.9672 30.7907 19.8048 30.7558 20.4628 30.3525C20.6221 30.2576 20.8022 30.139 20.9273 29.9972C20.9689 29.9499 20.9923 29.8948 21.0103 29.8266C21.0234 29.8214 21.0365 29.8161 21.0365 29.8161C21.0495 29.8108 21.0495 29.8108 21.0573 29.7924C21.3967 29.579 21.7676 29.368 22.1652 29.2982C22.4346 29.25 22.7146 29.2279 22.9865 29.1482C23.1356 29.1031 23.2924 29.0396 23.4255 28.9553C23.6474 28.7894 23.5804 28.4363 23.2796 28.4821ZM21.8117 29.2893C21.8379 29.2787 21.8718 29.2497 21.8979 29.2392C21.911 29.2339 21.924 29.2286 21.9371 29.2233C22.06 29.1887 22.1882 29.1673 22.3164 29.1458C22.3609 29.143 22.4131 29.1218 22.4576 29.119C22.4629 29.1321 22.4943 29.1346 22.4996 29.1476L22.518 29.1554C22.3714 29.1691 22.2171 29.2012 22.0628 29.2332C21.9738 29.2388 21.8954 29.2706 21.8117 29.2893ZM19.3636 30.4173C19.2485 30.4335 19.1517 30.4575 19.0366 30.4737C19.3583 30.4043 19.6694 30.3087 19.9858 30.2262C20.1218 30.1864 20.2814 30.1674 20.4251 30.1092C20.4251 30.1092 20.412 30.1145 20.4173 30.1276C20.1065 30.299 19.722 30.3635 19.3636 30.4173ZM20.2521 30.0576L20.2652 30.0523C20.2783 30.047 20.2783 30.047 20.2913 30.0417C20.2835 30.0601 20.2705 30.0654 20.2521 30.0576ZM18.6613 30.2606C18.8626 30.1943 19.077 30.1227 19.2783 30.0564C19.2235 30.109 19.1635 30.1485 19.0982 30.175C18.9336 30.2568 18.7634 30.2497 18.5829 30.2923C18.5568 30.3029 18.5384 30.2951 18.5123 30.3057C18.5568 30.3029 18.6091 30.2817 18.6613 30.2606ZM18.3717 30.4843C18.3664 30.4712 18.348 30.4635 18.3428 30.4504C18.4134 30.437 18.484 30.4236 18.5493 30.3972C18.62 30.3838 18.6906 30.3704 18.7612 30.357C18.6305 30.4099 18.5077 30.4445 18.3717 30.4843ZM19.8797 29.889C20.0026 29.8544 20.1255 29.8199 20.2536 29.7984C20.2589 29.8115 20.2773 29.8192 20.2904 29.814C20.2565 29.8429 20.2173 29.8588 20.1833 29.8877C20.0262 29.8753 19.8956 29.9282 19.7493 30.0178C19.7232 30.0284 19.7285 30.0414 19.7338 30.0545C19.5717 30.1049 19.4018 30.1737 19.2397 30.2241C19.2659 30.2135 19.2736 30.1952 19.2998 30.1846C19.4407 30.0819 19.5686 29.9845 19.7384 29.9157C19.7829 29.9129 19.8352 29.8918 19.8797 29.889ZM20.4867 29.8105C20.4945 29.7922 20.4839 29.766 20.4655 29.7583C20.4472 29.7505 20.4419 29.7374 20.4235 29.7296C20.5072 29.711 20.5856 29.6792 20.664 29.6475C20.6485 29.6842 20.6382 29.734 20.6226 29.7707C20.5626 29.8102 20.5156 29.8444 20.4503 29.8709C20.4634 29.8656 20.4842 29.8419 20.4867 29.8105ZM17.9797 30.643C17.8804 30.6984 17.7706 30.7277 17.6686 30.7386C17.7731 30.6962 17.8829 30.667 17.9797 30.643ZM20.8053 29.6207L20.8183 29.6154C20.8183 29.6154 20.8183 29.6154 20.8236 29.6285C20.8106 29.6338 20.8028 29.6521 20.7897 29.6574C20.7975 29.6391 20.8053 29.6207 20.8053 29.6207ZM22.4725 28.9305C22.5117 28.9146 22.564 28.8934 22.6032 28.8776C22.6085 28.8906 22.6085 28.8906 22.6138 28.9037C22.5799 28.9326 22.5537 28.9432 22.5198 28.9721C22.5093 28.946 22.4909 28.9382 22.4725 28.9305ZM18.2569 30.5764C18.27 30.5711 18.2647 30.5581 18.2647 30.5581C18.2777 30.5528 18.3039 30.5422 18.3169 30.5369C18.2961 30.5605 18.325 30.5945 18.3565 30.5969C18.3042 30.6181 18.2519 30.6393 18.1997 30.6604C18.1735 30.671 18.1605 30.6763 18.1343 30.6869C18.1813 30.6526 18.2283 30.6184 18.2569 30.5764ZM20.725 29.8357C20.7511 29.8251 20.772 29.8015 20.7981 29.7909C20.7695 29.8329 20.7278 29.8802 20.6861 29.9275C20.6939 29.9091 20.7095 29.8724 20.725 29.8357ZM22.737 28.9451C22.7501 28.9398 22.7501 28.9398 22.7631 28.9345C22.8076 28.9317 22.8521 28.9289 22.8966 28.9261C22.8391 28.9342 22.7815 28.9423 22.737 28.9451ZM23.0715 28.7944C23.1368 28.768 23.2074 28.7546 23.265 28.7465C23.2572 28.7649 23.2311 28.7754 23.2233 28.7938C23.1788 28.7966 23.1159 28.7916 23.0715 28.7944ZM19.1421 30.6591C18.8412 30.7049 18.5298 30.7245 18.2236 30.7572C18.3204 30.7332 18.3988 30.7015 18.4955 30.6775C18.5061 30.7036 18.5298 30.7245 18.5559 30.7139C19.0008 30.6859 19.4165 30.548 19.848 30.4493C19.9892 30.4226 20.1252 30.3827 20.2612 30.3429C20.2742 30.3376 20.2873 30.3323 20.3004 30.327C19.9373 30.5196 19.5319 30.6077 19.1421 30.6591ZM20.5066 30.1979C20.5066 30.1979 20.5197 30.1926 20.5144 30.1795C20.5745 30.14 20.6345 30.1005 20.6945 30.061C20.6398 30.1135 20.5667 30.1584 20.5066 30.1979ZM20.7154 30.0373L20.7023 30.0426C20.7076 30.0557 20.7076 30.0557 20.7154 30.0373ZM21.0542 29.672C21.0567 29.6406 21.0722 29.6039 21.0747 29.5725L21.0878 29.5672C21.1453 29.5591 21.2107 29.5326 21.2629 29.5115C21.3021 29.4956 21.3544 29.4744 21.3989 29.4716C21.2866 29.5323 21.1743 29.593 21.0542 29.672ZM23.3832 28.8507C23.3415 28.898 23.2945 28.9323 23.2292 28.9587C23.2631 28.9298 23.297 28.9008 23.3309 28.8719C23.344 28.8666 23.3387 28.8535 23.3334 28.8405C23.3673 28.8115 23.4037 28.7512 23.414 28.7014C23.4165 28.67 23.3928 28.6491 23.3745 28.6413C23.4006 28.6308 23.4398 28.6149 23.4476 28.5965C23.4476 28.5965 23.4476 28.5965 23.4529 28.6096C23.503 28.6958 23.438 28.7981 23.3832 28.8507Z" fill="#76BD1D"/>
</svg>
