<svg width="55" height="56" viewBox="0 0 55 56" fill="none" xmlns="http://www.w3.org/2000/svg">
<circle cx="27.4998" cy="28.2651" r="27.5" fill="white"/>
<path d="M34.7788 30.8104C33.3005 30.8104 31.9266 31.2973 30.8302 32.1357L21.9501 27.9474L30.8426 23.7305C31.9345 24.5472 33.3028 25.0324 34.7788 25.0324C38.2988 25.0324 41.2303 22.265 41.2303 18.7523C41.2303 15.2396 38.2988 12.4722 34.7788 12.4722C31.2727 12.4722 28.3505 15.2177 28.3275 18.7106L19.3446 22.9704C18.2526 22.1537 16.8844 21.6685 15.4083 21.6685C11.8883 21.6685 8.95685 24.4359 8.95685 27.9486C8.95685 31.4613 11.8883 34.2287 15.4083 34.2287C16.8867 34.2287 18.2606 33.7417 19.3569 32.9033L28.3275 37.1343C28.3517 40.6262 31.2735 43.3706 34.7788 43.3706C38.2988 43.3706 41.2303 40.6032 41.2303 37.0905C41.2303 33.5778 38.2988 30.8104 34.7788 30.8104Z" fill="white" stroke="#76BD1D" stroke-width="2.71094" stroke-linejoin="round"/>
</svg>
