<svg width="55" height="56" viewBox="0 0 55 56" fill="none" xmlns="http://www.w3.org/2000/svg">
<circle cx="27.4998" cy="28.2651" r="27.5" fill="white"/>
<path d="M44.0923 37.7793C43.8559 36.7972 42.9284 32.9598 42.2191 30.6864C41.819 28.7404 41.1824 27.2673 40.0367 25.5577C39.6002 24.9212 37.0904 21.4111 36.7448 20.9747V15.2276C36.7448 13.6999 35.5081 12.4451 33.9623 12.4451H27.5969L28.9427 10.9355C29.4883 10.3172 29.4337 9.38967 28.8154 8.84406C28.5244 8.58945 28.1425 8.44396 27.7424 8.48033C27.3423 8.49852 26.9785 8.68038 26.7239 8.97137L25.1598 10.7355C25.0856 10.8098 25.0356 10.8961 24.99 10.9749C24.9798 10.9925 24.9698 11.0098 24.9598 11.0265V8.42577C24.9598 7.60736 24.3051 6.95264 23.4867 6.95264C22.6683 6.95264 22.0135 7.60736 22.0135 8.42577V11.0265C21.959 10.9174 21.8862 10.8264 21.8135 10.7355L20.2494 8.97137C19.9948 8.68038 19.6311 8.49852 19.2309 8.48033C18.8308 8.46214 18.4489 8.58945 18.1579 8.84406C17.8669 9.09868 17.6851 9.46242 17.6669 9.86253C17.6487 10.2626 17.776 10.6446 18.0306 10.9355L19.3764 12.4451H18.5944C17.0667 12.4451 15.8118 13.6818 15.8118 15.2276V41.9622C15.8118 42.1259 15.83 42.2532 15.8482 42.3805L15.9028 42.7261L15.9391 42.7625C15.9391 42.7715 15.9437 42.7806 15.9482 42.7897C15.9528 42.7988 15.9573 42.8079 15.9573 42.817C15.9664 42.8352 15.971 42.8534 15.9755 42.8716C15.9801 42.8898 15.9846 42.908 15.9937 42.9261C16.0016 42.9459 16.0095 42.9665 16.0176 42.9875C16.0467 43.0636 16.0783 43.1459 16.121 43.2171C16.1574 43.2899 16.1938 43.3626 16.2301 43.4172L16.2665 43.4717C16.2847 43.4899 16.2983 43.5127 16.312 43.5354C16.3256 43.5581 16.3392 43.5809 16.3574 43.5991C16.4302 43.7082 16.5211 43.8173 16.6302 43.9264L16.6848 43.981C17.194 44.4902 17.8669 44.7812 18.5762 44.7812H31.9072L31.7617 45.4177L34.1259 46.2179L36.5084 47.0364L38.8545 49.3825L47.7842 41.9259L44.0923 37.7793Z" fill="#76BD1D"/>
<path d="M44.0923 37.7793C43.8559 36.7972 42.9284 32.9598 42.2191 30.6864C41.819 28.7404 41.1824 27.2673 40.0367 25.5577C39.6002 24.9212 37.0904 21.4111 36.7448 20.9747V15.2276C36.7448 13.6999 35.5081 12.4451 33.9623 12.4451H27.5969L28.9427 10.9355C29.4883 10.3172 29.4337 9.38967 28.8154 8.84406C28.5244 8.58945 28.1425 8.44396 27.7424 8.48033C27.3423 8.49852 26.9785 8.68038 26.7239 8.97137L25.1598 10.7355C25.0856 10.8098 25.0356 10.8961 24.99 10.9749C24.9798 10.9925 24.9698 11.0098 24.9598 11.0265V8.42577C24.9598 7.60736 24.3051 6.95264 23.4867 6.95264C22.6683 6.95264 22.0135 7.60736 22.0135 8.42577V11.0265C21.959 10.9174 21.8862 10.8264 21.8135 10.7355L20.2494 8.97137C19.9948 8.68038 19.6311 8.49852 19.2309 8.48033C18.8308 8.46214 18.4489 8.58945 18.1579 8.84406C17.8669 9.09868 17.6851 9.46242 17.6669 9.86253C17.6487 10.2626 17.776 10.6446 18.0306 10.9355L19.3764 12.4451H18.5944C17.0667 12.4451 15.8118 13.6818 15.8118 15.2276V41.9622C15.8118 42.1259 15.83 42.2532 15.8482 42.3805L15.9028 42.7261L15.9391 42.7625C15.9391 42.7715 15.9437 42.7806 15.9482 42.7897C15.9528 42.7988 15.9573 42.8079 15.9573 42.817C15.9664 42.8352 15.971 42.8534 15.9755 42.8716C15.9801 42.8898 15.9846 42.908 15.9937 42.9261C16.0016 42.9459 16.0095 42.9665 16.0176 42.9875C16.0467 43.0636 16.0783 43.1459 16.121 43.2171C16.1574 43.2899 16.1938 43.3626 16.2301 43.4172L16.2665 43.4717C16.2847 43.4899 16.2983 43.5127 16.312 43.5354C16.3256 43.5581 16.3392 43.5809 16.3574 43.5991C16.4302 43.7082 16.5211 43.8173 16.6302 43.9264L16.6848 43.981C17.194 44.4902 17.8669 44.7812 18.5762 44.7812H31.9072L31.7617 45.4177L34.1259 46.2179L36.5084 47.0364L38.8545 49.3825L47.7842 41.9259L44.0923 37.7793Z" stroke="#76BD1D"/>
<path d="M23.4862 11.6087C23.7954 11.6087 24.05 11.3541 24.05 11.0449V8.42578C24.05 8.11657 23.7954 7.86194 23.4862 7.86194C23.177 7.86194 22.9224 8.11657 22.9224 8.42578V11.0267C22.9224 11.3541 23.177 11.6087 23.4862 11.6087Z" fill="white"/>
<path d="M20.2681 12.0822C20.3773 12.2096 20.5409 12.2823 20.6864 12.2823C20.8137 12.2823 20.9592 12.2277 21.0684 12.1368C21.3048 11.9368 21.323 11.573 21.1229 11.3366L19.5588 9.57247C19.3588 9.33604 18.9951 9.31785 18.7586 9.51791C18.5222 9.71796 18.504 10.0817 18.7041 10.3181L20.2681 12.0822Z" fill="white"/>
<path d="M26.2689 12.2814C26.4326 12.2814 26.5781 12.2086 26.6872 12.0813L28.2513 10.3172C28.4513 10.0808 28.4331 9.71704 28.1967 9.51699C27.9603 9.29875 27.5965 9.33512 27.3965 9.57155L25.8324 11.3357C25.6324 11.5721 25.6506 11.9358 25.887 12.1359C25.9961 12.2268 26.1416 12.2814 26.2689 12.2814Z" fill="white"/>
<path d="M46.4383 41.7803L43.2556 38.2157C43.2556 38.2157 42.128 33.4689 41.3278 30.9046C40.8913 28.8313 40.2184 27.4491 39.2727 26.0487C38.818 25.3758 36.3264 21.9021 36.0173 21.5202C35.6353 21.0292 35.3807 21.011 35.2716 21.0474C35.2352 21.0655 35.1989 21.0655 35.1625 21.0837C34.5623 21.3747 33.8712 22.2477 34.5078 23.8299C34.5078 23.8299 35.5262 25.8305 35.6172 25.9942C36.8902 28.3039 36.672 30.5591 36.672 30.5591C36.672 30.5591 36.3446 31.232 36.3083 31.9594C36.2719 32.887 36.5447 38.6522 36.2355 41.8712C36.0536 43.799 34.5441 44.8721 31.998 44.472L34.3623 45.2722L36.9266 46.1633L38.8362 48.0729L46.4383 41.7803Z" fill="white"/>
<path d="M32.9803 43.8173C33.9805 43.8173 35.2354 43.3808 35.3809 41.7985C35.5992 39.5616 35.5264 35.9424 35.4718 33.7963C35.4537 32.8506 35.4355 32.2323 35.4537 31.9413C35.49 31.2866 35.6173 27.7947 34.8717 26.4489C34.7808 26.267 33.9078 24.5938 33.7441 24.2665L33.7259 24.2301L33.7077 24.1937C33.5986 23.9209 33.5259 23.6663 33.4713 23.4299V25.7032V38.2703V38.3067H19.0673V16.337H33.4713V17.6646V21.011V21.9931C33.5077 21.8112 33.5622 21.6476 33.635 21.5202C33.9078 20.9201 34.3988 20.4472 34.9808 20.229C35.0899 20.1926 35.2172 20.1744 35.3264 20.1744C35.49 20.1744 35.6537 20.2108 35.8174 20.2835V19.9744V17.6646V15.2094C35.8174 14.191 34.9808 13.3362 33.9442 13.3362H18.5763C17.5578 13.3362 16.7031 14.1728 16.7031 15.2094V41.944C16.7031 42.035 16.7213 42.1259 16.7394 42.2168C16.7576 42.3078 16.7758 42.3987 16.8122 42.4896C16.8122 42.5078 16.8304 42.5442 16.8304 42.5624C16.8486 42.6351 16.8849 42.6897 16.9213 42.7624C16.9395 42.817 16.9759 42.8534 16.9941 42.9079C17.0122 42.9443 17.0486 42.9807 17.0668 43.017C17.1214 43.0898 17.1759 43.1625 17.2487 43.2353L17.2669 43.2535C17.5942 43.5808 18.0307 43.7991 18.5399 43.7991H18.5763H31.0888H32.0891C32.1073 43.8173 32.7075 43.8173 32.9803 43.8173ZM23.4867 13.9727C23.996 13.9727 24.4325 14.391 24.4325 14.9184C24.4325 15.4277 24.0142 15.8641 23.4867 15.8641C22.9593 15.8641 22.541 15.4459 22.541 14.9184C22.541 14.391 22.9593 13.9727 23.4867 13.9727ZM26.2875 42.6351C25.4327 42.6351 24.7416 41.944 24.7416 41.0892C24.7416 40.2345 25.4327 39.5434 26.2875 39.5434C27.1423 39.5434 27.8334 40.2345 27.8334 41.0892C27.8334 41.944 27.1423 42.6351 26.2875 42.6351Z" fill="white"/>
</svg>
