<svg width="528" height="148" viewBox="0 0 528 148" fill="none" xmlns="http://www.w3.org/2000/svg">
<path d="M25.9767 73.3992L31.386 6.30031e-05L14.6667 2.36266L19.6897 73.2007L25.9767 73.3992Z" fill="#24346C"/>
<path d="M41.5494 74.0467L54.4651 2.32292L39.7968 1.95929L35.2431 72.6515L41.5494 74.0467Z" fill="#24346C"/>
<path d="M1.47142 37.8817L62.6981 30.6176L61.3195 19.2688L1.95 30.3932L1.47142 37.8817Z" fill="#24346C"/>
<path d="M0.282582 57.0531L61.4614 46.7974L60.1307 38.4401L0.765948 49.8638L0.282582 57.0531Z" fill="#24346C"/>
<path d="M100.752 15.0501C100.453 15.0549 99.8498 14.7653 99.2467 14.4757C98.9427 14.1813 98.0404 13.8964 97.4421 13.906C95.9463 13.9298 94.1658 14.8559 92.6988 16.6747C91.2367 18.7927 89.7794 21.2098 88.93 24.2157C87.7814 27.2263 86.9369 30.5314 86.0923 33.8364C85.2525 37.4406 85.0014 40.437 84.7504 43.4333C84.76 44.0316 84.7792 45.2283 84.7985 46.4249C84.8177 47.6215 85.1409 49.1125 85.4641 50.6035C85.7873 52.0946 86.1105 53.5856 86.4337 55.0766C86.7569 56.5676 87.0753 57.7595 87.3889 58.6522L88.0112 60.1384L89.2223 61.0168C90.1342 61.9 90.7421 62.4887 91.35 63.0775C91.958 63.6663 92.2667 64.2598 92.5659 64.255C94.0761 65.1287 95.5815 65.7031 97.0773 65.6793C99.1714 65.6459 101.55 64.7102 103.915 62.8771C104.798 61.9653 105.985 61.3479 106.863 60.137C107.746 59.2252 108.629 58.3134 109.213 57.4064C109.797 56.4994 110.386 55.8916 110.974 55.2837C111.264 54.6806 111.558 54.3767 111.857 54.3719C112.755 54.3576 113.657 54.6424 114.27 55.5304C114.878 56.1191 115.187 56.7127 115.191 57.0118C115.211 58.2085 114.631 59.4146 114.057 60.92C113.184 62.4301 112.306 63.641 111.133 65.1559C109.96 66.6708 108.783 67.8865 107.306 69.107C105.83 70.3274 104.652 71.5432 103.765 72.1558C103.176 72.7636 102.582 73.0723 101.69 73.3858C100.797 73.6993 99.9044 74.0127 98.7077 74.0318C97.8151 74.3453 96.9176 74.3596 96.0201 74.3739C95.1227 74.3882 94.5243 74.3978 93.926 74.4073C92.7294 74.4264 91.528 74.1463 90.6305 74.1606C89.7282 73.8758 88.8307 73.8901 88.2228 73.3013C87.3205 73.0165 86.7126 72.4277 85.8055 71.8437C84.8984 71.2597 84.2857 70.3718 83.0746 69.4934C81.2508 67.7271 79.7214 65.6568 78.4959 63.881C77.2704 62.1051 76.3441 60.3245 75.7265 59.1374C74.4674 55.2674 73.7921 50.4904 73.7056 45.1056C73.8653 36.4253 75.5304 28.3194 78.7009 20.788C80.7229 16.2672 83.0633 12.9383 86.0116 10.1982C88.9647 7.75725 91.937 6.51291 95.2278 6.46043C95.8261 6.45089 97.0275 6.73097 98.8273 7.0015C100.627 7.27203 102.432 7.84172 104.535 8.40664C106.34 8.97633 108.149 9.84518 109.659 10.7188C111.17 11.5924 111.787 12.7795 111.811 14.2753C111.821 14.8736 111.831 15.4719 111.551 16.6733C111.57 17.8699 111.28 18.473 111.285 18.7722C111.068 23.8626 111.116 26.8542 111.434 28.0461C111.439 28.3452 111.444 28.6444 111.449 28.9435C111.458 29.5419 110.87 30.1497 110.281 30.7576C109.393 31.3702 108.799 31.6789 108.5 31.6837C107.902 31.6932 107.304 31.7027 106.71 32.0114C106.112 32.021 105.817 32.3249 105.518 32.3297C105.518 32.3297 105.219 32.3345 104.616 32.0448C104.013 31.7552 103.41 31.4656 102.807 31.176C102.204 30.8864 101.6 30.5968 100.997 30.3071C100.394 30.0175 100.09 29.7231 100.085 29.424C100.076 28.8257 100.066 28.2274 99.7526 27.3347C99.4438 26.7411 99.4198 25.2453 99.6853 23.1465L100.168 15.9571C101.075 16.5411 101.066 15.9428 100.752 15.0501Z" fill="#24346C"/>
<path d="M134.188 66.2805C133.894 66.5845 133.609 67.4867 132.726 68.3986C132.147 69.6048 131.263 70.5166 130.385 71.7276C129.507 72.9386 128.624 73.8505 127.441 74.7671C126.259 75.6837 125.366 75.9972 124.17 76.0164C121.477 76.0595 119.659 74.5925 118.12 71.924C116.581 69.2555 115.935 66.2735 116.181 62.978C116.147 60.8839 116.408 58.4859 116.964 55.7839C117.519 53.0819 118.069 50.0807 118.61 46.4812C118.895 45.579 119.464 43.7744 120.328 41.666C121.192 39.5575 122.355 37.4442 123.822 35.6253C125.289 33.8065 127.07 32.8802 129.155 32.2484C131.244 31.9157 133.352 32.7797 135.789 35.4338C136.093 35.7281 136.397 36.0225 136.696 36.0177C136.995 36.0129 137.593 36.0033 138.496 36.2881C139.398 36.5729 140.599 36.8529 141.801 37.1329C143.002 37.4129 143.909 37.9969 144.816 38.5808C145.723 39.1648 146.037 40.0574 146.051 40.9549C146.051 40.9549 146.056 41.2541 145.766 41.8572C145.477 42.4603 145.482 42.7594 145.482 42.7594L145.51 44.5544C145.529 45.751 144.965 47.8547 144.105 50.2623C143.246 52.67 142.696 55.6711 142.744 58.6627C142.763 59.8593 142.787 61.3551 143.409 62.8413C143.732 64.3323 144.644 65.2154 145.242 65.2058C145.841 65.1963 146.434 64.8875 147.317 63.9757C148.2 63.0638 148.784 62.1568 149.668 61.2449C150.251 60.3379 150.835 59.4308 151.419 58.5238C152.003 57.6167 152.298 57.3128 152.298 57.3128C152.597 57.308 152.602 57.6072 152.606 57.9063C152.611 58.2055 152.616 58.5046 152.626 59.1029C152.635 59.7013 152.64 60.0004 152.35 60.6035C152.355 60.9027 152.36 61.2018 152.37 61.8002C152.374 62.0993 152.379 62.3985 152.384 62.6976C152.389 62.9968 152.099 63.5999 151.52 64.8061C150.941 66.0123 150.058 66.9241 149.179 68.1351C148.002 69.3509 146.82 70.2676 145.338 71.189C143.857 72.1104 142.366 72.4335 140.571 72.4622C139.669 72.1775 138.462 71.5983 137.256 71.0191C136.344 70.136 135.119 68.3603 134.188 66.2805ZM133.154 39.0668C132.555 39.0763 131.972 39.9834 131.397 41.4888C130.524 42.9989 129.954 44.8034 129.09 46.9119C128.226 49.0204 127.666 51.4232 127.111 54.1252C126.556 56.8272 126.295 59.2253 126.333 61.6185C126.352 62.8152 126.376 64.3109 126.699 65.8019C127.023 67.2929 127.635 68.1808 128.234 68.1713C129.406 66.6563 130.285 65.4453 130.868 64.5383C131.448 63.3321 132.032 62.425 132.606 60.9196C133.185 59.7134 133.465 58.512 133.446 57.3154L133.726 56.114L133.992 54.0151C133.977 53.1176 134.252 51.617 134.827 50.1116C135.396 48.3071 135.672 46.8065 135.947 45.306C136.222 43.8054 136.198 42.3096 135.88 41.1178C135.557 39.6268 134.65 39.0428 133.154 39.0668Z" fill="#24346C"/>
<path d="M164.771 51.4274C164.487 52.3297 163.903 53.2368 163.613 53.8399L161.629 60.754C160.78 63.76 159.631 66.7707 158.772 69.1783C157.912 71.586 156.754 73.9984 154.998 76.4204C154.998 76.4204 154.703 76.7243 154.409 77.0283C154.114 77.3322 154.119 77.6314 153.82 77.6362C153.231 78.2441 152.638 78.5528 152.035 78.2632C151.432 77.9736 150.828 77.6841 150.221 77.0953C149.613 76.5066 149.005 75.9178 149 75.6187C148.995 75.3195 148.981 74.4221 149.266 73.5198L149.84 72.0144C150.13 71.4113 150.419 70.8082 150.709 70.2051C151.003 69.9012 151.592 69.2933 152.181 68.6854C152.769 68.0775 153.353 67.1704 154.236 66.2586C155.119 65.3468 155.694 63.8414 156.857 61.7281C157.142 60.8259 157.716 59.3205 158.585 57.5112C159.154 55.7067 160.023 53.8973 160.593 52.0928C161.461 50.2835 162.031 48.479 162.605 46.9736C163.18 45.4682 163.46 44.2668 163.749 43.6637C164.314 41.56 164.594 40.3586 164.884 39.7555C165.178 39.4516 165.772 39.1428 166.963 38.8245C166.963 38.8245 167.557 38.5158 168.151 38.207C169.043 37.8935 169.637 37.5848 169.936 37.58L171.446 38.4535C172.956 39.327 173.564 39.9158 173.564 39.9158C173.564 39.9158 173.574 40.5141 173.583 41.1124C173.583 41.1124 173.588 41.4116 173.897 42.0051C174.201 42.2995 174.21 42.8978 174.215 43.1969C174.22 43.4961 174.225 43.7952 174.229 44.0944C173.679 47.0956 173.133 50.3959 172.593 53.9953C172.351 57.59 172.1 60.5864 171.839 62.9844C172.152 63.8771 172.755 64.1667 173.648 63.8532C174.242 63.5444 175.125 62.6326 175.709 61.7255C176.592 60.8137 177.171 59.6075 177.745 58.1021C178.32 56.5968 178.899 55.3905 179.483 54.4835C180.342 52.0759 181.206 49.9674 181.486 48.766C182.06 47.2606 182.345 46.3583 182.63 45.4561C182.915 44.5538 183.199 43.6516 183.489 43.0484C183.774 42.1462 183.759 41.2487 184.044 40.3465C184.329 39.4442 184.614 38.5419 184.609 38.2428C184.903 37.9388 184.894 37.3405 184.879 36.443C184.875 36.1439 184.875 36.1439 184.875 36.1439L186.38 36.7182C186.674 36.4143 187.273 36.4047 187.866 36.096C188.465 36.0864 189.656 35.7681 192.045 35.4306C192.344 35.4258 192.648 35.7202 192.947 35.7154C193.251 36.0098 193.56 36.6033 194.476 37.7856L195.089 38.6735L195.403 39.5661C195.412 40.1645 195.716 40.4588 195.721 40.758C196.025 41.0523 196.025 41.0523 196.03 41.3515C196.039 41.9498 195.455 42.8569 194.572 43.7687C194.567 43.4696 194.278 44.0727 194.003 45.5732C193.727 47.0738 193.153 48.5792 192.887 50.6781C192.323 52.7818 192.052 54.5815 191.787 56.6804C191.516 58.4801 191.241 59.9807 191.251 60.579C191.289 62.9723 191.617 64.7624 192.239 66.2486C192.861 67.7348 193.773 68.6179 194.671 68.6036C194.97 68.5988 195.264 68.2948 195.858 67.9861C196.446 67.3782 196.736 66.7751 197.325 66.1672C197.913 65.5593 198.502 64.9514 198.792 64.3483C199.38 63.7404 199.675 63.4365 199.979 63.7309C200.278 63.7261 200.582 64.0204 200.587 64.3196L200.606 65.5162C200.62 66.4137 200.331 67.0168 200.34 67.6151C200.35 68.2134 200.355 68.5126 200.355 68.5126C200.359 68.8117 200.359 68.8117 200.364 69.1109C200.364 69.1109 200.07 69.4148 200.075 69.714C200.075 69.714 199.486 70.3219 198.897 70.9298C198.308 71.5377 197.425 72.4495 196.243 73.3662C195.36 74.278 194.173 74.8955 192.687 75.5177C191.5 76.1352 190.308 76.4535 189.111 76.4727C187.914 76.4918 186.708 75.9127 186.1 75.324C185.189 74.4408 184.576 73.553 183.954 72.0667C183.336 70.8797 183.013 69.3887 182.69 67.8977C182.367 66.4067 182.348 65.2101 182.324 63.7143C182.314 63.116 182.3 62.2185 182.585 61.3162C182.869 60.414 182.855 59.5165 183.14 58.6142C183.425 57.712 183.41 56.8145 183.401 56.2162C183.391 55.6179 183.681 55.0148 183.681 55.0148C183.681 55.0148 183.676 54.7156 183.671 54.4164C183.666 54.1173 183.661 53.8181 183.652 53.2198C183.077 54.7252 182.503 56.2305 181.924 57.4368C181.345 58.643 181.065 59.8444 180.481 60.7514C180.196 61.6537 179.617 62.8599 179.332 63.7622C179.052 64.9636 178.473 66.1698 177.899 67.6752C176.75 70.6859 175.592 73.0983 174.115 74.3189C172.643 75.8386 171.456 76.4561 170.862 76.7648C170.264 76.7744 169.666 76.784 169.063 76.4944C168.16 76.2096 167.553 75.6209 166.646 75.0369C165.734 74.1538 165.121 73.2659 164.504 72.0789C163.886 70.8918 163.563 69.4009 163.838 67.9003C163.814 66.4045 163.79 64.9087 164.061 63.109C164.032 61.314 164.307 59.8134 164.283 58.3177C164.259 56.8219 164.539 55.6204 164.52 54.4238C164.501 53.2272 164.791 52.6241 164.786 52.3249C164.786 52.3249 164.781 52.0258 164.776 51.7266C165.08 52.021 165.075 51.7218 164.771 51.4274Z" fill="#24346C"/>
<path d="M255.492 54.7631C254.595 54.7774 253.997 54.787 253.104 55.1005C252.211 55.4141 251.912 55.4189 251.613 55.4236C249.818 55.4524 248.873 52.4752 248.777 46.492C248.767 45.8937 248.762 45.5945 248.753 44.9962C248.743 44.3979 248.738 44.0988 248.734 43.7996C248.724 43.2013 248.715 42.603 249.009 42.299C248.999 41.7007 248.995 41.4015 248.99 41.1024C248.98 40.5041 248.676 40.2097 248.078 40.2193C247.48 40.2289 246.896 41.1359 246.321 42.6413C245.747 44.1467 245.182 46.2503 244.917 48.3492C244.357 50.7521 244.091 52.851 243.835 55.5482C243.574 57.9462 243.308 60.0451 243.337 61.8401C243.371 63.9342 243.703 66.0235 244.634 68.1032C245.561 69.8838 247.075 71.0565 248.87 71.0277C249.17 71.023 250.361 70.7046 252.446 70.0728L253.628 69.1562L255.11 68.2347L257.754 65.2001C258.343 64.5922 259.226 63.6803 259.81 62.7733C260.693 61.8614 260.987 61.5575 261.287 61.5527C261.586 61.5479 261.909 63.0389 261.653 65.7361C261.672 66.9327 261.093 68.139 260.514 69.3452C259.635 70.5562 258.752 71.468 257.869 72.3798C256.986 73.2917 255.799 73.9092 254.911 74.5218C254.023 75.1345 253.13 75.4481 252.836 75.752C252.238 75.7616 251.644 76.0703 251.051 76.3791C250.158 76.6926 249.565 77.0013 248.672 77.3148C247.779 77.6284 247.186 77.9371 246.293 78.2506C245.699 78.5594 245.101 78.5689 245.101 78.5689C243.605 78.5929 242.1 78.0185 240.595 77.4442C239.384 76.5658 238.173 75.6875 237.256 74.5053C236.339 73.323 235.717 71.8368 235.095 70.3506C234.473 68.8644 234.449 67.3686 234.425 65.8728C234.367 62.2829 234.614 58.9874 234.87 56.2902C235.126 53.593 235.387 51.1949 235.956 49.3904C236.246 48.7873 236.231 47.8898 236.511 46.6884C236.791 45.487 237.067 43.9864 237.646 42.7802C238.225 41.574 238.505 40.3726 239.084 39.1663C239.668 38.2593 240.257 37.6514 241.154 37.637C242.052 37.6227 242.944 37.3091 244.431 36.6869C245.618 36.0694 248.006 35.7319 250.998 35.684C251.895 35.6697 252.498 35.9592 253.101 36.2488C253.709 36.8376 254.312 37.1271 254.915 37.4167L255.519 37.7063C255.822 38.0007 256.126 38.295 256.426 38.2902C256.725 38.2854 257.029 38.5798 257.038 39.1781C257.342 39.4725 257.357 40.37 257.371 41.2674C257.385 42.1649 257.409 43.6607 257.438 45.4556C257.467 47.2506 257.495 49.0455 257.515 50.2422C257.539 51.738 257.857 52.9298 257.577 54.1312C257.596 55.3279 257.302 55.6318 256.399 55.347C256.095 55.0526 255.492 54.7631 255.492 54.7631Z" fill="#24346C"/>
<path d="M266.592 37.828C267.49 37.8137 268.682 37.4954 270.467 36.8683C272.252 36.2413 274.342 35.9086 276.73 35.5711L279.717 35.224C280.615 35.2097 281.517 35.4945 282.429 36.3776C283.34 37.2607 284.252 38.1438 284.875 39.63C285.492 40.817 286.114 42.3032 286.737 43.7895C287.06 45.2805 287.383 46.7715 287.407 48.2672C287.435 50.0622 286.866 51.8667 286.296 53.6712C285.727 55.4758 284.853 56.9859 283.671 57.9026C281.61 60.0302 280.433 61.246 279.844 61.8539C279.255 62.4618 278.363 62.7753 277.764 62.7849C277.465 62.7897 277.166 62.7944 276.872 63.0984C276.577 63.4023 276.278 63.4071 275.979 63.4119C275.979 63.4119 275.381 63.4215 274.478 63.1367C273.576 62.8519 272.978 62.8615 272.38 62.8711C271.781 62.8807 271.487 63.1846 271.501 64.0821C271.53 65.877 271.858 67.6672 273.078 69.1438C274.299 70.6204 275.206 71.2044 276.707 71.4796C279.997 71.4269 282.965 69.8832 285.909 66.8438C285.909 66.8438 286.203 66.5398 287.086 65.628C287.969 64.7161 288.852 63.8043 289.436 62.8972C290.02 61.9902 290.609 61.3823 290.609 61.3823C290.908 61.3775 290.913 61.6767 290.918 61.9758C290.923 62.275 290.927 62.5741 290.932 62.8733L290.975 65.5657C290.98 65.8649 290.98 65.8649 290.985 66.164C290.99 66.4632 290.994 66.7623 290.999 67.0615C291.014 67.959 290.434 69.1652 289.262 70.6801C288.089 72.1951 286.617 73.7148 284.841 74.9402C283.07 76.4647 281.29 77.3909 278.911 78.3267C276.831 79.2577 274.747 79.8895 272.648 79.6239C271.75 79.6383 270.549 79.3583 269.642 78.7743C268.735 78.1904 267.524 77.3121 266.612 76.429C264.788 74.6628 263.568 73.1861 262.642 71.4055C262.019 69.9193 261.687 67.83 261.643 65.1376C261.61 63.0435 261.876 60.9446 261.852 59.4488C262.122 57.6491 262.098 56.1533 262.373 54.6527C262.649 53.1521 262.919 51.3524 263.189 49.5527C263.46 47.7529 264.029 45.9484 264.589 43.5456C264.874 42.6433 265.154 41.4419 265.439 40.5396C266.018 39.3334 266.308 38.7303 266.592 37.828ZM277.101 40.0537L276.199 39.7689C275.895 39.4745 275.311 40.3816 274.742 42.1861C274.172 43.9906 273.607 46.0943 273.042 48.198C272.482 50.6008 271.918 52.7045 271.647 54.5042C271.082 56.6079 271.102 57.8046 271.106 58.1037C271.111 58.4029 271.415 58.6972 272.018 58.9868C272.621 59.2764 273.224 59.566 273.524 59.5612C274.421 59.5468 275.309 58.9341 275.893 58.0271C276.472 56.8209 277.051 55.6147 277.626 54.1093C277.901 52.6087 278.475 51.1033 278.451 49.6076C278.726 48.107 278.712 47.2095 278.698 46.312C278.674 44.8162 278.65 43.3205 278.327 41.8295C278.317 41.2311 278.013 40.9368 278.008 40.6376C278.004 40.3385 277.704 40.3433 277.101 40.0537Z" fill="#24346C"/>
<path d="M308.683 68.8729C308.394 69.476 308.104 70.0791 307.226 71.2901C306.642 72.1972 306.063 73.4034 305.18 74.3152C304.297 75.2271 303.413 76.1389 302.53 77.0507C301.647 77.9626 300.755 78.2761 299.558 78.2953C298.66 78.3096 297.459 78.0296 296.253 77.4505C295.047 76.8713 294.14 76.2874 293.223 75.1051C292.311 74.222 291.689 72.7358 291.067 71.2496C290.444 69.7634 290.116 67.9732 290.382 65.8743C290.372 65.276 290.368 64.9769 290.358 64.3785C290.349 63.7802 290.344 63.4811 290.633 62.878C290.908 61.3774 290.894 60.4799 290.88 59.5824C290.865 58.685 290.861 58.3858 290.856 58.0867C291.093 54.1928 291.339 50.8973 292.189 47.8913C293.043 45.1846 293.902 42.7769 295.065 40.6637C296.228 38.5504 297.401 37.0355 298.873 35.5157C300.345 33.996 301.518 32.481 302.695 31.2653C303.872 30.0495 305.045 28.5345 305.919 27.0244C306.792 25.5142 307.367 24.0088 307.637 22.2091C307.637 22.2091 307.627 21.6108 307.912 20.7085C307.907 20.4094 307.898 19.8111 307.584 18.9184C307.271 18.0257 307.256 17.1282 307.237 15.9316C307.233 15.6324 307.228 15.3333 307.517 14.7302C307.807 14.1271 308.096 13.524 308.685 12.9161C309.274 12.3082 309.863 11.7003 311.054 11.382C311.947 11.0684 313.139 10.7501 314.635 10.7262C314.934 10.7214 315.233 10.7166 315.836 11.0062C316.439 11.2957 317.042 11.5853 317.646 11.8749C318.249 12.1645 318.553 12.4589 318.861 13.0524C319.165 13.3467 319.175 13.9451 319.18 14.2442L319.204 15.74C319.204 15.74 319.208 16.0392 319.517 16.6327C319.821 16.9271 319.826 17.2262 319.826 17.2262C319.864 19.6195 319.903 22.0127 319.632 23.8125C319.362 25.6122 319.091 27.4119 318.512 28.6182C317.938 30.1235 316.76 31.3393 315.583 32.5551C314.405 33.7709 312.33 35.001 310.251 35.932C307.283 37.4757 304.914 39.0098 303.741 40.5248C302.269 42.0445 301.41 44.4521 300.565 47.7572C300.29 49.2578 300.01 50.4592 300.029 51.6559C300.048 52.8525 299.759 53.4556 299.763 53.7548C299.768 54.0539 299.783 54.9514 299.802 56.148C299.821 57.3447 299.845 58.8404 299.864 60.0371C299.888 61.5329 299.907 62.7295 299.926 63.9261C299.945 65.1227 299.96 66.0202 300.264 66.3146C300.601 68.7031 301.513 69.5862 302.715 69.8662C303.014 69.8614 303.308 69.5574 303.598 68.9543C303.887 68.3512 304.476 67.7433 304.766 67.1402C305.055 66.5371 305.639 65.6301 305.924 64.7278C306.209 63.8255 306.498 63.2224 306.484 62.325C306.474 61.7266 306.46 60.8292 306.441 59.6325C306.426 58.7351 306.402 57.2393 306.369 55.1452C306.601 50.9522 306.254 47.9654 305.337 46.7831C305.024 45.8905 304.416 45.3017 304.107 44.7082C303.798 44.1147 303.495 43.8203 303.495 43.8203C303.495 43.8203 303.784 43.2172 304.078 42.9132C304.368 42.3101 304.962 42.0014 305.55 41.3935C306.139 40.7856 306.733 40.4769 307.62 39.8642C308.508 39.2515 308.808 39.2467 309.406 39.2371L310.602 39.218L311.5 39.2036C311.799 39.1988 312.103 39.4932 312.711 40.0819C313.319 40.6707 313.628 41.2642 314.235 41.8529C314.843 42.4417 315.157 43.3344 315.466 43.9279C315.774 44.5214 316.083 45.1149 316.083 45.1149L315.514 46.9195L315.533 48.1161C315.552 49.3127 315.571 50.5093 315.281 51.1124C315.291 51.7108 315.301 52.3091 315.011 52.9122C315.021 53.5105 314.726 53.8144 314.731 54.1136C314.736 54.4128 314.446 55.0159 314.157 55.619C314.157 55.619 313.867 56.2221 313.582 57.1243C313.297 58.0266 313.013 58.9289 312.733 60.1303C312.448 61.0325 312.168 62.234 311.878 62.8371C311.594 63.7393 311.598 64.0385 311.598 64.0385C311.603 64.3376 311.613 64.936 311.917 65.2303C312.221 65.5247 312.824 65.8143 313.721 65.7999L315.825 66.3647C316.423 66.3551 318.194 64.8306 321.128 61.1928C321.427 61.188 321.432 61.4872 321.442 62.0855C321.451 62.6838 321.456 62.983 321.167 63.5861C321.176 64.1844 321.181 64.4835 320.891 65.0866L320.925 67.1807C320.93 67.4799 320.64 68.083 320.051 68.6909C319.463 69.2988 318.869 69.6075 317.981 70.2202C317.093 70.8329 316.5 71.1416 315.607 71.4552C314.714 71.7687 314.116 71.7783 313.817 71.7831C313.219 71.7926 312.616 71.5031 312.012 71.2135C311.713 71.2183 310.502 70.34 308.683 68.8729Z" fill="#24346C"/>
<path d="M326.158 38.9692C327.056 38.9548 328.248 38.6365 330.033 38.0094C331.818 37.3824 333.908 37.0497 336.296 36.7122L339.283 36.3652C340.18 36.3508 341.083 36.6356 341.995 37.5187C342.906 38.4018 343.818 39.2849 344.436 40.4719C345.053 41.659 345.675 43.1452 346.298 44.6314C346.621 46.1224 346.944 47.6134 346.968 49.1092C346.997 50.9041 346.427 52.7087 345.857 54.5132C345.288 56.3177 344.414 57.8279 343.232 58.7445C341.172 60.8721 339.994 62.0879 339.405 62.6958C338.817 63.3037 337.924 63.6172 337.326 63.6268C337.026 63.6316 336.727 63.6364 336.433 63.9403C336.139 64.2443 335.839 64.2491 335.54 64.2538C335.54 64.2538 334.942 64.2634 334.04 63.9786C333.137 63.6938 332.539 63.7034 331.941 63.713C331.342 63.7226 331.048 64.0265 331.062 64.924C331.091 66.7189 331.419 68.5091 332.64 69.9857C333.86 71.4624 334.767 72.0463 336.268 72.3215C339.559 72.2688 342.526 70.7251 345.47 67.6857C345.47 67.6857 345.764 67.3817 346.647 66.4699C347.53 65.5581 348.414 64.6462 348.997 63.7392C349.581 62.8321 350.17 62.2242 350.17 62.2242C350.469 62.2194 350.474 62.5186 350.479 62.8177C350.484 63.1169 350.488 63.4161 350.493 63.7152L350.536 66.4076C350.541 66.7068 350.541 66.7068 350.546 67.0059C350.551 67.3051 350.556 67.6043 350.56 67.9034C350.575 68.8009 349.996 70.0071 348.823 71.522C347.65 73.037 346.178 74.5567 344.403 75.7821C342.632 77.3066 340.851 78.2328 338.472 79.1686C336.392 80.0996 334.308 80.7314 332.209 80.4658C331.311 80.4802 330.11 80.2002 329.203 79.6162C328.296 79.0323 327.085 78.154 326.173 77.2709C324.349 75.5047 323.129 74.028 322.203 72.2475C321.58 70.7613 321.248 68.6719 321.205 65.9795C321.171 63.8854 321.437 61.7865 321.413 60.2908C321.683 58.491 321.659 56.9952 321.934 55.4947C322.21 53.9941 322.48 52.1943 322.751 50.3946C323.021 48.5949 323.591 46.7904 324.151 44.3875C324.435 43.4853 324.715 42.2838 325 41.3816C325.584 40.4745 325.874 39.8714 326.158 38.9692ZM336.667 41.1948L335.765 40.91C335.461 40.6156 334.877 41.5227 334.307 43.3272C333.738 45.1317 333.173 47.2354 332.608 49.3391C332.048 51.7419 331.484 53.8456 331.213 55.6453C330.648 57.749 330.667 58.9456 330.672 59.2448C330.677 59.544 330.981 59.8383 331.584 60.1279C332.187 60.4175 332.79 60.7071 333.089 60.7023C333.987 60.6879 334.875 60.0752 335.459 59.1682C336.038 57.962 336.617 56.7558 337.191 55.2504C337.467 53.7498 338.041 52.2444 338.017 50.7487C338.292 49.2481 338.278 48.3506 338.264 47.4531C338.24 45.9574 338.216 44.4616 337.893 42.9706C337.883 42.3723 337.579 42.0779 337.574 41.7787C337.574 41.7787 337.27 41.4844 336.667 41.1948Z" fill="#24346C"/>
<path d="M214.019 136.818L215.097 92.2154L227.358 91.7206L226.685 124.348L229.378 124.305L230.065 92.5751L242.629 92.3748L241.947 124.404L244.64 124.361L245.312 91.7335L258.504 93.3185L257.421 137.622L214.019 136.818Z" fill="#76BD1D"/>
<path d="M288.849 138.314L264.004 137.814L265.071 92.3131L288.719 92.8322L288.307 104.509L276.346 105L276.741 110.978L287.815 111.1L287.664 120.379L277.189 120.247L276.976 125.637L288.947 125.744L288.849 138.314Z" fill="#76BD1D"/>
<path d="M306.431 96.4388L307.03 96.4292C307.329 96.4244 307.329 96.4244 307.628 96.4196C307.628 96.4196 307.628 96.4196 307.927 96.4148L308.15 91.6235L321.023 92.0159L320.805 97.1063C321.104 97.1016 321.703 97.092 322.306 97.3815C326.803 97.908 329.823 99.6551 331.97 102.912C334.112 105.87 334.777 110.049 333.961 115.149C332.889 122.946 329.376 127.79 323.118 129.387C321.327 129.715 320.131 129.734 318.635 129.758L318.783 139.032L305.91 138.639L306.65 128.753C304.855 128.781 303.354 128.506 301.849 127.932C295.827 125.634 293.053 120.592 292.924 112.514C292.843 107.429 293.977 103.521 296.322 100.491C298.677 98.0591 302.243 96.5058 306.431 96.4388ZM308.703 107.474C306.908 107.503 305.422 108.125 304.239 109.042C303.062 110.257 302.483 111.464 302.511 113.259C302.531 114.455 302.849 115.647 304.06 116.525C305.271 117.404 306.472 117.684 307.674 117.964L308.703 107.474ZM318.752 118.385C320.248 118.361 321.445 118.342 322.627 117.425C323.814 116.808 324.393 115.601 324.673 114.4C324.943 112.6 324.62 111.109 323.405 109.932C322.488 108.75 320.983 108.175 319.482 107.9L318.752 118.385Z" fill="#76BD1D"/>
<path d="M338.26 121.961L338.69 111.482L353.358 111.846L353.226 122.32L338.26 121.961Z" fill="#76BD1D"/>
<path d="M392.589 95.0592L391.223 140.565L377.452 140.187L378.117 106.961L371.531 106.767L370.866 139.993L357.394 139.61L358.461 94.1094L392.589 95.0592Z" fill="#76BD1D"/>
<path d="M410.538 94.7718C413.231 94.7286 415.339 95.5926 417.457 97.0549C419.575 98.5171 421.1 100.288 422.639 102.957C424.173 105.326 425.118 108.303 425.769 111.584C426.42 114.865 426.777 118.451 426.839 122.34C426.887 125.331 426.332 128.033 425.468 130.142C424.609 132.549 423.74 134.359 422.273 136.177C420.801 137.697 419.325 138.918 417.245 139.849C415.165 140.78 413.076 141.112 410.383 141.156C404.695 140.947 400.473 138.92 397.713 134.775C394.954 130.63 393.662 124.666 393.831 116.584C393.779 113.293 394.329 110.292 395.183 107.585C396.038 104.879 396.897 102.471 398.364 100.652C399.831 98.8332 401.602 97.3087 403.383 96.3825C405.757 95.1475 408.14 94.5109 410.538 94.7718ZM410.477 128.287C411.075 128.277 411.668 127.969 412.262 127.66C412.851 127.052 413.439 126.444 413.729 125.841C414.014 124.939 414.598 124.032 414.883 123.129C415.163 121.928 415.148 121.031 415.428 119.829C415.608 112.345 413.755 108.784 409.861 108.547C407.169 108.59 405.716 111.307 405.508 116.996C405.537 118.791 405.561 120.286 405.884 121.777C406.207 123.268 406.525 124.46 406.839 125.353C407.152 126.246 407.765 127.133 408.373 127.722C408.976 128.012 409.878 128.297 410.477 128.287Z" fill="#76BD1D"/>
<path d="M451.611 118.352C452.514 118.637 453.421 119.221 454.029 119.81C454.941 120.693 455.553 121.581 455.867 122.473C456.484 123.66 456.803 124.852 457.121 126.044C457.439 127.236 457.463 128.732 457.487 130.227C457.516 132.022 456.941 133.528 456.063 134.739C455.19 136.249 454.007 137.166 452.83 138.381C451.348 139.303 449.867 140.224 447.778 140.557C445.992 141.184 443.898 141.217 441.505 141.256L429.235 141.153L428.801 95.377C433.288 95.3052 436.579 95.2525 438.972 95.2142C441.066 95.1807 442.263 95.1615 442.263 95.1615C446.755 95.3888 450.36 96.2288 452.791 98.5838C455.218 100.64 456.462 103.612 456.525 107.501C456.544 108.698 456.269 110.198 455.989 111.4C455.709 112.601 455.429 113.802 454.845 114.71C454.261 115.617 453.976 116.519 453.387 117.127C453.098 117.73 452.509 118.338 451.611 118.352ZM441.356 131.982C444.946 131.924 446.722 130.699 446.679 128.007C446.636 125.314 444.817 123.847 441.222 123.605C440.624 123.615 440.325 123.62 440.325 123.62L440.16 132.001L441.356 131.982ZM440.751 112.841C441.05 112.836 441.05 112.836 441.349 112.831C441.648 112.826 441.648 112.826 441.947 112.821C444.64 112.778 445.822 111.862 445.784 109.468C445.765 108.272 445.446 107.08 444.539 106.496C443.632 105.912 442.426 105.333 440.93 105.357L440.332 105.366L440.751 112.841Z" fill="#76BD1D"/>
<path d="M496.261 140.977L482.49 140.599L480.865 132.546L473.68 132.362L472.034 141.665L458.861 141.277L470.394 95.3095L487.755 95.63L496.261 140.977ZM480.673 120.58L478.672 107.745L475.882 120.357L480.673 120.58Z" fill="#76BD1D"/>
<path d="M513.805 96.7091C518.297 96.9364 521.612 98.3795 524.048 101.034C526.489 103.987 527.449 107.862 527.531 112.947C527.361 121.029 524.151 126.168 517.599 128.068C516.112 128.69 514.322 129.018 512.822 128.743L513.042 142.504L499.57 142.121L500.642 96.9198L512.005 96.4387C512.304 96.4339 512.903 96.4243 513.202 96.4195C513.501 96.4147 513.8 96.4099 513.8 96.4099L513.805 96.7091ZM512.051 117.983C513.547 117.959 514.734 117.341 515.622 116.729C516.804 115.812 517.089 114.91 517.364 113.409C517.335 111.614 517.017 110.422 515.801 109.245C514.585 108.068 513.379 107.488 511.584 107.517L512.051 117.983Z" fill="#76BD1D"/>
<path d="M414.147 58.5067C413.23 57.3244 412.617 56.4365 411.71 55.8526C411.102 55.2639 410.195 54.6799 409.592 54.3903C408.077 53.2176 406.273 52.6481 404.169 52.0833C401.462 51.2289 398.461 50.6785 395.465 50.4272C389.472 49.9247 371.822 50.2073 371.537 51.1095C371.271 53.2084 389.824 53.2106 394.321 53.7371C397.317 53.9884 400.627 55.1323 400.936 55.7259C400.979 58.4183 396.468 56.9943 392.578 57.0566C373.124 56.7696 362.991 59.3257 377.668 60.2876C383.058 60.5006 388.453 61.0127 393.837 60.9265C395.931 60.893 398.624 60.8499 400.723 61.1155C402.523 61.3859 404.337 62.5538 402.262 63.784C401.963 63.7887 397.485 64.4589 395.386 64.1933C395.087 64.1981 391.791 63.9516 391.492 63.9564C384.303 63.473 378.903 62.6618 371.434 63.3798C369.938 63.4038 369.364 64.9091 372.963 65.45C378.063 66.266 383.453 66.479 388.548 66.9959C393.04 67.2232 399.612 66.5195 399.94 68.3096C397.277 70.1477 395.173 69.5829 391.887 69.9347C388.297 69.9922 379.921 70.1263 376.032 70.1886C370.048 70.2844 368.876 71.7993 375.476 72.8906C383.278 74.2619 396.451 74.6494 404.509 73.3235C409.58 72.3446 413.711 68.6876 418.478 67.4144C423.844 66.1315 429.842 66.9332 435.222 66.5478C435.82 66.5383 436.418 66.5287 437.017 66.5191C442.112 67.036 447.198 66.9546 452.288 67.1723C458.879 67.6653 464.881 68.7661 471.202 71.0588C476.919 73.0619 483.226 74.4571 489.214 74.6605C491.607 74.6221 493.995 74.2847 496.379 73.648C501.151 72.6739 505.605 70.508 507.632 66.2863C507.917 65.384 507.005 64.5009 506.108 64.5153C505.799 63.9217 505.49 63.3282 504.882 62.7395C503.054 60.6741 500.637 59.2166 497.939 58.9606C492.849 58.7428 487.768 59.1234 482.692 59.8032C480.579 58.6401 475.218 60.2221 473.722 60.246C470.137 60.6026 466.856 61.2536 463.271 61.6103C449.505 61.5314 435.995 58.7554 422.248 59.8732C420.453 59.9019 418.957 59.9259 417.167 60.2537C417.157 59.6554 415.652 59.0811 414.147 58.5067ZM434.566 62.9675C435.164 62.958 435.767 63.2475 436.366 63.238C434.87 63.2619 433.075 63.2906 431.579 63.3146L431.28 63.3194C428.279 62.769 424.983 62.5225 421.693 62.5752C421.693 62.5752 421.688 62.276 421.683 61.9768C422.58 61.9625 423.473 61.649 424.67 61.6298C428.269 62.1706 431.57 62.7163 434.566 62.9675ZM486.363 64.8314C487.56 64.8122 488.453 64.4987 489.649 64.4795C490.846 64.4604 492.042 64.4412 493.244 64.7212C492.945 64.726 492.346 64.7356 492.047 64.7404C491.15 64.7547 490.551 64.7643 489.659 65.0778C488.462 65.097 487.261 64.817 486.363 64.8314ZM503.106 63.9648C503.106 63.9648 502.807 63.9696 503.106 63.9648C502.802 63.6705 502.798 63.3713 502.499 63.3761C503.102 63.6657 503.406 63.96 503.415 64.5584C503.41 64.2592 503.106 63.9648 503.106 63.9648ZM420.202 62.8983C420.501 62.8935 420.501 62.8935 420.8 62.8887C420.501 62.8935 420.501 62.8935 420.202 62.8983ZM413.9 61.8022C413.9 61.8022 413.905 62.1014 413.91 62.4005C413.91 62.4005 413.91 62.4005 413.914 62.6997C413.914 62.6997 413.914 62.6997 413.615 62.7045C413.606 62.1062 413.601 61.807 413.292 61.2135C413.591 61.2087 413.596 61.5079 413.9 61.8022C413.895 61.5031 413.9 61.8022 413.9 61.8022ZM407.299 60.711C407.903 61.0005 408.506 61.2901 408.805 61.2853L408.81 61.5845C408.515 61.8884 407.926 62.4963 407.333 62.8051C407.319 61.9076 407.01 61.3141 406.995 60.4166C407 60.7158 407 60.7157 407.299 60.711ZM409.214 68.1612C409.513 68.1564 409.513 68.1564 409.214 68.1612C409.509 67.8572 409.508 67.8572 409.508 67.8572C409.508 67.8572 409.509 67.8572 409.812 68.1516C409.518 68.4555 409.518 68.4555 409.224 68.7595C408.929 69.0634 408.635 69.3674 408.336 69.3722C408.63 69.0682 408.925 68.7643 409.214 68.1612ZM475.637 67.6962C475.637 67.6962 475.641 67.9954 475.637 67.6962C475.337 67.701 474.739 67.7106 474.141 67.7202C474.44 67.7154 475.038 67.7058 475.637 67.6962ZM481.335 68.5027C483.13 68.4739 485.224 68.4404 487.024 68.7108C486.725 68.7156 486.126 68.7252 485.827 68.73C484.631 68.7492 483.434 68.7683 482.536 68.7827C481.938 68.7923 481.634 68.4979 481.335 68.5027ZM501.084 68.4857C500.79 68.7897 500.495 69.0936 500.196 69.0984C500.191 68.7993 500.491 68.7945 500.486 68.4953C500.785 68.4905 500.785 68.4905 501.084 68.4857ZM500.694 62.8065C500.395 62.8113 500.395 62.8113 500.096 62.8161C500.096 62.8161 500.091 62.5169 499.792 62.5217C500.091 62.5169 500.395 62.8113 500.694 62.8065ZM475.589 64.7046C474.691 64.719 473.495 64.7382 472.597 64.7525C473.49 64.439 474.383 64.1255 475.28 64.1111C475.28 64.1111 475.584 64.4055 475.589 64.7046ZM390.513 58.8851C392.009 58.8611 393.505 58.8372 394.701 58.818C394.701 58.818 395.015 59.7107 395.319 60.0051C392.327 60.053 389.022 59.2082 385.727 58.9617C387.522 58.933 389.017 58.909 390.513 58.8851ZM466.947 66.9376C467.246 66.9328 467.545 66.9281 467.844 66.9233C467.844 66.9233 467.849 67.2224 468.148 67.2176L467.849 67.2224C467.55 67.2272 467.251 67.232 466.947 66.9376ZM491.815 68.9334C493.311 68.9094 495.111 69.1798 496.606 69.1559C494.826 70.0821 492.736 70.4148 490.338 70.1539C491.231 69.8404 491.521 69.2373 491.815 68.9334ZM468.689 63.6182C468.095 63.9269 467.801 64.2308 467.507 64.5348C465.113 64.5731 462.416 64.3171 460.023 64.3554C459.724 64.3602 459.425 64.3649 458.826 64.3745C460.621 64.3458 462.112 64.0227 463.907 63.994C465.403 63.97 467.198 63.9413 468.689 63.6182ZM477.774 70.3551C478.073 70.3503 478.372 70.3455 478.676 70.6399C479.878 70.9199 481.976 71.1855 484.071 71.152C484.669 71.1424 485.272 71.432 485.87 71.4224C487.67 71.6928 489.774 72.2576 491.868 72.2241C487.39 72.8943 482.584 71.7743 477.774 70.3551Z" fill="#24346C"/>
<path d="M185.045 102.871C180.838 101.741 175.752 101.822 172.457 101.576C164.973 101.397 157.204 102.119 149.73 102.538C126.714 104.104 103.921 100.878 80.852 99.1526C75.4576 98.6405 69.7688 98.4323 64.3792 98.2194C60.4854 97.9825 56.2876 97.4512 52.4033 97.8126C47.6264 98.4876 43.2061 102.748 49.8402 105.933C51.9535 107.096 54.0572 107.661 56.46 108.221C60.0643 109.061 63.3694 109.906 66.9784 111.045C82.0129 115.592 98.8616 121.307 114.973 118.356C118.852 117.695 123.325 116.726 126.887 114.873C128.074 114.256 128.957 113.344 129.835 112.133C130.134 112.128 130.433 112.124 130.433 112.124C130.733 112.119 130.733 112.119 131.027 111.815C139.379 110.185 148.335 108.845 156.74 110.505C162.443 111.611 168.156 113.315 174.149 113.818C177.444 114.064 181.034 114.007 184.315 113.356C189.975 111.769 191.351 104.266 185.045 102.871ZM149.812 107.624C150.41 107.614 151.303 107.301 151.901 107.291C152.2 107.287 152.499 107.282 152.798 107.277C155.496 107.533 158.198 108.088 160.9 108.643C161.802 108.928 162.998 108.909 163.901 109.194C163.905 109.493 164.509 109.783 164.513 110.082L164.817 110.376C161.811 109.527 158.511 108.981 155.211 108.435C153.406 107.866 151.611 107.894 149.812 107.624ZM92.7156 111.231C90.3127 110.671 88.2138 110.406 85.811 109.846C92.7108 110.932 99.601 111.42 106.496 112.208C109.492 112.459 112.797 113.304 116.088 113.251C116.088 113.251 115.789 113.256 115.794 113.555C108.329 114.572 100.223 112.906 92.7156 111.231ZM113.058 110.906L113.357 110.901C113.657 110.896 113.657 110.896 113.956 110.891C113.661 111.195 113.362 111.2 113.058 110.906ZM80.012 102.757C84.5042 102.984 89.2955 103.207 93.7877 103.434C92.3014 104.056 90.8104 104.379 89.3147 104.403C85.4304 104.765 82.1157 103.322 78.2171 102.786C77.6188 102.795 77.3148 102.501 76.7165 102.51C77.6188 102.795 78.8154 102.776 80.012 102.757ZM72.5666 104.971C72.5618 104.672 72.2579 104.377 72.2531 104.078C73.7537 104.353 75.2543 104.628 76.75 104.604C78.2506 104.88 79.7512 105.155 81.2518 105.43C78.2602 105.478 75.563 105.222 72.5666 104.971ZM106.975 104.719C109.672 104.975 112.369 105.231 115.071 105.786C115.076 106.085 115.38 106.38 115.679 106.375C114.786 106.689 113.889 106.703 112.996 107.016C109.98 105.569 106.989 105.617 103.409 106.272C102.81 106.282 102.815 106.581 102.82 106.88C99.2252 106.638 95.3361 106.701 91.7414 106.459C92.3398 106.45 92.6341 106.146 93.2324 106.136C96.808 105.181 100.084 104.231 103.973 104.169C104.876 104.453 106.072 104.434 106.975 104.719ZM119.592 107.809C119.886 107.505 119.877 106.906 119.573 106.612C119.269 106.318 119.264 106.018 118.96 105.724C120.76 105.994 122.555 105.966 124.35 105.937C123.761 106.545 123.177 107.452 122.588 108.06C121.097 108.383 119.905 108.701 118.41 108.725C118.709 108.72 119.302 108.412 119.592 107.809ZM63.5919 105.114C61.2034 105.452 58.8054 105.191 56.7017 104.626C59.095 104.588 61.493 104.849 63.5919 105.114ZM127.351 106.487L127.65 106.483C127.65 106.483 127.65 106.483 127.655 106.782C127.356 106.787 127.061 107.091 126.762 107.095C127.056 106.791 127.351 106.487 127.351 106.487ZM165.638 105.575C166.536 105.561 167.732 105.542 168.63 105.527C168.635 105.826 168.635 105.826 168.639 106.126C167.747 106.439 167.148 106.449 166.256 106.762C166.246 106.164 165.942 105.87 165.638 105.575ZM69.5894 105.916C69.8886 105.911 69.8838 105.612 69.8838 105.612C70.1829 105.607 70.7813 105.598 71.0804 105.593C70.4869 105.902 70.8004 106.794 71.4035 107.084C70.2069 107.103 69.0103 107.122 67.8136 107.141C67.2153 107.151 66.9162 107.156 66.3178 107.165C67.5097 106.847 68.7015 106.529 69.5894 105.916ZM124.118 110.13C124.716 110.12 125.309 109.812 125.908 109.802C125.02 110.415 123.833 111.032 122.646 111.65C122.94 111.346 123.529 110.738 124.118 110.13ZM170.762 107.887C171.061 107.882 171.061 107.882 171.36 107.877C172.263 108.162 173.165 108.447 174.067 108.732C172.866 108.452 171.664 108.172 170.762 107.887ZM178.535 107.463C180.031 107.439 181.532 107.715 182.733 107.995C182.439 108.299 181.841 108.308 181.546 108.612C180.644 108.327 179.438 107.748 178.535 107.463ZM86.4811 114.323C80.1749 112.928 73.8591 110.935 67.548 109.24C69.6469 109.506 71.4418 109.477 73.5407 109.743C73.5503 110.341 73.859 110.935 74.4574 110.925C83.48 113.773 92.7635 114.223 102.061 115.57C105.062 116.121 108.059 116.372 111.055 116.623C111.354 116.618 111.653 116.613 111.953 116.609C103.291 117.645 94.5919 116.288 86.4811 114.323ZM117.024 115.63C117.024 115.63 117.323 115.625 117.318 115.326C118.809 115.003 120.3 114.68 121.791 114.357C120.305 114.979 118.515 115.307 117.024 115.63ZM122.385 114.048L122.086 114.053C122.09 114.352 122.09 114.352 122.385 114.048ZM131.886 109.407C132.176 108.804 132.764 108.196 133.054 107.593L133.353 107.588C134.555 107.868 136.05 107.844 137.247 107.825C138.144 107.811 139.341 107.792 140.243 108.076C137.556 108.419 134.868 108.761 131.886 109.407ZM184.277 110.962C183.09 111.58 181.898 111.898 180.402 111.922C181.295 111.608 182.188 111.295 183.08 110.981C183.379 110.977 183.375 110.677 183.37 110.378C184.263 110.065 185.445 109.148 186.029 108.241C186.318 107.638 186.01 107.044 185.706 106.75C186.304 106.741 187.201 106.726 187.496 106.422C187.496 106.422 187.496 106.422 187.501 106.721C187.833 108.811 185.763 110.34 184.277 110.962Z" fill="#76BD1D"/>
</svg>
